G04 #@! TF.GenerationSoftware,KiCad,Pcbnew,8.0.3*
G04 #@! TF.CreationDate,2025-10-01T01:01:48-04:00*
G04 #@! TF.ProjectId,KP60,4b503630-2e6b-4696-9361-645f70636258,rev?*
G04 #@! TF.SameCoordinates,Original*
G04 #@! TF.FileFunction,Paste,Bot*
G04 #@! TF.FilePolarity,Positive*
%FSLAX46Y46*%
G04 Gerber Fmt 4.6, Leading zero omitted, Abs format (unit mm)*
G04 Created by KiCad (PCBNEW 8.0.3) date 2025-10-01 01:01:48*
%MOMM*%
%LPD*%
G01*
G04 APERTURE LIST*
G04 Aperture macros list*
%AMRoundRect*
0 Rectangle with rounded corners*
0 $1 Rounding radius*
0 $2 $3 $4 $5 $6 $7 $8 $9 X,Y pos of 4 corners*
0 Add a 4 corners polygon primitive as box body*
4,1,4,$2,$3,$4,$5,$6,$7,$8,$9,$2,$3,0*
0 Add four circle primitives for the rounded corners*
1,1,$1+$1,$2,$3*
1,1,$1+$1,$4,$5*
1,1,$1+$1,$6,$7*
1,1,$1+$1,$8,$9*
0 Add four rect primitives between the rounded corners*
20,1,$1+$1,$2,$3,$4,$5,0*
20,1,$1+$1,$4,$5,$6,$7,0*
20,1,$1+$1,$6,$7,$8,$9,0*
20,1,$1+$1,$8,$9,$2,$3,0*%
G04 Aperture macros list end*
%ADD10RoundRect,0.237500X-0.237500X0.250000X-0.237500X-0.250000X0.237500X-0.250000X0.237500X0.250000X0*%
%ADD11RoundRect,0.225000X0.375000X-0.225000X0.375000X0.225000X-0.375000X0.225000X-0.375000X-0.225000X0*%
%ADD12RoundRect,0.250000X0.337500X0.475000X-0.337500X0.475000X-0.337500X-0.475000X0.337500X-0.475000X0*%
%ADD13RoundRect,0.250000X0.475000X-0.337500X0.475000X0.337500X-0.475000X0.337500X-0.475000X-0.337500X0*%
%ADD14RoundRect,0.075000X0.075000X-0.662500X0.075000X0.662500X-0.075000X0.662500X-0.075000X-0.662500X0*%
%ADD15RoundRect,0.075000X0.662500X-0.075000X0.662500X0.075000X-0.662500X0.075000X-0.662500X-0.075000X0*%
%ADD16RoundRect,0.150000X-0.150000X0.512500X-0.150000X-0.512500X0.150000X-0.512500X0.150000X0.512500X0*%
%ADD17RoundRect,0.225000X0.225000X0.375000X-0.225000X0.375000X-0.225000X-0.375000X0.225000X-0.375000X0*%
%ADD18R,0.600000X1.450000*%
%ADD19R,0.300000X1.450000*%
%ADD20R,1.700000X1.000000*%
%ADD21RoundRect,0.150000X0.150000X-0.512500X0.150000X0.512500X-0.150000X0.512500X-0.150000X-0.512500X0*%
%ADD22RoundRect,0.250001X-0.624999X0.462499X-0.624999X-0.462499X0.624999X-0.462499X0.624999X0.462499X0*%
%ADD23RoundRect,0.250000X-0.337500X-0.475000X0.337500X-0.475000X0.337500X0.475000X-0.337500X0.475000X0*%
%ADD24RoundRect,0.250000X-0.475000X0.337500X-0.475000X-0.337500X0.475000X-0.337500X0.475000X0.337500X0*%
G04 APERTURE END LIST*
D10*
X79050000Y-78605000D03*
X79050000Y-80430000D03*
D11*
X319087500Y-107726750D03*
X319087500Y-104426750D03*
D12*
X177697500Y-167140000D03*
X175622500Y-167140000D03*
D11*
X285750000Y-126776750D03*
X285750000Y-123476750D03*
X261937500Y-107726750D03*
X261937500Y-104426750D03*
X233362500Y-88676750D03*
X233362500Y-85376750D03*
X297656250Y-164876750D03*
X297656250Y-161576750D03*
X92868750Y-145826750D03*
X92868750Y-142526750D03*
X200025000Y-145826750D03*
X200025000Y-142526750D03*
X280987500Y-107726750D03*
X280987500Y-104426750D03*
X161925000Y-145826750D03*
X161925000Y-142526750D03*
X176212500Y-88676750D03*
X176212500Y-85376750D03*
X223837500Y-107726750D03*
X223837500Y-104426750D03*
X202406250Y-164876750D03*
X202406250Y-161576750D03*
D12*
X177687500Y-164980000D03*
X175612500Y-164980000D03*
D11*
X204787500Y-107726750D03*
X204787500Y-104426750D03*
X242887500Y-107726750D03*
X242887500Y-104426750D03*
D10*
X91620000Y-78727500D03*
X91620000Y-80552500D03*
D11*
X152400000Y-126776750D03*
X152400000Y-123476750D03*
X214312500Y-88676750D03*
X214312500Y-85376750D03*
X88106250Y-126776750D03*
X88106250Y-123476750D03*
D13*
X94550000Y-94967500D03*
X94550000Y-92892500D03*
D11*
X133350000Y-126776750D03*
X133350000Y-123476750D03*
D14*
X173680000Y-163760000D03*
X173180000Y-163760000D03*
X172680000Y-163760000D03*
X172180000Y-163760000D03*
X171680000Y-163760000D03*
X171180000Y-163760000D03*
X170680000Y-163760000D03*
X170180000Y-163760000D03*
X169680000Y-163760000D03*
X169180000Y-163760000D03*
X168680000Y-163760000D03*
X168180000Y-163760000D03*
D15*
X166767500Y-162347500D03*
X166767500Y-161847500D03*
X166767500Y-161347500D03*
X166767500Y-160847500D03*
X166767500Y-160347500D03*
X166767500Y-159847500D03*
X166767500Y-159347500D03*
X166767500Y-158847500D03*
X166767500Y-158347500D03*
X166767500Y-157847500D03*
X166767500Y-157347500D03*
X166767500Y-156847500D03*
D14*
X168180000Y-155435000D03*
X168680000Y-155435000D03*
X169180000Y-155435000D03*
X169680000Y-155435000D03*
X170180000Y-155435000D03*
X170680000Y-155435000D03*
X171180000Y-155435000D03*
X171680000Y-155435000D03*
X172180000Y-155435000D03*
X172680000Y-155435000D03*
X173180000Y-155435000D03*
X173680000Y-155435000D03*
D15*
X175092500Y-156847500D03*
X175092500Y-157347500D03*
X175092500Y-157847500D03*
X175092500Y-158347500D03*
X175092500Y-158847500D03*
X175092500Y-159347500D03*
X175092500Y-159847500D03*
X175092500Y-160347500D03*
X175092500Y-160847500D03*
X175092500Y-161347500D03*
X175092500Y-161847500D03*
X175092500Y-162347500D03*
D11*
X321468750Y-164876750D03*
X321468750Y-161576750D03*
X309562500Y-88676750D03*
X309562500Y-85376750D03*
D16*
X90000000Y-92735000D03*
X91900000Y-92735000D03*
X90950000Y-95010000D03*
D11*
X171450000Y-126776750D03*
X171450000Y-123476750D03*
X342900000Y-107726750D03*
X342900000Y-104426750D03*
X195262500Y-88676750D03*
X195262500Y-85376750D03*
X130968750Y-164876750D03*
X130968750Y-161576750D03*
D17*
X100287500Y-88265000D03*
X96987500Y-88265000D03*
D11*
X276225000Y-145826750D03*
X276225000Y-142526750D03*
D18*
X82032500Y-80025000D03*
X82832500Y-80025000D03*
D19*
X84032500Y-80025000D03*
X85032500Y-80025000D03*
X85532500Y-80025000D03*
X86532500Y-80025000D03*
D18*
X87732500Y-80025000D03*
X88532500Y-80025000D03*
X88532500Y-80025000D03*
X87732500Y-80025000D03*
D19*
X87032500Y-80025000D03*
X86032500Y-80025000D03*
X84532500Y-80025000D03*
X83532500Y-80025000D03*
D18*
X82832500Y-80025000D03*
X82032500Y-80025000D03*
D11*
X109537500Y-107726750D03*
X109537500Y-104426750D03*
X345281250Y-164876750D03*
X345281250Y-161576750D03*
X157162500Y-88676750D03*
X157162500Y-85376750D03*
D20*
X181100000Y-165070000D03*
X187400000Y-165070000D03*
X181100000Y-161270000D03*
X187400000Y-161270000D03*
D17*
X81026000Y-88519000D03*
X77726000Y-88519000D03*
D11*
X304800000Y-126776750D03*
X304800000Y-123476750D03*
X83343750Y-164876750D03*
X83343750Y-161576750D03*
D21*
X86230000Y-86830000D03*
X85280000Y-86830000D03*
X84330000Y-86830000D03*
X84330000Y-84555000D03*
X85280000Y-84555000D03*
X86230000Y-84555000D03*
D11*
X335756250Y-126776750D03*
X335756250Y-123476750D03*
X114300000Y-126776750D03*
X114300000Y-123476750D03*
X300037500Y-107726750D03*
X300037500Y-104426750D03*
X147637500Y-107726750D03*
X147637500Y-104426750D03*
D22*
X89000000Y-85292500D03*
X89000000Y-88267500D03*
D23*
X92262500Y-90660000D03*
X94337500Y-90660000D03*
D11*
X257175000Y-145826750D03*
X257175000Y-142526750D03*
X119062500Y-88676750D03*
X119062500Y-85376750D03*
X238125000Y-145826750D03*
X238125000Y-142526750D03*
X247650000Y-126776750D03*
X247650000Y-123476750D03*
X190500000Y-126776750D03*
X190500000Y-123476750D03*
X128587500Y-107789250D03*
X128587500Y-104489250D03*
X252412500Y-88676750D03*
X252412500Y-85376750D03*
X185737500Y-107726750D03*
X185737500Y-104426750D03*
X271462500Y-88676750D03*
X271462500Y-85376750D03*
X228600000Y-126776750D03*
X228600000Y-123476750D03*
X166687500Y-107726750D03*
X166687500Y-104426750D03*
X180975000Y-145826750D03*
X180975000Y-142526750D03*
D10*
X178900000Y-161287500D03*
X178900000Y-163112500D03*
D23*
X167405000Y-166300000D03*
X169480000Y-166300000D03*
D11*
X338137500Y-88676750D03*
X338137500Y-85376750D03*
X107156250Y-164876750D03*
X107156250Y-161576750D03*
X85725000Y-107726750D03*
X85725000Y-104426750D03*
X142875000Y-145826750D03*
X142875000Y-142526750D03*
X209550000Y-126776750D03*
X209550000Y-123476750D03*
X273843750Y-164876750D03*
X273843750Y-161576750D03*
D12*
X173557500Y-166280000D03*
X171482500Y-166280000D03*
D24*
X163520000Y-155812500D03*
X163520000Y-157887500D03*
D11*
X290512500Y-88676750D03*
X290512500Y-85376750D03*
X123825000Y-145826750D03*
X123825000Y-142526750D03*
X295275000Y-145826750D03*
X295275000Y-142526750D03*
X330993750Y-145764250D03*
X330993750Y-142464250D03*
X138112500Y-88676750D03*
X138112500Y-85376750D03*
D24*
X160660000Y-155812500D03*
X160660000Y-157887500D03*
D11*
X266700000Y-126776750D03*
X266700000Y-123476750D03*
D12*
X175447500Y-152920000D03*
X173372500Y-152920000D03*
D11*
X219075000Y-145826750D03*
X219075000Y-142526750D03*
M02*
