M48
; DRILL file {KiCad 8.0.3} date 2025-10-01T01:02:00-0400
; FORMAT={-:-/ absolute / metric / decimal}
; #@! TF.CreationDate,2025-10-01T01:02:00-04:00
; #@! TF.GenerationSoftware,Kicad,Pcbnew,8.0.3
; #@! TF.FileFunction,Plated,1,2,PTH
FMAT,2
METRIC
; #@! TA.AperFunction,Plated,PTH,ViaDrill
T1C0.300
; #@! TA.AperFunction,Plated,PTH,ComponentDrill
T2C0.600
; #@! TA.AperFunction,Plated,PTH,ComponentDrill
T3C1.500
%
G90
G05
T1
X71.795Y-107.77
X73.445Y-107.77
X79.905Y-162.66
X79.94Y-77.58
X80.726Y-163.146
X82.41Y-85.74
X83.34Y-82.04
X83.95Y-77.68
X84.475Y-89.48
X84.534Y-82.84
X84.93Y-85.76
X85.3Y-84.59
X85.88Y-81.95
X86.339Y-163.177
X86.34Y-88.4
X86.968Y-162.477
X87.03Y-77.66
X87.13Y-82.09
X89.75Y-89.5
X90.57Y-77.56
X95.52Y-145.87
X96.0Y-92.86
X99.12Y-109.49
X99.14Y-106.63
X99.685Y-126.78
X102.56Y-126.8
X103.488Y-162.477
X104.198Y-163.145
X108.211Y-142.711
X109.406Y-162.419
X110.612Y-162.635
X128.111Y-162.551
X129.008Y-161.844
X133.582Y-162.544
X134.222Y-161.912
X141.52Y-162.03
X141.54Y-166.07
X142.78Y-164.93
X154.01Y-148.225
X154.05Y-150.55
X157.84Y-159.97
X157.865Y-160.77
X163.55Y-159.09
X167.06Y-164.78
X168.68Y-158.19
X169.13Y-146.527
X169.19Y-159.59
X169.69Y-154.23
X170.173Y-156.564
X170.686Y-154.306
X171.096Y-156.621
X172.73Y-151.52
X173.303Y-161.198
X173.68Y-160.41
X192.2Y-167.6
X195.28Y-146.67
X205.26Y-146.527
X224.42Y-146.527
X242.01Y-161.49
X247.93Y-146.527
X261.61Y-149.78
T3
X73.184Y-88.138
X74.295Y-156.718
X76.676Y-99.568
X79.057Y-118.618
X79.534Y-85.598
X80.645Y-154.178
X83.026Y-97.028
X83.82Y-137.668
X85.407Y-116.078
X90.17Y-135.128
X92.234Y-88.138
X98.108Y-156.718
X98.584Y-85.598
X100.489Y-99.568
X104.457Y-154.178
X105.251Y-118.618
X106.839Y-97.028
X110.014Y-80.518
X111.601Y-116.078
X114.776Y-137.668
X116.364Y-77.978
X119.539Y-99.568
X121.126Y-135.128
X121.92Y-156.718
X124.301Y-118.618
X125.889Y-97.028
X128.27Y-154.178
X129.064Y-80.518
X130.651Y-116.078
X133.826Y-137.668
X135.414Y-77.978
X138.589Y-99.568
X140.176Y-135.128
X143.351Y-118.618
X144.939Y-97.028
X148.114Y-80.518
X149.701Y-116.078
X152.876Y-137.668
X154.464Y-77.978
X157.797Y-99.568
X159.226Y-135.128
X162.401Y-118.618
X164.147Y-97.028
X167.164Y-80.518
X168.751Y-116.078
X171.926Y-137.668
X173.514Y-77.978
X176.689Y-99.568
X178.276Y-135.128
X181.451Y-118.618
X183.039Y-97.028
X186.214Y-80.518
X187.801Y-116.078
X190.976Y-137.668
X192.564Y-77.978
X193.357Y-156.718
X195.739Y-99.568
X197.326Y-135.128
X199.707Y-154.178
X200.501Y-118.618
X202.089Y-97.028
X205.264Y-80.518
X206.851Y-116.078
X210.026Y-137.668
X211.614Y-77.978
X214.789Y-99.568
X216.376Y-135.128
X219.551Y-118.618
X221.139Y-97.028
X224.314Y-80.518
X225.901Y-116.078
X229.076Y-137.668
X230.664Y-77.978
X233.839Y-99.568
X235.426Y-135.128
X238.601Y-118.618
X240.189Y-97.028
X243.364Y-80.518
X244.951Y-116.078
X248.126Y-137.668
X249.714Y-77.978
X252.889Y-99.568
X254.476Y-135.128
X257.651Y-118.618
X259.239Y-97.028
X262.414Y-80.518
X264.001Y-116.078
X264.795Y-156.718
X267.176Y-137.668
X268.764Y-77.978
X271.145Y-154.178
X271.939Y-99.568
X273.526Y-135.128
X276.701Y-118.618
X278.289Y-97.028
X281.464Y-80.518
X283.051Y-116.078
X286.226Y-137.668
X287.814Y-77.978
X288.607Y-156.718
X290.989Y-99.568
X292.576Y-135.128
X294.957Y-154.178
X295.751Y-118.618
X297.339Y-97.028
X300.514Y-80.518
X302.101Y-116.078
X306.864Y-77.978
X310.039Y-99.568
X312.42Y-156.718
X316.389Y-97.028
X318.77Y-154.178
X321.945Y-137.668
X326.707Y-118.618
X328.295Y-135.128
X329.089Y-80.518
X333.058Y-116.078
X333.851Y-99.568
X335.439Y-77.978
X336.232Y-156.718
X340.201Y-97.028
X342.582Y-154.178
T2
X80.962Y-74.63G85X80.962Y-75.23
G05
X80.962Y-78.56G85X80.962Y-79.66
G05
X89.602Y-74.63G85X89.602Y-75.23
G05
X89.602Y-78.56G85X89.602Y-79.66
G05
M30
