M48
; DRILL file {KiCad 8.0.3} date 2025-10-01T01:02:00-0400
; FORMAT={-:-/ absolute / metric / decimal}
; #@! TF.CreationDate,2025-10-01T01:02:00-04:00
; #@! TF.GenerationSoftware,Kicad,Pcbnew,8.0.3
; #@! TF.FileFunction,NonPlated,1,2,NPTH
FMAT,2
METRIC
; #@! TA.AperFunction,NonPlated,NPTH,ComponentDrill
T1C0.650
; #@! TA.AperFunction,NonPlated,NPTH,ComponentDrill
T2C1.750
; #@! TA.AperFunction,NonPlated,NPTH,ComponentDrill
T3C3.048
; #@! TA.AperFunction,NonPlated,NPTH,ComponentDrill
T4C3.988
; #@! TA.AperFunction,NonPlated,NPTH,ComponentDrill
T5C4.000
%
G90
G05
T1
X82.392Y-78.58
X88.172Y-78.58
T2
X70.644Y-83.058
X73.025Y-159.258
X75.406Y-102.108
X77.787Y-121.158
X80.804Y-83.058
X82.55Y-140.208
X83.185Y-159.258
X85.566Y-102.108
X87.947Y-121.158
X89.694Y-83.058
X92.71Y-140.208
X96.837Y-159.258
X99.219Y-102.108
X99.854Y-83.058
X103.981Y-121.158
X106.997Y-159.258
X108.744Y-83.058
X109.379Y-102.108
X113.506Y-140.208
X114.141Y-121.158
X118.269Y-102.108
X118.904Y-83.058
X120.65Y-159.258
X123.031Y-121.158
X123.666Y-140.208
X127.794Y-83.058
X128.429Y-102.108
X130.81Y-159.258
X132.556Y-140.208
X133.191Y-121.158
X137.319Y-102.108
X137.954Y-83.058
X142.081Y-121.158
X142.716Y-140.208
X146.844Y-83.058
X147.479Y-102.108
X151.606Y-140.208
X152.241Y-121.158
X156.528Y-102.108
X157.004Y-83.058
X161.131Y-121.158
X161.766Y-140.208
X165.894Y-83.058
X166.688Y-102.108
X170.656Y-140.208
X171.291Y-121.158
X175.419Y-102.108
X176.054Y-83.058
X180.181Y-121.158
X180.816Y-140.208
X184.944Y-83.058
X185.579Y-102.108
X189.706Y-140.208
X190.341Y-121.158
X192.087Y-159.258
X194.469Y-102.108
X195.104Y-83.058
X199.231Y-121.158
X199.866Y-140.208
X202.248Y-159.258
X203.994Y-83.058
X204.629Y-102.108
X208.756Y-140.208
X209.391Y-121.158
X213.519Y-102.108
X214.154Y-83.058
X218.281Y-121.158
X218.916Y-140.208
X223.044Y-83.058
X223.679Y-102.108
X227.806Y-140.208
X228.441Y-121.158
X232.569Y-102.108
X233.204Y-83.058
X237.331Y-121.158
X237.966Y-140.208
X242.094Y-83.058
X242.729Y-102.108
X246.856Y-140.208
X247.491Y-121.158
X251.619Y-102.108
X252.254Y-83.058
X256.381Y-121.158
X257.016Y-140.208
X261.144Y-83.058
X261.779Y-102.108
X263.525Y-159.258
X265.906Y-140.208
X266.541Y-121.158
X270.669Y-102.108
X271.304Y-83.058
X273.685Y-159.258
X275.431Y-121.158
X276.066Y-140.208
X280.194Y-83.058
X280.829Y-102.108
X284.956Y-140.208
X285.591Y-121.158
X287.337Y-159.258
X289.719Y-102.108
X290.354Y-83.058
X294.481Y-121.158
X295.116Y-140.208
X297.498Y-159.258
X299.244Y-83.058
X299.879Y-102.108
X304.641Y-121.158
X308.769Y-102.108
X309.404Y-83.058
X311.15Y-159.258
X318.929Y-102.108
X320.675Y-140.208
X321.31Y-159.258
X325.438Y-121.158
X327.819Y-83.058
X330.835Y-140.208
X332.581Y-102.108
X334.962Y-159.258
X335.597Y-121.158
X337.979Y-83.058
X342.741Y-102.108
X345.123Y-159.258
T3
X75.692Y-133.225
X99.568Y-133.225
X147.297Y-150.89
X247.297Y-150.89
X313.812Y-133.435
X318.582Y-114.175
X320.962Y-76.075
X337.688Y-133.435
X342.458Y-114.175
X344.838Y-76.075
T4
X75.692Y-148.435
X99.568Y-148.435
X147.297Y-166.1
X247.297Y-166.1
X313.812Y-148.645
X318.582Y-129.385
X320.962Y-91.285
X337.688Y-148.645
X342.458Y-129.385
X344.838Y-91.285
T5
X75.724Y-83.058
X78.105Y-159.258
X80.486Y-102.108
X82.867Y-121.158
X87.63Y-140.208
X94.774Y-83.058
X101.917Y-159.258
X104.299Y-102.108
X109.061Y-121.158
X113.824Y-83.058
X118.586Y-140.208
X123.349Y-102.108
X125.73Y-159.258
X128.111Y-121.158
X132.874Y-83.058
X137.636Y-140.208
X142.399Y-102.108
X147.161Y-121.158
X151.924Y-83.058
X156.686Y-140.208
X161.607Y-102.108
X166.211Y-121.158
X170.974Y-83.058
X175.736Y-140.208
X180.499Y-102.108
X185.261Y-121.158
X190.024Y-83.058
X194.786Y-140.208
X197.167Y-159.258
X199.549Y-102.108
X204.311Y-121.158
X209.074Y-83.058
X213.836Y-140.208
X218.599Y-102.108
X223.361Y-121.158
X228.124Y-83.058
X232.886Y-140.208
X237.649Y-102.108
X242.411Y-121.158
X247.174Y-83.058
X251.936Y-140.208
X256.699Y-102.108
X261.461Y-121.158
X266.224Y-83.058
X268.605Y-159.258
X270.986Y-140.208
X275.749Y-102.108
X280.511Y-121.158
X285.274Y-83.058
X290.036Y-140.208
X292.417Y-159.258
X294.799Y-102.108
X299.561Y-121.158
X304.324Y-83.058
X313.849Y-102.108
X316.23Y-159.258
X325.755Y-140.208
X330.517Y-121.158
X332.899Y-83.058
X337.661Y-102.108
X340.042Y-159.258
M30
