%TF.GenerationSoftware,KiCad,Pcbnew,8.0.3*%
%TF.CreationDate,2025-10-01T01:02:01-04:00*%
%TF.ProjectId,KP60,4b503630-2e6b-4696-9361-645f70636258,rev?*%
%TF.SameCoordinates,Original*%
%TF.FileFunction,Drillmap*%
%TF.FilePolarity,Positive*%
%FSLAX45Y45*%
G04 Gerber Fmt 4.5, Leading zero omitted, Abs format (unit mm)*
G04 Created by KiCad (PCBNEW 8.0.3) date 2025-10-01 01:02:01*
%MOMM*%
%LPD*%
G01*
G04 APERTURE LIST*
%ADD10C,0.050000*%
%ADD11C,0.200000*%
%ADD12C,0.100000*%
%ADD13C,0.150000*%
G04 APERTURE END LIST*
D10*
X35157500Y-7385000D02*
X35157500Y-16845000D01*
X6657500Y-16845000D02*
X35157500Y-16845000D01*
X6657500Y-7385000D02*
X35157500Y-7385000D01*
X6657500Y-16845000D02*
X6657500Y-7385000D01*
D11*
D12*
X7164500Y-10762000D02*
X7194500Y-10792000D01*
X7194500Y-10762000D02*
X7164500Y-10792000D01*
X7329500Y-10762000D02*
X7359500Y-10792000D01*
X7359500Y-10762000D02*
X7329500Y-10792000D01*
X7975533Y-16251000D02*
X8005533Y-16281000D01*
X8005533Y-16251000D02*
X7975533Y-16281000D01*
X7979000Y-7743000D02*
X8009000Y-7773000D01*
X8009000Y-7743000D02*
X7979000Y-7773000D01*
X8057647Y-16299647D02*
X8087647Y-16329647D01*
X8087647Y-16299647D02*
X8057647Y-16329647D01*
X8226000Y-8559000D02*
X8256000Y-8589000D01*
X8256000Y-8559000D02*
X8226000Y-8589000D01*
X8319000Y-8189000D02*
X8349000Y-8219000D01*
X8349000Y-8189000D02*
X8319000Y-8219000D01*
X8380000Y-7753000D02*
X8410000Y-7783000D01*
X8410000Y-7753000D02*
X8380000Y-7783000D01*
X8432500Y-8933000D02*
X8462500Y-8963000D01*
X8462500Y-8933000D02*
X8432500Y-8963000D01*
X8438375Y-8269000D02*
X8468375Y-8299000D01*
X8468375Y-8269000D02*
X8438375Y-8299000D01*
X8478000Y-8561000D02*
X8508000Y-8591000D01*
X8508000Y-8561000D02*
X8478000Y-8591000D01*
X8515000Y-8444000D02*
X8545000Y-8474000D01*
X8545000Y-8444000D02*
X8515000Y-8474000D01*
X8573000Y-8180000D02*
X8603000Y-8210000D01*
X8603000Y-8180000D02*
X8573000Y-8210000D01*
X8618853Y-16302675D02*
X8648853Y-16332675D01*
X8648853Y-16302675D02*
X8618853Y-16332675D01*
X8619000Y-8825000D02*
X8649000Y-8855000D01*
X8649000Y-8825000D02*
X8619000Y-8855000D01*
X8681843Y-16232675D02*
X8711843Y-16262675D01*
X8711843Y-16232675D02*
X8681843Y-16262675D01*
X8688000Y-7751000D02*
X8718000Y-7781000D01*
X8718000Y-7751000D02*
X8688000Y-7781000D01*
X8698000Y-8194000D02*
X8728000Y-8224000D01*
X8728000Y-8194000D02*
X8698000Y-8224000D01*
X8960000Y-8935000D02*
X8990000Y-8965000D01*
X8990000Y-8935000D02*
X8960000Y-8965000D01*
X9042000Y-7741000D02*
X9072000Y-7771000D01*
X9072000Y-7741000D02*
X9042000Y-7771000D01*
X9537000Y-14572000D02*
X9567000Y-14602000D01*
X9567000Y-14572000D02*
X9537000Y-14602000D01*
X9585000Y-9271000D02*
X9615000Y-9301000D01*
X9615000Y-9271000D02*
X9585000Y-9301000D01*
X9897000Y-10934000D02*
X9927000Y-10964000D01*
X9927000Y-10934000D02*
X9897000Y-10964000D01*
X9899000Y-10648000D02*
X9929000Y-10678000D01*
X9929000Y-10648000D02*
X9899000Y-10678000D01*
X9953500Y-12663000D02*
X9983500Y-12693000D01*
X9983500Y-12663000D02*
X9953500Y-12693000D01*
X10241000Y-12665000D02*
X10271000Y-12695000D01*
X10271000Y-12665000D02*
X10241000Y-12695000D01*
X10333838Y-16232675D02*
X10363838Y-16262675D01*
X10363838Y-16232675D02*
X10333838Y-16262675D01*
X10404810Y-16299485D02*
X10434810Y-16329485D01*
X10434810Y-16299485D02*
X10404810Y-16329485D01*
X10806059Y-14256059D02*
X10836059Y-14286059D01*
X10836059Y-14256059D02*
X10806059Y-14286059D01*
X10925638Y-16226932D02*
X10955638Y-16256932D01*
X10955638Y-16226932D02*
X10925638Y-16256932D01*
X11046234Y-16248533D02*
X11076234Y-16278533D01*
X11076234Y-16248533D02*
X11046234Y-16278533D01*
X12796147Y-16240147D02*
X12826147Y-16270147D01*
X12826147Y-16240147D02*
X12796147Y-16270147D01*
X12885820Y-16169444D02*
X12915820Y-16199444D01*
X12915820Y-16169444D02*
X12885820Y-16199444D01*
X13343150Y-16239444D02*
X13373150Y-16269444D01*
X13373150Y-16239444D02*
X13343150Y-16269444D01*
X13407161Y-16176178D02*
X13437161Y-16206178D01*
X13437161Y-16176178D02*
X13407161Y-16206178D01*
X14137000Y-16188000D02*
X14167000Y-16218000D01*
X14167000Y-16188000D02*
X14137000Y-16218000D01*
X14139000Y-16592000D02*
X14169000Y-16622000D01*
X14169000Y-16592000D02*
X14139000Y-16622000D01*
X14263000Y-16478000D02*
X14293000Y-16508000D01*
X14293000Y-16478000D02*
X14263000Y-16508000D01*
X15386000Y-14807500D02*
X15416000Y-14837500D01*
X15416000Y-14807500D02*
X15386000Y-14837500D01*
X15390000Y-15040000D02*
X15420000Y-15070000D01*
X15420000Y-15040000D02*
X15390000Y-15070000D01*
X15769000Y-15982000D02*
X15799000Y-16012000D01*
X15799000Y-15982000D02*
X15769000Y-16012000D01*
X15771499Y-16061961D02*
X15801499Y-16091961D01*
X15801499Y-16061961D02*
X15771499Y-16091961D01*
X16340000Y-15894000D02*
X16370000Y-15924000D01*
X16370000Y-15894000D02*
X16340000Y-15924000D01*
X16691000Y-16463000D02*
X16721000Y-16493000D01*
X16721000Y-16463000D02*
X16691000Y-16493000D01*
X16853000Y-15804000D02*
X16883000Y-15834000D01*
X16883000Y-15804000D02*
X16853000Y-15834000D01*
X16898000Y-14637675D02*
X16928000Y-14667675D01*
X16928000Y-14637675D02*
X16898000Y-14667675D01*
X16904000Y-15944000D02*
X16934000Y-15974000D01*
X16934000Y-15944000D02*
X16904000Y-15974000D01*
X16954000Y-15408000D02*
X16984000Y-15438000D01*
X16984000Y-15408000D02*
X16954000Y-15438000D01*
X17002348Y-15641353D02*
X17032348Y-15671353D01*
X17032348Y-15641353D02*
X17002348Y-15671353D01*
X17053649Y-15415650D02*
X17083649Y-15445650D01*
X17083649Y-15415650D02*
X17053649Y-15445650D01*
X17094578Y-15647148D02*
X17124578Y-15677148D01*
X17124578Y-15647148D02*
X17094578Y-15677148D01*
X17258000Y-15137000D02*
X17288000Y-15167000D01*
X17288000Y-15137000D02*
X17258000Y-15167000D01*
X17315296Y-16104750D02*
X17345296Y-16134750D01*
X17345296Y-16104750D02*
X17315296Y-16134750D01*
X17353000Y-16026000D02*
X17383000Y-16056000D01*
X17383000Y-16026000D02*
X17353000Y-16056000D01*
X19205000Y-16745000D02*
X19235000Y-16775000D01*
X19235000Y-16745000D02*
X19205000Y-16775000D01*
X19513000Y-14652000D02*
X19543000Y-14682000D01*
X19543000Y-14652000D02*
X19513000Y-14682000D01*
X20511000Y-14637675D02*
X20541000Y-14667675D01*
X20541000Y-14637675D02*
X20511000Y-14667675D01*
X22427000Y-14637675D02*
X22457000Y-14667675D01*
X22457000Y-14637675D02*
X22427000Y-14667675D01*
X24186000Y-16134000D02*
X24216000Y-16164000D01*
X24216000Y-16134000D02*
X24186000Y-16164000D01*
X24778000Y-14637675D02*
X24808000Y-14667675D01*
X24808000Y-14637675D02*
X24778000Y-14667675D01*
X26146000Y-14963000D02*
X26176000Y-14993000D01*
X26176000Y-14963000D02*
X26146000Y-14993000D01*
X8126250Y-7493000D02*
G75*
G02*
X8066250Y-7493000I-30000J0D01*
G01*
X8066250Y-7493000D02*
G75*
G02*
X8126250Y-7493000I30000J0D01*
G01*
X8066250Y-7463000D02*
X8066250Y-7523000D01*
X8126250Y-7523000D02*
G75*
G02*
X8066250Y-7523000I-30000J0D01*
G01*
X8126250Y-7523000D02*
X8126250Y-7463000D01*
X8126250Y-7463000D02*
G75*
G03*
X8066250Y-7463000I-30000J0D01*
G01*
X8126250Y-7911000D02*
G75*
G02*
X8066250Y-7911000I-30000J0D01*
G01*
X8066250Y-7911000D02*
G75*
G02*
X8126250Y-7911000I30000J0D01*
G01*
X8066250Y-7856000D02*
X8066250Y-7966000D01*
X8126250Y-7966000D02*
G75*
G02*
X8066250Y-7966000I-30000J0D01*
G01*
X8126250Y-7966000D02*
X8126250Y-7856000D01*
X8126250Y-7856000D02*
G75*
G03*
X8066250Y-7856000I-30000J0D01*
G01*
X8990250Y-7493000D02*
G75*
G02*
X8930250Y-7493000I-30000J0D01*
G01*
X8930250Y-7493000D02*
G75*
G02*
X8990250Y-7493000I30000J0D01*
G01*
X8930250Y-7463000D02*
X8930250Y-7523000D01*
X8990250Y-7523000D02*
G75*
G02*
X8930250Y-7523000I-30000J0D01*
G01*
X8990250Y-7523000D02*
X8990250Y-7463000D01*
X8990250Y-7463000D02*
G75*
G03*
X8930250Y-7463000I-30000J0D01*
G01*
X8990250Y-7911000D02*
G75*
G02*
X8930250Y-7911000I-30000J0D01*
G01*
X8930250Y-7911000D02*
G75*
G02*
X8990250Y-7911000I30000J0D01*
G01*
X8930250Y-7856000D02*
X8930250Y-7966000D01*
X8990250Y-7966000D02*
G75*
G02*
X8930250Y-7966000I-30000J0D01*
G01*
X8990250Y-7966000D02*
X8990250Y-7856000D01*
X8990250Y-7856000D02*
G75*
G03*
X8930250Y-7856000I-30000J0D01*
G01*
D13*
X7318375Y-8738800D02*
X7318375Y-8888800D01*
X7243375Y-8813800D02*
X7393375Y-8813800D01*
X7429500Y-15596800D02*
X7429500Y-15746800D01*
X7354500Y-15671800D02*
X7504500Y-15671800D01*
X7667625Y-9881800D02*
X7667625Y-10031800D01*
X7592625Y-9956800D02*
X7742625Y-9956800D01*
X7905750Y-11786800D02*
X7905750Y-11936800D01*
X7830750Y-11861800D02*
X7980750Y-11861800D01*
X7953375Y-8484800D02*
X7953375Y-8634800D01*
X7878375Y-8559800D02*
X8028375Y-8559800D01*
X8064500Y-15342800D02*
X8064500Y-15492800D01*
X7989500Y-15417800D02*
X8139500Y-15417800D01*
X8302625Y-9627800D02*
X8302625Y-9777800D01*
X8227625Y-9702800D02*
X8377625Y-9702800D01*
X8382000Y-13691800D02*
X8382000Y-13841800D01*
X8307000Y-13766800D02*
X8457000Y-13766800D01*
X8540750Y-11532800D02*
X8540750Y-11682800D01*
X8465750Y-11607800D02*
X8615750Y-11607800D01*
X9017000Y-13437800D02*
X9017000Y-13587800D01*
X8942000Y-13512800D02*
X9092000Y-13512800D01*
X9223375Y-8738800D02*
X9223375Y-8888800D01*
X9148375Y-8813800D02*
X9298375Y-8813800D01*
X9810750Y-15596800D02*
X9810750Y-15746800D01*
X9735750Y-15671800D02*
X9885750Y-15671800D01*
X9858375Y-8484800D02*
X9858375Y-8634800D01*
X9783375Y-8559800D02*
X9933375Y-8559800D01*
X10048875Y-9881800D02*
X10048875Y-10031800D01*
X9973875Y-9956800D02*
X10123875Y-9956800D01*
X10445750Y-15342800D02*
X10445750Y-15492800D01*
X10370750Y-15417800D02*
X10520750Y-15417800D01*
X10525125Y-11786800D02*
X10525125Y-11936800D01*
X10450125Y-11861800D02*
X10600125Y-11861800D01*
X10683875Y-9627800D02*
X10683875Y-9777800D01*
X10608875Y-9702800D02*
X10758875Y-9702800D01*
X11001375Y-7976800D02*
X11001375Y-8126800D01*
X10926375Y-8051800D02*
X11076375Y-8051800D01*
X11160125Y-11532800D02*
X11160125Y-11682800D01*
X11085125Y-11607800D02*
X11235125Y-11607800D01*
X11477625Y-13691800D02*
X11477625Y-13841800D01*
X11402625Y-13766800D02*
X11552625Y-13766800D01*
X11636375Y-7722800D02*
X11636375Y-7872800D01*
X11561375Y-7797800D02*
X11711375Y-7797800D01*
X11953875Y-9881800D02*
X11953875Y-10031800D01*
X11878875Y-9956800D02*
X12028875Y-9956800D01*
X12112625Y-13437800D02*
X12112625Y-13587800D01*
X12037625Y-13512800D02*
X12187625Y-13512800D01*
X12192000Y-15596800D02*
X12192000Y-15746800D01*
X12117000Y-15671800D02*
X12267000Y-15671800D01*
X12430125Y-11786800D02*
X12430125Y-11936800D01*
X12355125Y-11861800D02*
X12505125Y-11861800D01*
X12588875Y-9627800D02*
X12588875Y-9777800D01*
X12513875Y-9702800D02*
X12663875Y-9702800D01*
X12827000Y-15342800D02*
X12827000Y-15492800D01*
X12752000Y-15417800D02*
X12902000Y-15417800D01*
X12906375Y-7976800D02*
X12906375Y-8126800D01*
X12831375Y-8051800D02*
X12981375Y-8051800D01*
X13065125Y-11532800D02*
X13065125Y-11682800D01*
X12990125Y-11607800D02*
X13140125Y-11607800D01*
X13382625Y-13691800D02*
X13382625Y-13841800D01*
X13307625Y-13766800D02*
X13457625Y-13766800D01*
X13541375Y-7722800D02*
X13541375Y-7872800D01*
X13466375Y-7797800D02*
X13616375Y-7797800D01*
X13858875Y-9881800D02*
X13858875Y-10031800D01*
X13783875Y-9956800D02*
X13933875Y-9956800D01*
X14017625Y-13437800D02*
X14017625Y-13587800D01*
X13942625Y-13512800D02*
X14092625Y-13512800D01*
X14335125Y-11786800D02*
X14335125Y-11936800D01*
X14260125Y-11861800D02*
X14410125Y-11861800D01*
X14493875Y-9627800D02*
X14493875Y-9777800D01*
X14418875Y-9702800D02*
X14568875Y-9702800D01*
X14811375Y-7976800D02*
X14811375Y-8126800D01*
X14736375Y-8051800D02*
X14886375Y-8051800D01*
X14970125Y-11532800D02*
X14970125Y-11682800D01*
X14895125Y-11607800D02*
X15045125Y-11607800D01*
X15287625Y-13691800D02*
X15287625Y-13841800D01*
X15212625Y-13766800D02*
X15362625Y-13766800D01*
X15446375Y-7722800D02*
X15446375Y-7872800D01*
X15371375Y-7797800D02*
X15521375Y-7797800D01*
X15779750Y-9881800D02*
X15779750Y-10031800D01*
X15704750Y-9956800D02*
X15854750Y-9956800D01*
X15922625Y-13437800D02*
X15922625Y-13587800D01*
X15847625Y-13512800D02*
X15997625Y-13512800D01*
X16240125Y-11786800D02*
X16240125Y-11936800D01*
X16165125Y-11861800D02*
X16315125Y-11861800D01*
X16414750Y-9627800D02*
X16414750Y-9777800D01*
X16339750Y-9702800D02*
X16489750Y-9702800D01*
X16716375Y-7976800D02*
X16716375Y-8126800D01*
X16641375Y-8051800D02*
X16791375Y-8051800D01*
X16875125Y-11532800D02*
X16875125Y-11682800D01*
X16800125Y-11607800D02*
X16950125Y-11607800D01*
X17192625Y-13691800D02*
X17192625Y-13841800D01*
X17117625Y-13766800D02*
X17267625Y-13766800D01*
X17351375Y-7722800D02*
X17351375Y-7872800D01*
X17276375Y-7797800D02*
X17426375Y-7797800D01*
X17668875Y-9881800D02*
X17668875Y-10031800D01*
X17593875Y-9956800D02*
X17743875Y-9956800D01*
X17827625Y-13437800D02*
X17827625Y-13587800D01*
X17752625Y-13512800D02*
X17902625Y-13512800D01*
X18145125Y-11786800D02*
X18145125Y-11936800D01*
X18070125Y-11861800D02*
X18220125Y-11861800D01*
X18303875Y-9627800D02*
X18303875Y-9777800D01*
X18228875Y-9702800D02*
X18378875Y-9702800D01*
X18621375Y-7976800D02*
X18621375Y-8126800D01*
X18546375Y-8051800D02*
X18696375Y-8051800D01*
X18780125Y-11532800D02*
X18780125Y-11682800D01*
X18705125Y-11607800D02*
X18855125Y-11607800D01*
X19097625Y-13691800D02*
X19097625Y-13841800D01*
X19022625Y-13766800D02*
X19172625Y-13766800D01*
X19256375Y-7722800D02*
X19256375Y-7872800D01*
X19181375Y-7797800D02*
X19331375Y-7797800D01*
X19335750Y-15596800D02*
X19335750Y-15746800D01*
X19260750Y-15671800D02*
X19410750Y-15671800D01*
X19573875Y-9881800D02*
X19573875Y-10031800D01*
X19498875Y-9956800D02*
X19648875Y-9956800D01*
X19732625Y-13437800D02*
X19732625Y-13587800D01*
X19657625Y-13512800D02*
X19807625Y-13512800D01*
X19970750Y-15342800D02*
X19970750Y-15492800D01*
X19895750Y-15417800D02*
X20045750Y-15417800D01*
X20050125Y-11786800D02*
X20050125Y-11936800D01*
X19975125Y-11861800D02*
X20125125Y-11861800D01*
X20208875Y-9627800D02*
X20208875Y-9777800D01*
X20133875Y-9702800D02*
X20283875Y-9702800D01*
X20526375Y-7976800D02*
X20526375Y-8126800D01*
X20451375Y-8051800D02*
X20601375Y-8051800D01*
X20685125Y-11532800D02*
X20685125Y-11682800D01*
X20610125Y-11607800D02*
X20760125Y-11607800D01*
X21002625Y-13691800D02*
X21002625Y-13841800D01*
X20927625Y-13766800D02*
X21077625Y-13766800D01*
X21161375Y-7722800D02*
X21161375Y-7872800D01*
X21086375Y-7797800D02*
X21236375Y-7797800D01*
X21478875Y-9881800D02*
X21478875Y-10031800D01*
X21403875Y-9956800D02*
X21553875Y-9956800D01*
X21637625Y-13437800D02*
X21637625Y-13587800D01*
X21562625Y-13512800D02*
X21712625Y-13512800D01*
X21955125Y-11786800D02*
X21955125Y-11936800D01*
X21880125Y-11861800D02*
X22030125Y-11861800D01*
X22113875Y-9627800D02*
X22113875Y-9777800D01*
X22038875Y-9702800D02*
X22188875Y-9702800D01*
X22431375Y-7976800D02*
X22431375Y-8126800D01*
X22356375Y-8051800D02*
X22506375Y-8051800D01*
X22590125Y-11532800D02*
X22590125Y-11682800D01*
X22515125Y-11607800D02*
X22665125Y-11607800D01*
X22907625Y-13691800D02*
X22907625Y-13841800D01*
X22832625Y-13766800D02*
X22982625Y-13766800D01*
X23066375Y-7722800D02*
X23066375Y-7872800D01*
X22991375Y-7797800D02*
X23141375Y-7797800D01*
X23383875Y-9881800D02*
X23383875Y-10031800D01*
X23308875Y-9956800D02*
X23458875Y-9956800D01*
X23542625Y-13437800D02*
X23542625Y-13587800D01*
X23467625Y-13512800D02*
X23617625Y-13512800D01*
X23860125Y-11786800D02*
X23860125Y-11936800D01*
X23785125Y-11861800D02*
X23935125Y-11861800D01*
X24018875Y-9627800D02*
X24018875Y-9777800D01*
X23943875Y-9702800D02*
X24093875Y-9702800D01*
X24336375Y-7976800D02*
X24336375Y-8126800D01*
X24261375Y-8051800D02*
X24411375Y-8051800D01*
X24495125Y-11532800D02*
X24495125Y-11682800D01*
X24420125Y-11607800D02*
X24570125Y-11607800D01*
X24812625Y-13691800D02*
X24812625Y-13841800D01*
X24737625Y-13766800D02*
X24887625Y-13766800D01*
X24971375Y-7722800D02*
X24971375Y-7872800D01*
X24896375Y-7797800D02*
X25046375Y-7797800D01*
X25288875Y-9881800D02*
X25288875Y-10031800D01*
X25213875Y-9956800D02*
X25363875Y-9956800D01*
X25447625Y-13437800D02*
X25447625Y-13587800D01*
X25372625Y-13512800D02*
X25522625Y-13512800D01*
X25765125Y-11786800D02*
X25765125Y-11936800D01*
X25690125Y-11861800D02*
X25840125Y-11861800D01*
X25923875Y-9627800D02*
X25923875Y-9777800D01*
X25848875Y-9702800D02*
X25998875Y-9702800D01*
X26241375Y-7976800D02*
X26241375Y-8126800D01*
X26166375Y-8051800D02*
X26316375Y-8051800D01*
X26400125Y-11532800D02*
X26400125Y-11682800D01*
X26325125Y-11607800D02*
X26475125Y-11607800D01*
X26479500Y-15596800D02*
X26479500Y-15746800D01*
X26404500Y-15671800D02*
X26554500Y-15671800D01*
X26717625Y-13691800D02*
X26717625Y-13841800D01*
X26642625Y-13766800D02*
X26792625Y-13766800D01*
X26876375Y-7722800D02*
X26876375Y-7872800D01*
X26801375Y-7797800D02*
X26951375Y-7797800D01*
X27114500Y-15342800D02*
X27114500Y-15492800D01*
X27039500Y-15417800D02*
X27189500Y-15417800D01*
X27193875Y-9881800D02*
X27193875Y-10031800D01*
X27118875Y-9956800D02*
X27268875Y-9956800D01*
X27352625Y-13437800D02*
X27352625Y-13587800D01*
X27277625Y-13512800D02*
X27427625Y-13512800D01*
X27670125Y-11786800D02*
X27670125Y-11936800D01*
X27595125Y-11861800D02*
X27745125Y-11861800D01*
X27828875Y-9627800D02*
X27828875Y-9777800D01*
X27753875Y-9702800D02*
X27903875Y-9702800D01*
X28146375Y-7976800D02*
X28146375Y-8126800D01*
X28071375Y-8051800D02*
X28221375Y-8051800D01*
X28305125Y-11532800D02*
X28305125Y-11682800D01*
X28230125Y-11607800D02*
X28380125Y-11607800D01*
X28622625Y-13691800D02*
X28622625Y-13841800D01*
X28547625Y-13766800D02*
X28697625Y-13766800D01*
X28781375Y-7722800D02*
X28781375Y-7872800D01*
X28706375Y-7797800D02*
X28856375Y-7797800D01*
X28860750Y-15596800D02*
X28860750Y-15746800D01*
X28785750Y-15671800D02*
X28935750Y-15671800D01*
X29098875Y-9881800D02*
X29098875Y-10031800D01*
X29023875Y-9956800D02*
X29173875Y-9956800D01*
X29257625Y-13437800D02*
X29257625Y-13587800D01*
X29182625Y-13512800D02*
X29332625Y-13512800D01*
X29495750Y-15342800D02*
X29495750Y-15492800D01*
X29420750Y-15417800D02*
X29570750Y-15417800D01*
X29575125Y-11786800D02*
X29575125Y-11936800D01*
X29500125Y-11861800D02*
X29650125Y-11861800D01*
X29733875Y-9627800D02*
X29733875Y-9777800D01*
X29658875Y-9702800D02*
X29808875Y-9702800D01*
X30051375Y-7976800D02*
X30051375Y-8126800D01*
X29976375Y-8051800D02*
X30126375Y-8051800D01*
X30210125Y-11532800D02*
X30210125Y-11682800D01*
X30135125Y-11607800D02*
X30285125Y-11607800D01*
X30686375Y-7722800D02*
X30686375Y-7872800D01*
X30611375Y-7797800D02*
X30761375Y-7797800D01*
X31003875Y-9881800D02*
X31003875Y-10031800D01*
X30928875Y-9956800D02*
X31078875Y-9956800D01*
X31242000Y-15596800D02*
X31242000Y-15746800D01*
X31167000Y-15671800D02*
X31317000Y-15671800D01*
X31638875Y-9627800D02*
X31638875Y-9777800D01*
X31563875Y-9702800D02*
X31713875Y-9702800D01*
X31877000Y-15342800D02*
X31877000Y-15492800D01*
X31802000Y-15417800D02*
X31952000Y-15417800D01*
X32194500Y-13691800D02*
X32194500Y-13841800D01*
X32119500Y-13766800D02*
X32269500Y-13766800D01*
X32670750Y-11786800D02*
X32670750Y-11936800D01*
X32595750Y-11861800D02*
X32745750Y-11861800D01*
X32829500Y-13437800D02*
X32829500Y-13587800D01*
X32754500Y-13512800D02*
X32904500Y-13512800D01*
X32908875Y-7976800D02*
X32908875Y-8126800D01*
X32833875Y-8051800D02*
X32983875Y-8051800D01*
X33305750Y-11532800D02*
X33305750Y-11682800D01*
X33230750Y-11607800D02*
X33380750Y-11607800D01*
X33385125Y-9881800D02*
X33385125Y-10031800D01*
X33310125Y-9956800D02*
X33460125Y-9956800D01*
X33543875Y-7722800D02*
X33543875Y-7872800D01*
X33468875Y-7797800D02*
X33618875Y-7797800D01*
X33623250Y-15596800D02*
X33623250Y-15746800D01*
X33548250Y-15671800D02*
X33698250Y-15671800D01*
X34020125Y-9627800D02*
X34020125Y-9777800D01*
X33945125Y-9702800D02*
X34095125Y-9702800D01*
X34258250Y-15342800D02*
X34258250Y-15492800D01*
X34183250Y-15417800D02*
X34333250Y-15417800D01*
D11*
X6915777Y-17158984D02*
X6915777Y-16958984D01*
X6915777Y-16958984D02*
X6963396Y-16958984D01*
X6963396Y-16958984D02*
X6991967Y-16968508D01*
X6991967Y-16968508D02*
X7011015Y-16987555D01*
X7011015Y-16987555D02*
X7020539Y-17006603D01*
X7020539Y-17006603D02*
X7030062Y-17044698D01*
X7030062Y-17044698D02*
X7030062Y-17073270D01*
X7030062Y-17073270D02*
X7020539Y-17111365D01*
X7020539Y-17111365D02*
X7011015Y-17130412D01*
X7011015Y-17130412D02*
X6991967Y-17149460D01*
X6991967Y-17149460D02*
X6963396Y-17158984D01*
X6963396Y-17158984D02*
X6915777Y-17158984D01*
X7115777Y-17158984D02*
X7115777Y-17025650D01*
X7115777Y-17063746D02*
X7125301Y-17044698D01*
X7125301Y-17044698D02*
X7134824Y-17035174D01*
X7134824Y-17035174D02*
X7153872Y-17025650D01*
X7153872Y-17025650D02*
X7172920Y-17025650D01*
X7239586Y-17158984D02*
X7239586Y-17025650D01*
X7239586Y-16958984D02*
X7230062Y-16968508D01*
X7230062Y-16968508D02*
X7239586Y-16978031D01*
X7239586Y-16978031D02*
X7249110Y-16968508D01*
X7249110Y-16968508D02*
X7239586Y-16958984D01*
X7239586Y-16958984D02*
X7239586Y-16978031D01*
X7363396Y-17158984D02*
X7344348Y-17149460D01*
X7344348Y-17149460D02*
X7334824Y-17130412D01*
X7334824Y-17130412D02*
X7334824Y-16958984D01*
X7468158Y-17158984D02*
X7449110Y-17149460D01*
X7449110Y-17149460D02*
X7439586Y-17130412D01*
X7439586Y-17130412D02*
X7439586Y-16958984D01*
X7696729Y-17158984D02*
X7696729Y-16958984D01*
X7696729Y-16958984D02*
X7763396Y-17101841D01*
X7763396Y-17101841D02*
X7830062Y-16958984D01*
X7830062Y-16958984D02*
X7830062Y-17158984D01*
X8011015Y-17158984D02*
X8011015Y-17054222D01*
X8011015Y-17054222D02*
X8001491Y-17035174D01*
X8001491Y-17035174D02*
X7982443Y-17025650D01*
X7982443Y-17025650D02*
X7944348Y-17025650D01*
X7944348Y-17025650D02*
X7925301Y-17035174D01*
X8011015Y-17149460D02*
X7991967Y-17158984D01*
X7991967Y-17158984D02*
X7944348Y-17158984D01*
X7944348Y-17158984D02*
X7925301Y-17149460D01*
X7925301Y-17149460D02*
X7915777Y-17130412D01*
X7915777Y-17130412D02*
X7915777Y-17111365D01*
X7915777Y-17111365D02*
X7925301Y-17092317D01*
X7925301Y-17092317D02*
X7944348Y-17082793D01*
X7944348Y-17082793D02*
X7991967Y-17082793D01*
X7991967Y-17082793D02*
X8011015Y-17073270D01*
X8106253Y-17025650D02*
X8106253Y-17225650D01*
X8106253Y-17035174D02*
X8125301Y-17025650D01*
X8125301Y-17025650D02*
X8163396Y-17025650D01*
X8163396Y-17025650D02*
X8182443Y-17035174D01*
X8182443Y-17035174D02*
X8191967Y-17044698D01*
X8191967Y-17044698D02*
X8201491Y-17063746D01*
X8201491Y-17063746D02*
X8201491Y-17120889D01*
X8201491Y-17120889D02*
X8191967Y-17139936D01*
X8191967Y-17139936D02*
X8182443Y-17149460D01*
X8182443Y-17149460D02*
X8163396Y-17158984D01*
X8163396Y-17158984D02*
X8125301Y-17158984D01*
X8125301Y-17158984D02*
X8106253Y-17149460D01*
X8287205Y-17139936D02*
X8296729Y-17149460D01*
X8296729Y-17149460D02*
X8287205Y-17158984D01*
X8287205Y-17158984D02*
X8277682Y-17149460D01*
X8277682Y-17149460D02*
X8287205Y-17139936D01*
X8287205Y-17139936D02*
X8287205Y-17158984D01*
X8287205Y-17035174D02*
X8296729Y-17044698D01*
X8296729Y-17044698D02*
X8287205Y-17054222D01*
X8287205Y-17054222D02*
X8277682Y-17044698D01*
X8277682Y-17044698D02*
X8287205Y-17035174D01*
X8287205Y-17035174D02*
X8287205Y-17054222D01*
D12*
X6625000Y-17472500D02*
X6655000Y-17502500D01*
X6655000Y-17472500D02*
X6625000Y-17502500D01*
D11*
X6953872Y-17378984D02*
X6972920Y-17378984D01*
X6972920Y-17378984D02*
X6991967Y-17388508D01*
X6991967Y-17388508D02*
X7001491Y-17398031D01*
X7001491Y-17398031D02*
X7011015Y-17417079D01*
X7011015Y-17417079D02*
X7020539Y-17455174D01*
X7020539Y-17455174D02*
X7020539Y-17502793D01*
X7020539Y-17502793D02*
X7011015Y-17540889D01*
X7011015Y-17540889D02*
X7001491Y-17559936D01*
X7001491Y-17559936D02*
X6991967Y-17569460D01*
X6991967Y-17569460D02*
X6972920Y-17578984D01*
X6972920Y-17578984D02*
X6953872Y-17578984D01*
X6953872Y-17578984D02*
X6934824Y-17569460D01*
X6934824Y-17569460D02*
X6925301Y-17559936D01*
X6925301Y-17559936D02*
X6915777Y-17540889D01*
X6915777Y-17540889D02*
X6906253Y-17502793D01*
X6906253Y-17502793D02*
X6906253Y-17455174D01*
X6906253Y-17455174D02*
X6915777Y-17417079D01*
X6915777Y-17417079D02*
X6925301Y-17398031D01*
X6925301Y-17398031D02*
X6934824Y-17388508D01*
X6934824Y-17388508D02*
X6953872Y-17378984D01*
X7106253Y-17559936D02*
X7115777Y-17569460D01*
X7115777Y-17569460D02*
X7106253Y-17578984D01*
X7106253Y-17578984D02*
X7096729Y-17569460D01*
X7096729Y-17569460D02*
X7106253Y-17559936D01*
X7106253Y-17559936D02*
X7106253Y-17578984D01*
X7182443Y-17378984D02*
X7306253Y-17378984D01*
X7306253Y-17378984D02*
X7239586Y-17455174D01*
X7239586Y-17455174D02*
X7268158Y-17455174D01*
X7268158Y-17455174D02*
X7287205Y-17464698D01*
X7287205Y-17464698D02*
X7296729Y-17474222D01*
X7296729Y-17474222D02*
X7306253Y-17493270D01*
X7306253Y-17493270D02*
X7306253Y-17540889D01*
X7306253Y-17540889D02*
X7296729Y-17559936D01*
X7296729Y-17559936D02*
X7287205Y-17569460D01*
X7287205Y-17569460D02*
X7268158Y-17578984D01*
X7268158Y-17578984D02*
X7211015Y-17578984D01*
X7211015Y-17578984D02*
X7191967Y-17569460D01*
X7191967Y-17569460D02*
X7182443Y-17559936D01*
X7430062Y-17378984D02*
X7449110Y-17378984D01*
X7449110Y-17378984D02*
X7468158Y-17388508D01*
X7468158Y-17388508D02*
X7477682Y-17398031D01*
X7477682Y-17398031D02*
X7487205Y-17417079D01*
X7487205Y-17417079D02*
X7496729Y-17455174D01*
X7496729Y-17455174D02*
X7496729Y-17502793D01*
X7496729Y-17502793D02*
X7487205Y-17540889D01*
X7487205Y-17540889D02*
X7477682Y-17559936D01*
X7477682Y-17559936D02*
X7468158Y-17569460D01*
X7468158Y-17569460D02*
X7449110Y-17578984D01*
X7449110Y-17578984D02*
X7430062Y-17578984D01*
X7430062Y-17578984D02*
X7411015Y-17569460D01*
X7411015Y-17569460D02*
X7401491Y-17559936D01*
X7401491Y-17559936D02*
X7391967Y-17540889D01*
X7391967Y-17540889D02*
X7382443Y-17502793D01*
X7382443Y-17502793D02*
X7382443Y-17455174D01*
X7382443Y-17455174D02*
X7391967Y-17417079D01*
X7391967Y-17417079D02*
X7401491Y-17398031D01*
X7401491Y-17398031D02*
X7411015Y-17388508D01*
X7411015Y-17388508D02*
X7430062Y-17378984D01*
X7620539Y-17378984D02*
X7639586Y-17378984D01*
X7639586Y-17378984D02*
X7658634Y-17388508D01*
X7658634Y-17388508D02*
X7668158Y-17398031D01*
X7668158Y-17398031D02*
X7677682Y-17417079D01*
X7677682Y-17417079D02*
X7687205Y-17455174D01*
X7687205Y-17455174D02*
X7687205Y-17502793D01*
X7687205Y-17502793D02*
X7677682Y-17540889D01*
X7677682Y-17540889D02*
X7668158Y-17559936D01*
X7668158Y-17559936D02*
X7658634Y-17569460D01*
X7658634Y-17569460D02*
X7639586Y-17578984D01*
X7639586Y-17578984D02*
X7620539Y-17578984D01*
X7620539Y-17578984D02*
X7601491Y-17569460D01*
X7601491Y-17569460D02*
X7591967Y-17559936D01*
X7591967Y-17559936D02*
X7582443Y-17540889D01*
X7582443Y-17540889D02*
X7572920Y-17502793D01*
X7572920Y-17502793D02*
X7572920Y-17455174D01*
X7572920Y-17455174D02*
X7582443Y-17417079D01*
X7582443Y-17417079D02*
X7591967Y-17398031D01*
X7591967Y-17398031D02*
X7601491Y-17388508D01*
X7601491Y-17388508D02*
X7620539Y-17378984D01*
X7772920Y-17578984D02*
X7772920Y-17445650D01*
X7772920Y-17464698D02*
X7782443Y-17455174D01*
X7782443Y-17455174D02*
X7801491Y-17445650D01*
X7801491Y-17445650D02*
X7830063Y-17445650D01*
X7830063Y-17445650D02*
X7849110Y-17455174D01*
X7849110Y-17455174D02*
X7858634Y-17474222D01*
X7858634Y-17474222D02*
X7858634Y-17578984D01*
X7858634Y-17474222D02*
X7868158Y-17455174D01*
X7868158Y-17455174D02*
X7887205Y-17445650D01*
X7887205Y-17445650D02*
X7915777Y-17445650D01*
X7915777Y-17445650D02*
X7934824Y-17455174D01*
X7934824Y-17455174D02*
X7944348Y-17474222D01*
X7944348Y-17474222D02*
X7944348Y-17578984D01*
X8039586Y-17578984D02*
X8039586Y-17445650D01*
X8039586Y-17464698D02*
X8049110Y-17455174D01*
X8049110Y-17455174D02*
X8068158Y-17445650D01*
X8068158Y-17445650D02*
X8096729Y-17445650D01*
X8096729Y-17445650D02*
X8115777Y-17455174D01*
X8115777Y-17455174D02*
X8125301Y-17474222D01*
X8125301Y-17474222D02*
X8125301Y-17578984D01*
X8125301Y-17474222D02*
X8134824Y-17455174D01*
X8134824Y-17455174D02*
X8153872Y-17445650D01*
X8153872Y-17445650D02*
X8182443Y-17445650D01*
X8182443Y-17445650D02*
X8201491Y-17455174D01*
X8201491Y-17455174D02*
X8211015Y-17474222D01*
X8211015Y-17474222D02*
X8211015Y-17578984D01*
X8601491Y-17369460D02*
X8430063Y-17626603D01*
X8858634Y-17378984D02*
X8877682Y-17378984D01*
X8877682Y-17378984D02*
X8896729Y-17388508D01*
X8896729Y-17388508D02*
X8906253Y-17398031D01*
X8906253Y-17398031D02*
X8915777Y-17417079D01*
X8915777Y-17417079D02*
X8925301Y-17455174D01*
X8925301Y-17455174D02*
X8925301Y-17502793D01*
X8925301Y-17502793D02*
X8915777Y-17540889D01*
X8915777Y-17540889D02*
X8906253Y-17559936D01*
X8906253Y-17559936D02*
X8896729Y-17569460D01*
X8896729Y-17569460D02*
X8877682Y-17578984D01*
X8877682Y-17578984D02*
X8858634Y-17578984D01*
X8858634Y-17578984D02*
X8839587Y-17569460D01*
X8839587Y-17569460D02*
X8830063Y-17559936D01*
X8830063Y-17559936D02*
X8820539Y-17540889D01*
X8820539Y-17540889D02*
X8811015Y-17502793D01*
X8811015Y-17502793D02*
X8811015Y-17455174D01*
X8811015Y-17455174D02*
X8820539Y-17417079D01*
X8820539Y-17417079D02*
X8830063Y-17398031D01*
X8830063Y-17398031D02*
X8839587Y-17388508D01*
X8839587Y-17388508D02*
X8858634Y-17378984D01*
X9011015Y-17559936D02*
X9020539Y-17569460D01*
X9020539Y-17569460D02*
X9011015Y-17578984D01*
X9011015Y-17578984D02*
X9001491Y-17569460D01*
X9001491Y-17569460D02*
X9011015Y-17559936D01*
X9011015Y-17559936D02*
X9011015Y-17578984D01*
X9144348Y-17378984D02*
X9163396Y-17378984D01*
X9163396Y-17378984D02*
X9182444Y-17388508D01*
X9182444Y-17388508D02*
X9191968Y-17398031D01*
X9191968Y-17398031D02*
X9201491Y-17417079D01*
X9201491Y-17417079D02*
X9211015Y-17455174D01*
X9211015Y-17455174D02*
X9211015Y-17502793D01*
X9211015Y-17502793D02*
X9201491Y-17540889D01*
X9201491Y-17540889D02*
X9191968Y-17559936D01*
X9191968Y-17559936D02*
X9182444Y-17569460D01*
X9182444Y-17569460D02*
X9163396Y-17578984D01*
X9163396Y-17578984D02*
X9144348Y-17578984D01*
X9144348Y-17578984D02*
X9125301Y-17569460D01*
X9125301Y-17569460D02*
X9115777Y-17559936D01*
X9115777Y-17559936D02*
X9106253Y-17540889D01*
X9106253Y-17540889D02*
X9096729Y-17502793D01*
X9096729Y-17502793D02*
X9096729Y-17455174D01*
X9096729Y-17455174D02*
X9106253Y-17417079D01*
X9106253Y-17417079D02*
X9115777Y-17398031D01*
X9115777Y-17398031D02*
X9125301Y-17388508D01*
X9125301Y-17388508D02*
X9144348Y-17378984D01*
X9401491Y-17578984D02*
X9287206Y-17578984D01*
X9344348Y-17578984D02*
X9344348Y-17378984D01*
X9344348Y-17378984D02*
X9325301Y-17407555D01*
X9325301Y-17407555D02*
X9306253Y-17426603D01*
X9306253Y-17426603D02*
X9287206Y-17436127D01*
X9591968Y-17578984D02*
X9477682Y-17578984D01*
X9534825Y-17578984D02*
X9534825Y-17378984D01*
X9534825Y-17378984D02*
X9515777Y-17407555D01*
X9515777Y-17407555D02*
X9496729Y-17426603D01*
X9496729Y-17426603D02*
X9477682Y-17436127D01*
X9706253Y-17464698D02*
X9687206Y-17455174D01*
X9687206Y-17455174D02*
X9677682Y-17445650D01*
X9677682Y-17445650D02*
X9668158Y-17426603D01*
X9668158Y-17426603D02*
X9668158Y-17417079D01*
X9668158Y-17417079D02*
X9677682Y-17398031D01*
X9677682Y-17398031D02*
X9687206Y-17388508D01*
X9687206Y-17388508D02*
X9706253Y-17378984D01*
X9706253Y-17378984D02*
X9744349Y-17378984D01*
X9744349Y-17378984D02*
X9763396Y-17388508D01*
X9763396Y-17388508D02*
X9772920Y-17398031D01*
X9772920Y-17398031D02*
X9782444Y-17417079D01*
X9782444Y-17417079D02*
X9782444Y-17426603D01*
X9782444Y-17426603D02*
X9772920Y-17445650D01*
X9772920Y-17445650D02*
X9763396Y-17455174D01*
X9763396Y-17455174D02*
X9744349Y-17464698D01*
X9744349Y-17464698D02*
X9706253Y-17464698D01*
X9706253Y-17464698D02*
X9687206Y-17474222D01*
X9687206Y-17474222D02*
X9677682Y-17483746D01*
X9677682Y-17483746D02*
X9668158Y-17502793D01*
X9668158Y-17502793D02*
X9668158Y-17540889D01*
X9668158Y-17540889D02*
X9677682Y-17559936D01*
X9677682Y-17559936D02*
X9687206Y-17569460D01*
X9687206Y-17569460D02*
X9706253Y-17578984D01*
X9706253Y-17578984D02*
X9744349Y-17578984D01*
X9744349Y-17578984D02*
X9763396Y-17569460D01*
X9763396Y-17569460D02*
X9772920Y-17559936D01*
X9772920Y-17559936D02*
X9782444Y-17540889D01*
X9782444Y-17540889D02*
X9782444Y-17502793D01*
X9782444Y-17502793D02*
X9772920Y-17483746D01*
X9772920Y-17483746D02*
X9763396Y-17474222D01*
X9763396Y-17474222D02*
X9744349Y-17464698D01*
X9858634Y-17378984D02*
X9858634Y-17417079D01*
X9934825Y-17378984D02*
X9934825Y-17417079D01*
X10230063Y-17655174D02*
X10220539Y-17645650D01*
X10220539Y-17645650D02*
X10201491Y-17617079D01*
X10201491Y-17617079D02*
X10191968Y-17598031D01*
X10191968Y-17598031D02*
X10182444Y-17569460D01*
X10182444Y-17569460D02*
X10172920Y-17521841D01*
X10172920Y-17521841D02*
X10172920Y-17483746D01*
X10172920Y-17483746D02*
X10182444Y-17436127D01*
X10182444Y-17436127D02*
X10191968Y-17407555D01*
X10191968Y-17407555D02*
X10201491Y-17388508D01*
X10201491Y-17388508D02*
X10220539Y-17359936D01*
X10220539Y-17359936D02*
X10230063Y-17350412D01*
X10391968Y-17378984D02*
X10353872Y-17378984D01*
X10353872Y-17378984D02*
X10334825Y-17388508D01*
X10334825Y-17388508D02*
X10325301Y-17398031D01*
X10325301Y-17398031D02*
X10306253Y-17426603D01*
X10306253Y-17426603D02*
X10296730Y-17464698D01*
X10296730Y-17464698D02*
X10296730Y-17540889D01*
X10296730Y-17540889D02*
X10306253Y-17559936D01*
X10306253Y-17559936D02*
X10315777Y-17569460D01*
X10315777Y-17569460D02*
X10334825Y-17578984D01*
X10334825Y-17578984D02*
X10372920Y-17578984D01*
X10372920Y-17578984D02*
X10391968Y-17569460D01*
X10391968Y-17569460D02*
X10401491Y-17559936D01*
X10401491Y-17559936D02*
X10411015Y-17540889D01*
X10411015Y-17540889D02*
X10411015Y-17493270D01*
X10411015Y-17493270D02*
X10401491Y-17474222D01*
X10401491Y-17474222D02*
X10391968Y-17464698D01*
X10391968Y-17464698D02*
X10372920Y-17455174D01*
X10372920Y-17455174D02*
X10334825Y-17455174D01*
X10334825Y-17455174D02*
X10315777Y-17464698D01*
X10315777Y-17464698D02*
X10306253Y-17474222D01*
X10306253Y-17474222D02*
X10296730Y-17493270D01*
X10601491Y-17578984D02*
X10487206Y-17578984D01*
X10544349Y-17578984D02*
X10544349Y-17378984D01*
X10544349Y-17378984D02*
X10525301Y-17407555D01*
X10525301Y-17407555D02*
X10506253Y-17426603D01*
X10506253Y-17426603D02*
X10487206Y-17436127D01*
X10839587Y-17578984D02*
X10839587Y-17378984D01*
X10925301Y-17578984D02*
X10925301Y-17474222D01*
X10925301Y-17474222D02*
X10915777Y-17455174D01*
X10915777Y-17455174D02*
X10896730Y-17445650D01*
X10896730Y-17445650D02*
X10868158Y-17445650D01*
X10868158Y-17445650D02*
X10849111Y-17455174D01*
X10849111Y-17455174D02*
X10839587Y-17464698D01*
X11049111Y-17578984D02*
X11030063Y-17569460D01*
X11030063Y-17569460D02*
X11020539Y-17559936D01*
X11020539Y-17559936D02*
X11011015Y-17540889D01*
X11011015Y-17540889D02*
X11011015Y-17483746D01*
X11011015Y-17483746D02*
X11020539Y-17464698D01*
X11020539Y-17464698D02*
X11030063Y-17455174D01*
X11030063Y-17455174D02*
X11049111Y-17445650D01*
X11049111Y-17445650D02*
X11077682Y-17445650D01*
X11077682Y-17445650D02*
X11096730Y-17455174D01*
X11096730Y-17455174D02*
X11106253Y-17464698D01*
X11106253Y-17464698D02*
X11115777Y-17483746D01*
X11115777Y-17483746D02*
X11115777Y-17540889D01*
X11115777Y-17540889D02*
X11106253Y-17559936D01*
X11106253Y-17559936D02*
X11096730Y-17569460D01*
X11096730Y-17569460D02*
X11077682Y-17578984D01*
X11077682Y-17578984D02*
X11049111Y-17578984D01*
X11230063Y-17578984D02*
X11211015Y-17569460D01*
X11211015Y-17569460D02*
X11201491Y-17550412D01*
X11201491Y-17550412D02*
X11201491Y-17378984D01*
X11382444Y-17569460D02*
X11363396Y-17578984D01*
X11363396Y-17578984D02*
X11325301Y-17578984D01*
X11325301Y-17578984D02*
X11306253Y-17569460D01*
X11306253Y-17569460D02*
X11296730Y-17550412D01*
X11296730Y-17550412D02*
X11296730Y-17474222D01*
X11296730Y-17474222D02*
X11306253Y-17455174D01*
X11306253Y-17455174D02*
X11325301Y-17445650D01*
X11325301Y-17445650D02*
X11363396Y-17445650D01*
X11363396Y-17445650D02*
X11382444Y-17455174D01*
X11382444Y-17455174D02*
X11391968Y-17474222D01*
X11391968Y-17474222D02*
X11391968Y-17493270D01*
X11391968Y-17493270D02*
X11296730Y-17512317D01*
X11468158Y-17569460D02*
X11487206Y-17578984D01*
X11487206Y-17578984D02*
X11525301Y-17578984D01*
X11525301Y-17578984D02*
X11544349Y-17569460D01*
X11544349Y-17569460D02*
X11553872Y-17550412D01*
X11553872Y-17550412D02*
X11553872Y-17540889D01*
X11553872Y-17540889D02*
X11544349Y-17521841D01*
X11544349Y-17521841D02*
X11525301Y-17512317D01*
X11525301Y-17512317D02*
X11496730Y-17512317D01*
X11496730Y-17512317D02*
X11477682Y-17502793D01*
X11477682Y-17502793D02*
X11468158Y-17483746D01*
X11468158Y-17483746D02*
X11468158Y-17474222D01*
X11468158Y-17474222D02*
X11477682Y-17455174D01*
X11477682Y-17455174D02*
X11496730Y-17445650D01*
X11496730Y-17445650D02*
X11525301Y-17445650D01*
X11525301Y-17445650D02*
X11544349Y-17455174D01*
X11620539Y-17655174D02*
X11630063Y-17645650D01*
X11630063Y-17645650D02*
X11649111Y-17617079D01*
X11649111Y-17617079D02*
X11658634Y-17598031D01*
X11658634Y-17598031D02*
X11668158Y-17569460D01*
X11668158Y-17569460D02*
X11677682Y-17521841D01*
X11677682Y-17521841D02*
X11677682Y-17483746D01*
X11677682Y-17483746D02*
X11668158Y-17436127D01*
X11668158Y-17436127D02*
X11658634Y-17407555D01*
X11658634Y-17407555D02*
X11649111Y-17388508D01*
X11649111Y-17388508D02*
X11630063Y-17359936D01*
X11630063Y-17359936D02*
X11620539Y-17350412D01*
D12*
X6655000Y-17751500D02*
G75*
G02*
X6595000Y-17751500I-30000J0D01*
G01*
X6595000Y-17751500D02*
G75*
G02*
X6655000Y-17751500I30000J0D01*
G01*
D11*
X6953872Y-17642984D02*
X6972920Y-17642984D01*
X6972920Y-17642984D02*
X6991967Y-17652508D01*
X6991967Y-17652508D02*
X7001491Y-17662031D01*
X7001491Y-17662031D02*
X7011015Y-17681079D01*
X7011015Y-17681079D02*
X7020539Y-17719174D01*
X7020539Y-17719174D02*
X7020539Y-17766793D01*
X7020539Y-17766793D02*
X7011015Y-17804889D01*
X7011015Y-17804889D02*
X7001491Y-17823936D01*
X7001491Y-17823936D02*
X6991967Y-17833460D01*
X6991967Y-17833460D02*
X6972920Y-17842984D01*
X6972920Y-17842984D02*
X6953872Y-17842984D01*
X6953872Y-17842984D02*
X6934824Y-17833460D01*
X6934824Y-17833460D02*
X6925301Y-17823936D01*
X6925301Y-17823936D02*
X6915777Y-17804889D01*
X6915777Y-17804889D02*
X6906253Y-17766793D01*
X6906253Y-17766793D02*
X6906253Y-17719174D01*
X6906253Y-17719174D02*
X6915777Y-17681079D01*
X6915777Y-17681079D02*
X6925301Y-17662031D01*
X6925301Y-17662031D02*
X6934824Y-17652508D01*
X6934824Y-17652508D02*
X6953872Y-17642984D01*
X7106253Y-17823936D02*
X7115777Y-17833460D01*
X7115777Y-17833460D02*
X7106253Y-17842984D01*
X7106253Y-17842984D02*
X7096729Y-17833460D01*
X7096729Y-17833460D02*
X7106253Y-17823936D01*
X7106253Y-17823936D02*
X7106253Y-17842984D01*
X7287205Y-17642984D02*
X7249110Y-17642984D01*
X7249110Y-17642984D02*
X7230062Y-17652508D01*
X7230062Y-17652508D02*
X7220539Y-17662031D01*
X7220539Y-17662031D02*
X7201491Y-17690603D01*
X7201491Y-17690603D02*
X7191967Y-17728698D01*
X7191967Y-17728698D02*
X7191967Y-17804889D01*
X7191967Y-17804889D02*
X7201491Y-17823936D01*
X7201491Y-17823936D02*
X7211015Y-17833460D01*
X7211015Y-17833460D02*
X7230062Y-17842984D01*
X7230062Y-17842984D02*
X7268158Y-17842984D01*
X7268158Y-17842984D02*
X7287205Y-17833460D01*
X7287205Y-17833460D02*
X7296729Y-17823936D01*
X7296729Y-17823936D02*
X7306253Y-17804889D01*
X7306253Y-17804889D02*
X7306253Y-17757270D01*
X7306253Y-17757270D02*
X7296729Y-17738222D01*
X7296729Y-17738222D02*
X7287205Y-17728698D01*
X7287205Y-17728698D02*
X7268158Y-17719174D01*
X7268158Y-17719174D02*
X7230062Y-17719174D01*
X7230062Y-17719174D02*
X7211015Y-17728698D01*
X7211015Y-17728698D02*
X7201491Y-17738222D01*
X7201491Y-17738222D02*
X7191967Y-17757270D01*
X7430062Y-17642984D02*
X7449110Y-17642984D01*
X7449110Y-17642984D02*
X7468158Y-17652508D01*
X7468158Y-17652508D02*
X7477682Y-17662031D01*
X7477682Y-17662031D02*
X7487205Y-17681079D01*
X7487205Y-17681079D02*
X7496729Y-17719174D01*
X7496729Y-17719174D02*
X7496729Y-17766793D01*
X7496729Y-17766793D02*
X7487205Y-17804889D01*
X7487205Y-17804889D02*
X7477682Y-17823936D01*
X7477682Y-17823936D02*
X7468158Y-17833460D01*
X7468158Y-17833460D02*
X7449110Y-17842984D01*
X7449110Y-17842984D02*
X7430062Y-17842984D01*
X7430062Y-17842984D02*
X7411015Y-17833460D01*
X7411015Y-17833460D02*
X7401491Y-17823936D01*
X7401491Y-17823936D02*
X7391967Y-17804889D01*
X7391967Y-17804889D02*
X7382443Y-17766793D01*
X7382443Y-17766793D02*
X7382443Y-17719174D01*
X7382443Y-17719174D02*
X7391967Y-17681079D01*
X7391967Y-17681079D02*
X7401491Y-17662031D01*
X7401491Y-17662031D02*
X7411015Y-17652508D01*
X7411015Y-17652508D02*
X7430062Y-17642984D01*
X7620539Y-17642984D02*
X7639586Y-17642984D01*
X7639586Y-17642984D02*
X7658634Y-17652508D01*
X7658634Y-17652508D02*
X7668158Y-17662031D01*
X7668158Y-17662031D02*
X7677682Y-17681079D01*
X7677682Y-17681079D02*
X7687205Y-17719174D01*
X7687205Y-17719174D02*
X7687205Y-17766793D01*
X7687205Y-17766793D02*
X7677682Y-17804889D01*
X7677682Y-17804889D02*
X7668158Y-17823936D01*
X7668158Y-17823936D02*
X7658634Y-17833460D01*
X7658634Y-17833460D02*
X7639586Y-17842984D01*
X7639586Y-17842984D02*
X7620539Y-17842984D01*
X7620539Y-17842984D02*
X7601491Y-17833460D01*
X7601491Y-17833460D02*
X7591967Y-17823936D01*
X7591967Y-17823936D02*
X7582443Y-17804889D01*
X7582443Y-17804889D02*
X7572920Y-17766793D01*
X7572920Y-17766793D02*
X7572920Y-17719174D01*
X7572920Y-17719174D02*
X7582443Y-17681079D01*
X7582443Y-17681079D02*
X7591967Y-17662031D01*
X7591967Y-17662031D02*
X7601491Y-17652508D01*
X7601491Y-17652508D02*
X7620539Y-17642984D01*
X7772920Y-17842984D02*
X7772920Y-17709650D01*
X7772920Y-17728698D02*
X7782443Y-17719174D01*
X7782443Y-17719174D02*
X7801491Y-17709650D01*
X7801491Y-17709650D02*
X7830063Y-17709650D01*
X7830063Y-17709650D02*
X7849110Y-17719174D01*
X7849110Y-17719174D02*
X7858634Y-17738222D01*
X7858634Y-17738222D02*
X7858634Y-17842984D01*
X7858634Y-17738222D02*
X7868158Y-17719174D01*
X7868158Y-17719174D02*
X7887205Y-17709650D01*
X7887205Y-17709650D02*
X7915777Y-17709650D01*
X7915777Y-17709650D02*
X7934824Y-17719174D01*
X7934824Y-17719174D02*
X7944348Y-17738222D01*
X7944348Y-17738222D02*
X7944348Y-17842984D01*
X8039586Y-17842984D02*
X8039586Y-17709650D01*
X8039586Y-17728698D02*
X8049110Y-17719174D01*
X8049110Y-17719174D02*
X8068158Y-17709650D01*
X8068158Y-17709650D02*
X8096729Y-17709650D01*
X8096729Y-17709650D02*
X8115777Y-17719174D01*
X8115777Y-17719174D02*
X8125301Y-17738222D01*
X8125301Y-17738222D02*
X8125301Y-17842984D01*
X8125301Y-17738222D02*
X8134824Y-17719174D01*
X8134824Y-17719174D02*
X8153872Y-17709650D01*
X8153872Y-17709650D02*
X8182443Y-17709650D01*
X8182443Y-17709650D02*
X8201491Y-17719174D01*
X8201491Y-17719174D02*
X8211015Y-17738222D01*
X8211015Y-17738222D02*
X8211015Y-17842984D01*
X8601491Y-17633460D02*
X8430063Y-17890603D01*
X8858634Y-17642984D02*
X8877682Y-17642984D01*
X8877682Y-17642984D02*
X8896729Y-17652508D01*
X8896729Y-17652508D02*
X8906253Y-17662031D01*
X8906253Y-17662031D02*
X8915777Y-17681079D01*
X8915777Y-17681079D02*
X8925301Y-17719174D01*
X8925301Y-17719174D02*
X8925301Y-17766793D01*
X8925301Y-17766793D02*
X8915777Y-17804889D01*
X8915777Y-17804889D02*
X8906253Y-17823936D01*
X8906253Y-17823936D02*
X8896729Y-17833460D01*
X8896729Y-17833460D02*
X8877682Y-17842984D01*
X8877682Y-17842984D02*
X8858634Y-17842984D01*
X8858634Y-17842984D02*
X8839587Y-17833460D01*
X8839587Y-17833460D02*
X8830063Y-17823936D01*
X8830063Y-17823936D02*
X8820539Y-17804889D01*
X8820539Y-17804889D02*
X8811015Y-17766793D01*
X8811015Y-17766793D02*
X8811015Y-17719174D01*
X8811015Y-17719174D02*
X8820539Y-17681079D01*
X8820539Y-17681079D02*
X8830063Y-17662031D01*
X8830063Y-17662031D02*
X8839587Y-17652508D01*
X8839587Y-17652508D02*
X8858634Y-17642984D01*
X9011015Y-17823936D02*
X9020539Y-17833460D01*
X9020539Y-17833460D02*
X9011015Y-17842984D01*
X9011015Y-17842984D02*
X9001491Y-17833460D01*
X9001491Y-17833460D02*
X9011015Y-17823936D01*
X9011015Y-17823936D02*
X9011015Y-17842984D01*
X9144348Y-17642984D02*
X9163396Y-17642984D01*
X9163396Y-17642984D02*
X9182444Y-17652508D01*
X9182444Y-17652508D02*
X9191968Y-17662031D01*
X9191968Y-17662031D02*
X9201491Y-17681079D01*
X9201491Y-17681079D02*
X9211015Y-17719174D01*
X9211015Y-17719174D02*
X9211015Y-17766793D01*
X9211015Y-17766793D02*
X9201491Y-17804889D01*
X9201491Y-17804889D02*
X9191968Y-17823936D01*
X9191968Y-17823936D02*
X9182444Y-17833460D01*
X9182444Y-17833460D02*
X9163396Y-17842984D01*
X9163396Y-17842984D02*
X9144348Y-17842984D01*
X9144348Y-17842984D02*
X9125301Y-17833460D01*
X9125301Y-17833460D02*
X9115777Y-17823936D01*
X9115777Y-17823936D02*
X9106253Y-17804889D01*
X9106253Y-17804889D02*
X9096729Y-17766793D01*
X9096729Y-17766793D02*
X9096729Y-17719174D01*
X9096729Y-17719174D02*
X9106253Y-17681079D01*
X9106253Y-17681079D02*
X9115777Y-17662031D01*
X9115777Y-17662031D02*
X9125301Y-17652508D01*
X9125301Y-17652508D02*
X9144348Y-17642984D01*
X9287206Y-17662031D02*
X9296729Y-17652508D01*
X9296729Y-17652508D02*
X9315777Y-17642984D01*
X9315777Y-17642984D02*
X9363396Y-17642984D01*
X9363396Y-17642984D02*
X9382444Y-17652508D01*
X9382444Y-17652508D02*
X9391968Y-17662031D01*
X9391968Y-17662031D02*
X9401491Y-17681079D01*
X9401491Y-17681079D02*
X9401491Y-17700127D01*
X9401491Y-17700127D02*
X9391968Y-17728698D01*
X9391968Y-17728698D02*
X9277682Y-17842984D01*
X9277682Y-17842984D02*
X9401491Y-17842984D01*
X9468158Y-17642984D02*
X9591968Y-17642984D01*
X9591968Y-17642984D02*
X9525301Y-17719174D01*
X9525301Y-17719174D02*
X9553872Y-17719174D01*
X9553872Y-17719174D02*
X9572920Y-17728698D01*
X9572920Y-17728698D02*
X9582444Y-17738222D01*
X9582444Y-17738222D02*
X9591968Y-17757270D01*
X9591968Y-17757270D02*
X9591968Y-17804889D01*
X9591968Y-17804889D02*
X9582444Y-17823936D01*
X9582444Y-17823936D02*
X9572920Y-17833460D01*
X9572920Y-17833460D02*
X9553872Y-17842984D01*
X9553872Y-17842984D02*
X9496729Y-17842984D01*
X9496729Y-17842984D02*
X9477682Y-17833460D01*
X9477682Y-17833460D02*
X9468158Y-17823936D01*
X9763396Y-17642984D02*
X9725301Y-17642984D01*
X9725301Y-17642984D02*
X9706253Y-17652508D01*
X9706253Y-17652508D02*
X9696729Y-17662031D01*
X9696729Y-17662031D02*
X9677682Y-17690603D01*
X9677682Y-17690603D02*
X9668158Y-17728698D01*
X9668158Y-17728698D02*
X9668158Y-17804889D01*
X9668158Y-17804889D02*
X9677682Y-17823936D01*
X9677682Y-17823936D02*
X9687206Y-17833460D01*
X9687206Y-17833460D02*
X9706253Y-17842984D01*
X9706253Y-17842984D02*
X9744349Y-17842984D01*
X9744349Y-17842984D02*
X9763396Y-17833460D01*
X9763396Y-17833460D02*
X9772920Y-17823936D01*
X9772920Y-17823936D02*
X9782444Y-17804889D01*
X9782444Y-17804889D02*
X9782444Y-17757270D01*
X9782444Y-17757270D02*
X9772920Y-17738222D01*
X9772920Y-17738222D02*
X9763396Y-17728698D01*
X9763396Y-17728698D02*
X9744349Y-17719174D01*
X9744349Y-17719174D02*
X9706253Y-17719174D01*
X9706253Y-17719174D02*
X9687206Y-17728698D01*
X9687206Y-17728698D02*
X9677682Y-17738222D01*
X9677682Y-17738222D02*
X9668158Y-17757270D01*
X9858634Y-17642984D02*
X9858634Y-17681079D01*
X9934825Y-17642984D02*
X9934825Y-17681079D01*
X10230063Y-17919174D02*
X10220539Y-17909650D01*
X10220539Y-17909650D02*
X10201491Y-17881079D01*
X10201491Y-17881079D02*
X10191968Y-17862031D01*
X10191968Y-17862031D02*
X10182444Y-17833460D01*
X10182444Y-17833460D02*
X10172920Y-17785841D01*
X10172920Y-17785841D02*
X10172920Y-17747746D01*
X10172920Y-17747746D02*
X10182444Y-17700127D01*
X10182444Y-17700127D02*
X10191968Y-17671555D01*
X10191968Y-17671555D02*
X10201491Y-17652508D01*
X10201491Y-17652508D02*
X10220539Y-17623936D01*
X10220539Y-17623936D02*
X10230063Y-17614412D01*
X10344349Y-17642984D02*
X10363396Y-17642984D01*
X10363396Y-17642984D02*
X10382444Y-17652508D01*
X10382444Y-17652508D02*
X10391968Y-17662031D01*
X10391968Y-17662031D02*
X10401491Y-17681079D01*
X10401491Y-17681079D02*
X10411015Y-17719174D01*
X10411015Y-17719174D02*
X10411015Y-17766793D01*
X10411015Y-17766793D02*
X10401491Y-17804889D01*
X10401491Y-17804889D02*
X10391968Y-17823936D01*
X10391968Y-17823936D02*
X10382444Y-17833460D01*
X10382444Y-17833460D02*
X10363396Y-17842984D01*
X10363396Y-17842984D02*
X10344349Y-17842984D01*
X10344349Y-17842984D02*
X10325301Y-17833460D01*
X10325301Y-17833460D02*
X10315777Y-17823936D01*
X10315777Y-17823936D02*
X10306253Y-17804889D01*
X10306253Y-17804889D02*
X10296730Y-17766793D01*
X10296730Y-17766793D02*
X10296730Y-17719174D01*
X10296730Y-17719174D02*
X10306253Y-17681079D01*
X10306253Y-17681079D02*
X10315777Y-17662031D01*
X10315777Y-17662031D02*
X10325301Y-17652508D01*
X10325301Y-17652508D02*
X10344349Y-17642984D01*
X10649111Y-17842984D02*
X10649111Y-17642984D01*
X10734825Y-17842984D02*
X10734825Y-17738222D01*
X10734825Y-17738222D02*
X10725301Y-17719174D01*
X10725301Y-17719174D02*
X10706253Y-17709650D01*
X10706253Y-17709650D02*
X10677682Y-17709650D01*
X10677682Y-17709650D02*
X10658634Y-17719174D01*
X10658634Y-17719174D02*
X10649111Y-17728698D01*
X10858634Y-17842984D02*
X10839587Y-17833460D01*
X10839587Y-17833460D02*
X10830063Y-17823936D01*
X10830063Y-17823936D02*
X10820539Y-17804889D01*
X10820539Y-17804889D02*
X10820539Y-17747746D01*
X10820539Y-17747746D02*
X10830063Y-17728698D01*
X10830063Y-17728698D02*
X10839587Y-17719174D01*
X10839587Y-17719174D02*
X10858634Y-17709650D01*
X10858634Y-17709650D02*
X10887206Y-17709650D01*
X10887206Y-17709650D02*
X10906253Y-17719174D01*
X10906253Y-17719174D02*
X10915777Y-17728698D01*
X10915777Y-17728698D02*
X10925301Y-17747746D01*
X10925301Y-17747746D02*
X10925301Y-17804889D01*
X10925301Y-17804889D02*
X10915777Y-17823936D01*
X10915777Y-17823936D02*
X10906253Y-17833460D01*
X10906253Y-17833460D02*
X10887206Y-17842984D01*
X10887206Y-17842984D02*
X10858634Y-17842984D01*
X11039587Y-17842984D02*
X11020539Y-17833460D01*
X11020539Y-17833460D02*
X11011015Y-17814412D01*
X11011015Y-17814412D02*
X11011015Y-17642984D01*
X11191968Y-17833460D02*
X11172920Y-17842984D01*
X11172920Y-17842984D02*
X11134825Y-17842984D01*
X11134825Y-17842984D02*
X11115777Y-17833460D01*
X11115777Y-17833460D02*
X11106253Y-17814412D01*
X11106253Y-17814412D02*
X11106253Y-17738222D01*
X11106253Y-17738222D02*
X11115777Y-17719174D01*
X11115777Y-17719174D02*
X11134825Y-17709650D01*
X11134825Y-17709650D02*
X11172920Y-17709650D01*
X11172920Y-17709650D02*
X11191968Y-17719174D01*
X11191968Y-17719174D02*
X11201491Y-17738222D01*
X11201491Y-17738222D02*
X11201491Y-17757270D01*
X11201491Y-17757270D02*
X11106253Y-17776317D01*
X11277682Y-17833460D02*
X11296730Y-17842984D01*
X11296730Y-17842984D02*
X11334825Y-17842984D01*
X11334825Y-17842984D02*
X11353872Y-17833460D01*
X11353872Y-17833460D02*
X11363396Y-17814412D01*
X11363396Y-17814412D02*
X11363396Y-17804889D01*
X11363396Y-17804889D02*
X11353872Y-17785841D01*
X11353872Y-17785841D02*
X11334825Y-17776317D01*
X11334825Y-17776317D02*
X11306253Y-17776317D01*
X11306253Y-17776317D02*
X11287206Y-17766793D01*
X11287206Y-17766793D02*
X11277682Y-17747746D01*
X11277682Y-17747746D02*
X11277682Y-17738222D01*
X11277682Y-17738222D02*
X11287206Y-17719174D01*
X11287206Y-17719174D02*
X11306253Y-17709650D01*
X11306253Y-17709650D02*
X11334825Y-17709650D01*
X11334825Y-17709650D02*
X11353872Y-17719174D01*
X11601492Y-17766793D02*
X11753873Y-17766793D01*
X11677682Y-17842984D02*
X11677682Y-17690603D01*
X12087206Y-17709650D02*
X12087206Y-17842984D01*
X12039587Y-17633460D02*
X11991968Y-17776317D01*
X11991968Y-17776317D02*
X12115777Y-17776317D01*
X12334825Y-17833460D02*
X12353873Y-17842984D01*
X12353873Y-17842984D02*
X12391968Y-17842984D01*
X12391968Y-17842984D02*
X12411015Y-17833460D01*
X12411015Y-17833460D02*
X12420539Y-17814412D01*
X12420539Y-17814412D02*
X12420539Y-17804889D01*
X12420539Y-17804889D02*
X12411015Y-17785841D01*
X12411015Y-17785841D02*
X12391968Y-17776317D01*
X12391968Y-17776317D02*
X12363396Y-17776317D01*
X12363396Y-17776317D02*
X12344349Y-17766793D01*
X12344349Y-17766793D02*
X12334825Y-17747746D01*
X12334825Y-17747746D02*
X12334825Y-17738222D01*
X12334825Y-17738222D02*
X12344349Y-17719174D01*
X12344349Y-17719174D02*
X12363396Y-17709650D01*
X12363396Y-17709650D02*
X12391968Y-17709650D01*
X12391968Y-17709650D02*
X12411015Y-17719174D01*
X12534825Y-17842984D02*
X12515777Y-17833460D01*
X12515777Y-17833460D02*
X12506254Y-17814412D01*
X12506254Y-17814412D02*
X12506254Y-17642984D01*
X12639587Y-17842984D02*
X12620539Y-17833460D01*
X12620539Y-17833460D02*
X12611015Y-17823936D01*
X12611015Y-17823936D02*
X12601492Y-17804889D01*
X12601492Y-17804889D02*
X12601492Y-17747746D01*
X12601492Y-17747746D02*
X12611015Y-17728698D01*
X12611015Y-17728698D02*
X12620539Y-17719174D01*
X12620539Y-17719174D02*
X12639587Y-17709650D01*
X12639587Y-17709650D02*
X12668158Y-17709650D01*
X12668158Y-17709650D02*
X12687206Y-17719174D01*
X12687206Y-17719174D02*
X12696730Y-17728698D01*
X12696730Y-17728698D02*
X12706254Y-17747746D01*
X12706254Y-17747746D02*
X12706254Y-17804889D01*
X12706254Y-17804889D02*
X12696730Y-17823936D01*
X12696730Y-17823936D02*
X12687206Y-17833460D01*
X12687206Y-17833460D02*
X12668158Y-17842984D01*
X12668158Y-17842984D02*
X12639587Y-17842984D01*
X12763396Y-17709650D02*
X12839587Y-17709650D01*
X12791968Y-17642984D02*
X12791968Y-17814412D01*
X12791968Y-17814412D02*
X12801492Y-17833460D01*
X12801492Y-17833460D02*
X12820539Y-17842984D01*
X12820539Y-17842984D02*
X12839587Y-17842984D01*
X12896730Y-17833460D02*
X12915777Y-17842984D01*
X12915777Y-17842984D02*
X12953873Y-17842984D01*
X12953873Y-17842984D02*
X12972920Y-17833460D01*
X12972920Y-17833460D02*
X12982444Y-17814412D01*
X12982444Y-17814412D02*
X12982444Y-17804889D01*
X12982444Y-17804889D02*
X12972920Y-17785841D01*
X12972920Y-17785841D02*
X12953873Y-17776317D01*
X12953873Y-17776317D02*
X12925301Y-17776317D01*
X12925301Y-17776317D02*
X12906254Y-17766793D01*
X12906254Y-17766793D02*
X12896730Y-17747746D01*
X12896730Y-17747746D02*
X12896730Y-17738222D01*
X12896730Y-17738222D02*
X12906254Y-17719174D01*
X12906254Y-17719174D02*
X12925301Y-17709650D01*
X12925301Y-17709650D02*
X12953873Y-17709650D01*
X12953873Y-17709650D02*
X12972920Y-17719174D01*
X13049111Y-17919174D02*
X13058635Y-17909650D01*
X13058635Y-17909650D02*
X13077682Y-17881079D01*
X13077682Y-17881079D02*
X13087206Y-17862031D01*
X13087206Y-17862031D02*
X13096730Y-17833460D01*
X13096730Y-17833460D02*
X13106254Y-17785841D01*
X13106254Y-17785841D02*
X13106254Y-17747746D01*
X13106254Y-17747746D02*
X13096730Y-17700127D01*
X13096730Y-17700127D02*
X13087206Y-17671555D01*
X13087206Y-17671555D02*
X13077682Y-17652508D01*
X13077682Y-17652508D02*
X13058635Y-17623936D01*
X13058635Y-17623936D02*
X13049111Y-17614412D01*
D13*
X6580000Y-17940500D02*
X6580000Y-18090500D01*
X6505000Y-18015500D02*
X6655000Y-18015500D01*
D11*
X7020539Y-18106984D02*
X6906253Y-18106984D01*
X6963396Y-18106984D02*
X6963396Y-17906984D01*
X6963396Y-17906984D02*
X6944348Y-17935555D01*
X6944348Y-17935555D02*
X6925301Y-17954603D01*
X6925301Y-17954603D02*
X6906253Y-17964127D01*
X7106253Y-18087936D02*
X7115777Y-18097460D01*
X7115777Y-18097460D02*
X7106253Y-18106984D01*
X7106253Y-18106984D02*
X7096729Y-18097460D01*
X7096729Y-18097460D02*
X7106253Y-18087936D01*
X7106253Y-18087936D02*
X7106253Y-18106984D01*
X7296729Y-17906984D02*
X7201491Y-17906984D01*
X7201491Y-17906984D02*
X7191967Y-18002222D01*
X7191967Y-18002222D02*
X7201491Y-17992698D01*
X7201491Y-17992698D02*
X7220539Y-17983174D01*
X7220539Y-17983174D02*
X7268158Y-17983174D01*
X7268158Y-17983174D02*
X7287205Y-17992698D01*
X7287205Y-17992698D02*
X7296729Y-18002222D01*
X7296729Y-18002222D02*
X7306253Y-18021270D01*
X7306253Y-18021270D02*
X7306253Y-18068889D01*
X7306253Y-18068889D02*
X7296729Y-18087936D01*
X7296729Y-18087936D02*
X7287205Y-18097460D01*
X7287205Y-18097460D02*
X7268158Y-18106984D01*
X7268158Y-18106984D02*
X7220539Y-18106984D01*
X7220539Y-18106984D02*
X7201491Y-18097460D01*
X7201491Y-18097460D02*
X7191967Y-18087936D01*
X7430062Y-17906984D02*
X7449110Y-17906984D01*
X7449110Y-17906984D02*
X7468158Y-17916508D01*
X7468158Y-17916508D02*
X7477682Y-17926031D01*
X7477682Y-17926031D02*
X7487205Y-17945079D01*
X7487205Y-17945079D02*
X7496729Y-17983174D01*
X7496729Y-17983174D02*
X7496729Y-18030793D01*
X7496729Y-18030793D02*
X7487205Y-18068889D01*
X7487205Y-18068889D02*
X7477682Y-18087936D01*
X7477682Y-18087936D02*
X7468158Y-18097460D01*
X7468158Y-18097460D02*
X7449110Y-18106984D01*
X7449110Y-18106984D02*
X7430062Y-18106984D01*
X7430062Y-18106984D02*
X7411015Y-18097460D01*
X7411015Y-18097460D02*
X7401491Y-18087936D01*
X7401491Y-18087936D02*
X7391967Y-18068889D01*
X7391967Y-18068889D02*
X7382443Y-18030793D01*
X7382443Y-18030793D02*
X7382443Y-17983174D01*
X7382443Y-17983174D02*
X7391967Y-17945079D01*
X7391967Y-17945079D02*
X7401491Y-17926031D01*
X7401491Y-17926031D02*
X7411015Y-17916508D01*
X7411015Y-17916508D02*
X7430062Y-17906984D01*
X7620539Y-17906984D02*
X7639586Y-17906984D01*
X7639586Y-17906984D02*
X7658634Y-17916508D01*
X7658634Y-17916508D02*
X7668158Y-17926031D01*
X7668158Y-17926031D02*
X7677682Y-17945079D01*
X7677682Y-17945079D02*
X7687205Y-17983174D01*
X7687205Y-17983174D02*
X7687205Y-18030793D01*
X7687205Y-18030793D02*
X7677682Y-18068889D01*
X7677682Y-18068889D02*
X7668158Y-18087936D01*
X7668158Y-18087936D02*
X7658634Y-18097460D01*
X7658634Y-18097460D02*
X7639586Y-18106984D01*
X7639586Y-18106984D02*
X7620539Y-18106984D01*
X7620539Y-18106984D02*
X7601491Y-18097460D01*
X7601491Y-18097460D02*
X7591967Y-18087936D01*
X7591967Y-18087936D02*
X7582443Y-18068889D01*
X7582443Y-18068889D02*
X7572920Y-18030793D01*
X7572920Y-18030793D02*
X7572920Y-17983174D01*
X7572920Y-17983174D02*
X7582443Y-17945079D01*
X7582443Y-17945079D02*
X7591967Y-17926031D01*
X7591967Y-17926031D02*
X7601491Y-17916508D01*
X7601491Y-17916508D02*
X7620539Y-17906984D01*
X7772920Y-18106984D02*
X7772920Y-17973650D01*
X7772920Y-17992698D02*
X7782443Y-17983174D01*
X7782443Y-17983174D02*
X7801491Y-17973650D01*
X7801491Y-17973650D02*
X7830063Y-17973650D01*
X7830063Y-17973650D02*
X7849110Y-17983174D01*
X7849110Y-17983174D02*
X7858634Y-18002222D01*
X7858634Y-18002222D02*
X7858634Y-18106984D01*
X7858634Y-18002222D02*
X7868158Y-17983174D01*
X7868158Y-17983174D02*
X7887205Y-17973650D01*
X7887205Y-17973650D02*
X7915777Y-17973650D01*
X7915777Y-17973650D02*
X7934824Y-17983174D01*
X7934824Y-17983174D02*
X7944348Y-18002222D01*
X7944348Y-18002222D02*
X7944348Y-18106984D01*
X8039586Y-18106984D02*
X8039586Y-17973650D01*
X8039586Y-17992698D02*
X8049110Y-17983174D01*
X8049110Y-17983174D02*
X8068158Y-17973650D01*
X8068158Y-17973650D02*
X8096729Y-17973650D01*
X8096729Y-17973650D02*
X8115777Y-17983174D01*
X8115777Y-17983174D02*
X8125301Y-18002222D01*
X8125301Y-18002222D02*
X8125301Y-18106984D01*
X8125301Y-18002222D02*
X8134824Y-17983174D01*
X8134824Y-17983174D02*
X8153872Y-17973650D01*
X8153872Y-17973650D02*
X8182443Y-17973650D01*
X8182443Y-17973650D02*
X8201491Y-17983174D01*
X8201491Y-17983174D02*
X8211015Y-18002222D01*
X8211015Y-18002222D02*
X8211015Y-18106984D01*
X8601491Y-17897460D02*
X8430063Y-18154603D01*
X8858634Y-17906984D02*
X8877682Y-17906984D01*
X8877682Y-17906984D02*
X8896729Y-17916508D01*
X8896729Y-17916508D02*
X8906253Y-17926031D01*
X8906253Y-17926031D02*
X8915777Y-17945079D01*
X8915777Y-17945079D02*
X8925301Y-17983174D01*
X8925301Y-17983174D02*
X8925301Y-18030793D01*
X8925301Y-18030793D02*
X8915777Y-18068889D01*
X8915777Y-18068889D02*
X8906253Y-18087936D01*
X8906253Y-18087936D02*
X8896729Y-18097460D01*
X8896729Y-18097460D02*
X8877682Y-18106984D01*
X8877682Y-18106984D02*
X8858634Y-18106984D01*
X8858634Y-18106984D02*
X8839587Y-18097460D01*
X8839587Y-18097460D02*
X8830063Y-18087936D01*
X8830063Y-18087936D02*
X8820539Y-18068889D01*
X8820539Y-18068889D02*
X8811015Y-18030793D01*
X8811015Y-18030793D02*
X8811015Y-17983174D01*
X8811015Y-17983174D02*
X8820539Y-17945079D01*
X8820539Y-17945079D02*
X8830063Y-17926031D01*
X8830063Y-17926031D02*
X8839587Y-17916508D01*
X8839587Y-17916508D02*
X8858634Y-17906984D01*
X9011015Y-18087936D02*
X9020539Y-18097460D01*
X9020539Y-18097460D02*
X9011015Y-18106984D01*
X9011015Y-18106984D02*
X9001491Y-18097460D01*
X9001491Y-18097460D02*
X9011015Y-18087936D01*
X9011015Y-18087936D02*
X9011015Y-18106984D01*
X9144348Y-17906984D02*
X9163396Y-17906984D01*
X9163396Y-17906984D02*
X9182444Y-17916508D01*
X9182444Y-17916508D02*
X9191968Y-17926031D01*
X9191968Y-17926031D02*
X9201491Y-17945079D01*
X9201491Y-17945079D02*
X9211015Y-17983174D01*
X9211015Y-17983174D02*
X9211015Y-18030793D01*
X9211015Y-18030793D02*
X9201491Y-18068889D01*
X9201491Y-18068889D02*
X9191968Y-18087936D01*
X9191968Y-18087936D02*
X9182444Y-18097460D01*
X9182444Y-18097460D02*
X9163396Y-18106984D01*
X9163396Y-18106984D02*
X9144348Y-18106984D01*
X9144348Y-18106984D02*
X9125301Y-18097460D01*
X9125301Y-18097460D02*
X9115777Y-18087936D01*
X9115777Y-18087936D02*
X9106253Y-18068889D01*
X9106253Y-18068889D02*
X9096729Y-18030793D01*
X9096729Y-18030793D02*
X9096729Y-17983174D01*
X9096729Y-17983174D02*
X9106253Y-17945079D01*
X9106253Y-17945079D02*
X9115777Y-17926031D01*
X9115777Y-17926031D02*
X9125301Y-17916508D01*
X9125301Y-17916508D02*
X9144348Y-17906984D01*
X9391968Y-17906984D02*
X9296729Y-17906984D01*
X9296729Y-17906984D02*
X9287206Y-18002222D01*
X9287206Y-18002222D02*
X9296729Y-17992698D01*
X9296729Y-17992698D02*
X9315777Y-17983174D01*
X9315777Y-17983174D02*
X9363396Y-17983174D01*
X9363396Y-17983174D02*
X9382444Y-17992698D01*
X9382444Y-17992698D02*
X9391968Y-18002222D01*
X9391968Y-18002222D02*
X9401491Y-18021270D01*
X9401491Y-18021270D02*
X9401491Y-18068889D01*
X9401491Y-18068889D02*
X9391968Y-18087936D01*
X9391968Y-18087936D02*
X9382444Y-18097460D01*
X9382444Y-18097460D02*
X9363396Y-18106984D01*
X9363396Y-18106984D02*
X9315777Y-18106984D01*
X9315777Y-18106984D02*
X9296729Y-18097460D01*
X9296729Y-18097460D02*
X9287206Y-18087936D01*
X9496729Y-18106984D02*
X9534825Y-18106984D01*
X9534825Y-18106984D02*
X9553872Y-18097460D01*
X9553872Y-18097460D02*
X9563396Y-18087936D01*
X9563396Y-18087936D02*
X9582444Y-18059365D01*
X9582444Y-18059365D02*
X9591968Y-18021270D01*
X9591968Y-18021270D02*
X9591968Y-17945079D01*
X9591968Y-17945079D02*
X9582444Y-17926031D01*
X9582444Y-17926031D02*
X9572920Y-17916508D01*
X9572920Y-17916508D02*
X9553872Y-17906984D01*
X9553872Y-17906984D02*
X9515777Y-17906984D01*
X9515777Y-17906984D02*
X9496729Y-17916508D01*
X9496729Y-17916508D02*
X9487206Y-17926031D01*
X9487206Y-17926031D02*
X9477682Y-17945079D01*
X9477682Y-17945079D02*
X9477682Y-17992698D01*
X9477682Y-17992698D02*
X9487206Y-18011746D01*
X9487206Y-18011746D02*
X9496729Y-18021270D01*
X9496729Y-18021270D02*
X9515777Y-18030793D01*
X9515777Y-18030793D02*
X9553872Y-18030793D01*
X9553872Y-18030793D02*
X9572920Y-18021270D01*
X9572920Y-18021270D02*
X9582444Y-18011746D01*
X9582444Y-18011746D02*
X9591968Y-17992698D01*
X9782444Y-18106984D02*
X9668158Y-18106984D01*
X9725301Y-18106984D02*
X9725301Y-17906984D01*
X9725301Y-17906984D02*
X9706253Y-17935555D01*
X9706253Y-17935555D02*
X9687206Y-17954603D01*
X9687206Y-17954603D02*
X9668158Y-17964127D01*
X9858634Y-17906984D02*
X9858634Y-17945079D01*
X9934825Y-17906984D02*
X9934825Y-17945079D01*
X10230063Y-18183174D02*
X10220539Y-18173650D01*
X10220539Y-18173650D02*
X10201491Y-18145079D01*
X10201491Y-18145079D02*
X10191968Y-18126031D01*
X10191968Y-18126031D02*
X10182444Y-18097460D01*
X10182444Y-18097460D02*
X10172920Y-18049841D01*
X10172920Y-18049841D02*
X10172920Y-18011746D01*
X10172920Y-18011746D02*
X10182444Y-17964127D01*
X10182444Y-17964127D02*
X10191968Y-17935555D01*
X10191968Y-17935555D02*
X10201491Y-17916508D01*
X10201491Y-17916508D02*
X10220539Y-17887936D01*
X10220539Y-17887936D02*
X10230063Y-17878412D01*
X10411015Y-18106984D02*
X10296730Y-18106984D01*
X10353872Y-18106984D02*
X10353872Y-17906984D01*
X10353872Y-17906984D02*
X10334825Y-17935555D01*
X10334825Y-17935555D02*
X10315777Y-17954603D01*
X10315777Y-17954603D02*
X10296730Y-17964127D01*
X10487206Y-17926031D02*
X10496730Y-17916508D01*
X10496730Y-17916508D02*
X10515777Y-17906984D01*
X10515777Y-17906984D02*
X10563396Y-17906984D01*
X10563396Y-17906984D02*
X10582444Y-17916508D01*
X10582444Y-17916508D02*
X10591968Y-17926031D01*
X10591968Y-17926031D02*
X10601491Y-17945079D01*
X10601491Y-17945079D02*
X10601491Y-17964127D01*
X10601491Y-17964127D02*
X10591968Y-17992698D01*
X10591968Y-17992698D02*
X10477682Y-18106984D01*
X10477682Y-18106984D02*
X10601491Y-18106984D01*
X10677682Y-17926031D02*
X10687206Y-17916508D01*
X10687206Y-17916508D02*
X10706253Y-17906984D01*
X10706253Y-17906984D02*
X10753872Y-17906984D01*
X10753872Y-17906984D02*
X10772920Y-17916508D01*
X10772920Y-17916508D02*
X10782444Y-17926031D01*
X10782444Y-17926031D02*
X10791968Y-17945079D01*
X10791968Y-17945079D02*
X10791968Y-17964127D01*
X10791968Y-17964127D02*
X10782444Y-17992698D01*
X10782444Y-17992698D02*
X10668158Y-18106984D01*
X10668158Y-18106984D02*
X10791968Y-18106984D01*
X11030063Y-18106984D02*
X11030063Y-17906984D01*
X11115777Y-18106984D02*
X11115777Y-18002222D01*
X11115777Y-18002222D02*
X11106253Y-17983174D01*
X11106253Y-17983174D02*
X11087206Y-17973650D01*
X11087206Y-17973650D02*
X11058634Y-17973650D01*
X11058634Y-17973650D02*
X11039587Y-17983174D01*
X11039587Y-17983174D02*
X11030063Y-17992698D01*
X11239587Y-18106984D02*
X11220539Y-18097460D01*
X11220539Y-18097460D02*
X11211015Y-18087936D01*
X11211015Y-18087936D02*
X11201491Y-18068889D01*
X11201491Y-18068889D02*
X11201491Y-18011746D01*
X11201491Y-18011746D02*
X11211015Y-17992698D01*
X11211015Y-17992698D02*
X11220539Y-17983174D01*
X11220539Y-17983174D02*
X11239587Y-17973650D01*
X11239587Y-17973650D02*
X11268158Y-17973650D01*
X11268158Y-17973650D02*
X11287206Y-17983174D01*
X11287206Y-17983174D02*
X11296730Y-17992698D01*
X11296730Y-17992698D02*
X11306253Y-18011746D01*
X11306253Y-18011746D02*
X11306253Y-18068889D01*
X11306253Y-18068889D02*
X11296730Y-18087936D01*
X11296730Y-18087936D02*
X11287206Y-18097460D01*
X11287206Y-18097460D02*
X11268158Y-18106984D01*
X11268158Y-18106984D02*
X11239587Y-18106984D01*
X11420539Y-18106984D02*
X11401491Y-18097460D01*
X11401491Y-18097460D02*
X11391968Y-18078412D01*
X11391968Y-18078412D02*
X11391968Y-17906984D01*
X11572920Y-18097460D02*
X11553872Y-18106984D01*
X11553872Y-18106984D02*
X11515777Y-18106984D01*
X11515777Y-18106984D02*
X11496730Y-18097460D01*
X11496730Y-18097460D02*
X11487206Y-18078412D01*
X11487206Y-18078412D02*
X11487206Y-18002222D01*
X11487206Y-18002222D02*
X11496730Y-17983174D01*
X11496730Y-17983174D02*
X11515777Y-17973650D01*
X11515777Y-17973650D02*
X11553872Y-17973650D01*
X11553872Y-17973650D02*
X11572920Y-17983174D01*
X11572920Y-17983174D02*
X11582444Y-18002222D01*
X11582444Y-18002222D02*
X11582444Y-18021270D01*
X11582444Y-18021270D02*
X11487206Y-18040317D01*
X11658634Y-18097460D02*
X11677682Y-18106984D01*
X11677682Y-18106984D02*
X11715777Y-18106984D01*
X11715777Y-18106984D02*
X11734825Y-18097460D01*
X11734825Y-18097460D02*
X11744349Y-18078412D01*
X11744349Y-18078412D02*
X11744349Y-18068889D01*
X11744349Y-18068889D02*
X11734825Y-18049841D01*
X11734825Y-18049841D02*
X11715777Y-18040317D01*
X11715777Y-18040317D02*
X11687206Y-18040317D01*
X11687206Y-18040317D02*
X11668158Y-18030793D01*
X11668158Y-18030793D02*
X11658634Y-18011746D01*
X11658634Y-18011746D02*
X11658634Y-18002222D01*
X11658634Y-18002222D02*
X11668158Y-17983174D01*
X11668158Y-17983174D02*
X11687206Y-17973650D01*
X11687206Y-17973650D02*
X11715777Y-17973650D01*
X11715777Y-17973650D02*
X11734825Y-17983174D01*
X11811015Y-18183174D02*
X11820539Y-18173650D01*
X11820539Y-18173650D02*
X11839587Y-18145079D01*
X11839587Y-18145079D02*
X11849111Y-18126031D01*
X11849111Y-18126031D02*
X11858634Y-18097460D01*
X11858634Y-18097460D02*
X11868158Y-18049841D01*
X11868158Y-18049841D02*
X11868158Y-18011746D01*
X11868158Y-18011746D02*
X11858634Y-17964127D01*
X11858634Y-17964127D02*
X11849111Y-17935555D01*
X11849111Y-17935555D02*
X11839587Y-17916508D01*
X11839587Y-17916508D02*
X11820539Y-17887936D01*
X11820539Y-17887936D02*
X11811015Y-17878412D01*
M02*
