%TF.GenerationSoftware,KiCad,Pcbnew,8.0.3*%
%TF.CreationDate,2025-05-11T02:01:07-04:00*%
%TF.ProjectId,KP60,4b503630-2e6b-4696-9361-645f70636258,rev?*%
%TF.SameCoordinates,Original*%
%TF.FileFunction,Legend,Bot*%
%TF.FilePolarity,Positive*%
%FSLAX46Y46*%
G04 Gerber Fmt 4.6, Leading zero omitted, Abs format (unit mm)*
G04 Created by KiCad (PCBNEW 8.0.3) date 2025-05-11 02:01:07*
%MOMM*%
%LPD*%
G01*
G04 APERTURE LIST*
%ADD10C,0.150000*%
%ADD11C,0.120000*%
G04 APERTURE END LIST*
D10*
X77341666Y-79972319D02*
X77674999Y-79496128D01*
X77913094Y-79972319D02*
X77913094Y-78972319D01*
X77913094Y-78972319D02*
X77532142Y-78972319D01*
X77532142Y-78972319D02*
X77436904Y-79019938D01*
X77436904Y-79019938D02*
X77389285Y-79067557D01*
X77389285Y-79067557D02*
X77341666Y-79162795D01*
X77341666Y-79162795D02*
X77341666Y-79305652D01*
X77341666Y-79305652D02*
X77389285Y-79400890D01*
X77389285Y-79400890D02*
X77436904Y-79448509D01*
X77436904Y-79448509D02*
X77532142Y-79496128D01*
X77532142Y-79496128D02*
X77913094Y-79496128D01*
X77008332Y-78972319D02*
X76389285Y-78972319D01*
X76389285Y-78972319D02*
X76722618Y-79353271D01*
X76722618Y-79353271D02*
X76579761Y-79353271D01*
X76579761Y-79353271D02*
X76484523Y-79400890D01*
X76484523Y-79400890D02*
X76436904Y-79448509D01*
X76436904Y-79448509D02*
X76389285Y-79543747D01*
X76389285Y-79543747D02*
X76389285Y-79781842D01*
X76389285Y-79781842D02*
X76436904Y-79877080D01*
X76436904Y-79877080D02*
X76484523Y-79924700D01*
X76484523Y-79924700D02*
X76579761Y-79972319D01*
X76579761Y-79972319D02*
X76865475Y-79972319D01*
X76865475Y-79972319D02*
X76960713Y-79924700D01*
X76960713Y-79924700D02*
X77008332Y-79877080D01*
X321542319Y-104862464D02*
X320542319Y-104862464D01*
X320542319Y-104862464D02*
X320542319Y-105100559D01*
X320542319Y-105100559D02*
X320589938Y-105243416D01*
X320589938Y-105243416D02*
X320685176Y-105338654D01*
X320685176Y-105338654D02*
X320780414Y-105386273D01*
X320780414Y-105386273D02*
X320970890Y-105433892D01*
X320970890Y-105433892D02*
X321113747Y-105433892D01*
X321113747Y-105433892D02*
X321304223Y-105386273D01*
X321304223Y-105386273D02*
X321399461Y-105338654D01*
X321399461Y-105338654D02*
X321494700Y-105243416D01*
X321494700Y-105243416D02*
X321542319Y-105100559D01*
X321542319Y-105100559D02*
X321542319Y-104862464D01*
X320637557Y-105814845D02*
X320589938Y-105862464D01*
X320589938Y-105862464D02*
X320542319Y-105957702D01*
X320542319Y-105957702D02*
X320542319Y-106195797D01*
X320542319Y-106195797D02*
X320589938Y-106291035D01*
X320589938Y-106291035D02*
X320637557Y-106338654D01*
X320637557Y-106338654D02*
X320732795Y-106386273D01*
X320732795Y-106386273D02*
X320828033Y-106386273D01*
X320828033Y-106386273D02*
X320970890Y-106338654D01*
X320970890Y-106338654D02*
X321542319Y-105767226D01*
X321542319Y-105767226D02*
X321542319Y-106386273D01*
X320542319Y-106719607D02*
X320542319Y-107386273D01*
X320542319Y-107386273D02*
X321542319Y-106957702D01*
X179946666Y-167499580D02*
X179994285Y-167547200D01*
X179994285Y-167547200D02*
X180137142Y-167594819D01*
X180137142Y-167594819D02*
X180232380Y-167594819D01*
X180232380Y-167594819D02*
X180375237Y-167547200D01*
X180375237Y-167547200D02*
X180470475Y-167451961D01*
X180470475Y-167451961D02*
X180518094Y-167356723D01*
X180518094Y-167356723D02*
X180565713Y-167166247D01*
X180565713Y-167166247D02*
X180565713Y-167023390D01*
X180565713Y-167023390D02*
X180518094Y-166832914D01*
X180518094Y-166832914D02*
X180470475Y-166737676D01*
X180470475Y-166737676D02*
X180375237Y-166642438D01*
X180375237Y-166642438D02*
X180232380Y-166594819D01*
X180232380Y-166594819D02*
X180137142Y-166594819D01*
X180137142Y-166594819D02*
X179994285Y-166642438D01*
X179994285Y-166642438D02*
X179946666Y-166690057D01*
X179089523Y-166594819D02*
X179279999Y-166594819D01*
X179279999Y-166594819D02*
X179375237Y-166642438D01*
X179375237Y-166642438D02*
X179422856Y-166690057D01*
X179422856Y-166690057D02*
X179518094Y-166832914D01*
X179518094Y-166832914D02*
X179565713Y-167023390D01*
X179565713Y-167023390D02*
X179565713Y-167404342D01*
X179565713Y-167404342D02*
X179518094Y-167499580D01*
X179518094Y-167499580D02*
X179470475Y-167547200D01*
X179470475Y-167547200D02*
X179375237Y-167594819D01*
X179375237Y-167594819D02*
X179184761Y-167594819D01*
X179184761Y-167594819D02*
X179089523Y-167547200D01*
X179089523Y-167547200D02*
X179041904Y-167499580D01*
X179041904Y-167499580D02*
X178994285Y-167404342D01*
X178994285Y-167404342D02*
X178994285Y-167166247D01*
X178994285Y-167166247D02*
X179041904Y-167071009D01*
X179041904Y-167071009D02*
X179089523Y-167023390D01*
X179089523Y-167023390D02*
X179184761Y-166975771D01*
X179184761Y-166975771D02*
X179375237Y-166975771D01*
X179375237Y-166975771D02*
X179470475Y-167023390D01*
X179470475Y-167023390D02*
X179518094Y-167071009D01*
X179518094Y-167071009D02*
X179565713Y-167166247D01*
X288204819Y-123912464D02*
X287204819Y-123912464D01*
X287204819Y-123912464D02*
X287204819Y-124150559D01*
X287204819Y-124150559D02*
X287252438Y-124293416D01*
X287252438Y-124293416D02*
X287347676Y-124388654D01*
X287347676Y-124388654D02*
X287442914Y-124436273D01*
X287442914Y-124436273D02*
X287633390Y-124483892D01*
X287633390Y-124483892D02*
X287776247Y-124483892D01*
X287776247Y-124483892D02*
X287966723Y-124436273D01*
X287966723Y-124436273D02*
X288061961Y-124388654D01*
X288061961Y-124388654D02*
X288157200Y-124293416D01*
X288157200Y-124293416D02*
X288204819Y-124150559D01*
X288204819Y-124150559D02*
X288204819Y-123912464D01*
X287204819Y-124817226D02*
X287204819Y-125436273D01*
X287204819Y-125436273D02*
X287585771Y-125102940D01*
X287585771Y-125102940D02*
X287585771Y-125245797D01*
X287585771Y-125245797D02*
X287633390Y-125341035D01*
X287633390Y-125341035D02*
X287681009Y-125388654D01*
X287681009Y-125388654D02*
X287776247Y-125436273D01*
X287776247Y-125436273D02*
X288014342Y-125436273D01*
X288014342Y-125436273D02*
X288109580Y-125388654D01*
X288109580Y-125388654D02*
X288157200Y-125341035D01*
X288157200Y-125341035D02*
X288204819Y-125245797D01*
X288204819Y-125245797D02*
X288204819Y-124960083D01*
X288204819Y-124960083D02*
X288157200Y-124864845D01*
X288157200Y-124864845D02*
X288109580Y-124817226D01*
X288204819Y-125912464D02*
X288204819Y-126102940D01*
X288204819Y-126102940D02*
X288157200Y-126198178D01*
X288157200Y-126198178D02*
X288109580Y-126245797D01*
X288109580Y-126245797D02*
X287966723Y-126341035D01*
X287966723Y-126341035D02*
X287776247Y-126388654D01*
X287776247Y-126388654D02*
X287395295Y-126388654D01*
X287395295Y-126388654D02*
X287300057Y-126341035D01*
X287300057Y-126341035D02*
X287252438Y-126293416D01*
X287252438Y-126293416D02*
X287204819Y-126198178D01*
X287204819Y-126198178D02*
X287204819Y-126007702D01*
X287204819Y-126007702D02*
X287252438Y-125912464D01*
X287252438Y-125912464D02*
X287300057Y-125864845D01*
X287300057Y-125864845D02*
X287395295Y-125817226D01*
X287395295Y-125817226D02*
X287633390Y-125817226D01*
X287633390Y-125817226D02*
X287728628Y-125864845D01*
X287728628Y-125864845D02*
X287776247Y-125912464D01*
X287776247Y-125912464D02*
X287823866Y-126007702D01*
X287823866Y-126007702D02*
X287823866Y-126198178D01*
X287823866Y-126198178D02*
X287776247Y-126293416D01*
X287776247Y-126293416D02*
X287728628Y-126341035D01*
X287728628Y-126341035D02*
X287633390Y-126388654D01*
X264392319Y-104862464D02*
X263392319Y-104862464D01*
X263392319Y-104862464D02*
X263392319Y-105100559D01*
X263392319Y-105100559D02*
X263439938Y-105243416D01*
X263439938Y-105243416D02*
X263535176Y-105338654D01*
X263535176Y-105338654D02*
X263630414Y-105386273D01*
X263630414Y-105386273D02*
X263820890Y-105433892D01*
X263820890Y-105433892D02*
X263963747Y-105433892D01*
X263963747Y-105433892D02*
X264154223Y-105386273D01*
X264154223Y-105386273D02*
X264249461Y-105338654D01*
X264249461Y-105338654D02*
X264344700Y-105243416D01*
X264344700Y-105243416D02*
X264392319Y-105100559D01*
X264392319Y-105100559D02*
X264392319Y-104862464D01*
X263487557Y-105814845D02*
X263439938Y-105862464D01*
X263439938Y-105862464D02*
X263392319Y-105957702D01*
X263392319Y-105957702D02*
X263392319Y-106195797D01*
X263392319Y-106195797D02*
X263439938Y-106291035D01*
X263439938Y-106291035D02*
X263487557Y-106338654D01*
X263487557Y-106338654D02*
X263582795Y-106386273D01*
X263582795Y-106386273D02*
X263678033Y-106386273D01*
X263678033Y-106386273D02*
X263820890Y-106338654D01*
X263820890Y-106338654D02*
X264392319Y-105767226D01*
X264392319Y-105767226D02*
X264392319Y-106386273D01*
X263725652Y-107243416D02*
X264392319Y-107243416D01*
X263344700Y-107005321D02*
X264058985Y-106767226D01*
X264058985Y-106767226D02*
X264058985Y-107386273D01*
X235817319Y-86288655D02*
X234817319Y-86288655D01*
X234817319Y-86288655D02*
X234817319Y-86526750D01*
X234817319Y-86526750D02*
X234864938Y-86669607D01*
X234864938Y-86669607D02*
X234960176Y-86764845D01*
X234960176Y-86764845D02*
X235055414Y-86812464D01*
X235055414Y-86812464D02*
X235245890Y-86860083D01*
X235245890Y-86860083D02*
X235388747Y-86860083D01*
X235388747Y-86860083D02*
X235579223Y-86812464D01*
X235579223Y-86812464D02*
X235674461Y-86764845D01*
X235674461Y-86764845D02*
X235769700Y-86669607D01*
X235769700Y-86669607D02*
X235817319Y-86526750D01*
X235817319Y-86526750D02*
X235817319Y-86288655D01*
X235817319Y-87336274D02*
X235817319Y-87526750D01*
X235817319Y-87526750D02*
X235769700Y-87621988D01*
X235769700Y-87621988D02*
X235722080Y-87669607D01*
X235722080Y-87669607D02*
X235579223Y-87764845D01*
X235579223Y-87764845D02*
X235388747Y-87812464D01*
X235388747Y-87812464D02*
X235007795Y-87812464D01*
X235007795Y-87812464D02*
X234912557Y-87764845D01*
X234912557Y-87764845D02*
X234864938Y-87717226D01*
X234864938Y-87717226D02*
X234817319Y-87621988D01*
X234817319Y-87621988D02*
X234817319Y-87431512D01*
X234817319Y-87431512D02*
X234864938Y-87336274D01*
X234864938Y-87336274D02*
X234912557Y-87288655D01*
X234912557Y-87288655D02*
X235007795Y-87241036D01*
X235007795Y-87241036D02*
X235245890Y-87241036D01*
X235245890Y-87241036D02*
X235341128Y-87288655D01*
X235341128Y-87288655D02*
X235388747Y-87336274D01*
X235388747Y-87336274D02*
X235436366Y-87431512D01*
X235436366Y-87431512D02*
X235436366Y-87621988D01*
X235436366Y-87621988D02*
X235388747Y-87717226D01*
X235388747Y-87717226D02*
X235341128Y-87764845D01*
X235341128Y-87764845D02*
X235245890Y-87812464D01*
X300111069Y-162012464D02*
X299111069Y-162012464D01*
X299111069Y-162012464D02*
X299111069Y-162250559D01*
X299111069Y-162250559D02*
X299158688Y-162393416D01*
X299158688Y-162393416D02*
X299253926Y-162488654D01*
X299253926Y-162488654D02*
X299349164Y-162536273D01*
X299349164Y-162536273D02*
X299539640Y-162583892D01*
X299539640Y-162583892D02*
X299682497Y-162583892D01*
X299682497Y-162583892D02*
X299872973Y-162536273D01*
X299872973Y-162536273D02*
X299968211Y-162488654D01*
X299968211Y-162488654D02*
X300063450Y-162393416D01*
X300063450Y-162393416D02*
X300111069Y-162250559D01*
X300111069Y-162250559D02*
X300111069Y-162012464D01*
X299111069Y-163488654D02*
X299111069Y-163012464D01*
X299111069Y-163012464D02*
X299587259Y-162964845D01*
X299587259Y-162964845D02*
X299539640Y-163012464D01*
X299539640Y-163012464D02*
X299492021Y-163107702D01*
X299492021Y-163107702D02*
X299492021Y-163345797D01*
X299492021Y-163345797D02*
X299539640Y-163441035D01*
X299539640Y-163441035D02*
X299587259Y-163488654D01*
X299587259Y-163488654D02*
X299682497Y-163536273D01*
X299682497Y-163536273D02*
X299920592Y-163536273D01*
X299920592Y-163536273D02*
X300015830Y-163488654D01*
X300015830Y-163488654D02*
X300063450Y-163441035D01*
X300063450Y-163441035D02*
X300111069Y-163345797D01*
X300111069Y-163345797D02*
X300111069Y-163107702D01*
X300111069Y-163107702D02*
X300063450Y-163012464D01*
X300063450Y-163012464D02*
X300015830Y-162964845D01*
X300111069Y-164012464D02*
X300111069Y-164202940D01*
X300111069Y-164202940D02*
X300063450Y-164298178D01*
X300063450Y-164298178D02*
X300015830Y-164345797D01*
X300015830Y-164345797D02*
X299872973Y-164441035D01*
X299872973Y-164441035D02*
X299682497Y-164488654D01*
X299682497Y-164488654D02*
X299301545Y-164488654D01*
X299301545Y-164488654D02*
X299206307Y-164441035D01*
X299206307Y-164441035D02*
X299158688Y-164393416D01*
X299158688Y-164393416D02*
X299111069Y-164298178D01*
X299111069Y-164298178D02*
X299111069Y-164107702D01*
X299111069Y-164107702D02*
X299158688Y-164012464D01*
X299158688Y-164012464D02*
X299206307Y-163964845D01*
X299206307Y-163964845D02*
X299301545Y-163917226D01*
X299301545Y-163917226D02*
X299539640Y-163917226D01*
X299539640Y-163917226D02*
X299634878Y-163964845D01*
X299634878Y-163964845D02*
X299682497Y-164012464D01*
X299682497Y-164012464D02*
X299730116Y-164107702D01*
X299730116Y-164107702D02*
X299730116Y-164298178D01*
X299730116Y-164298178D02*
X299682497Y-164393416D01*
X299682497Y-164393416D02*
X299634878Y-164441035D01*
X299634878Y-164441035D02*
X299539640Y-164488654D01*
X95323569Y-142962464D02*
X94323569Y-142962464D01*
X94323569Y-142962464D02*
X94323569Y-143200559D01*
X94323569Y-143200559D02*
X94371188Y-143343416D01*
X94371188Y-143343416D02*
X94466426Y-143438654D01*
X94466426Y-143438654D02*
X94561664Y-143486273D01*
X94561664Y-143486273D02*
X94752140Y-143533892D01*
X94752140Y-143533892D02*
X94894997Y-143533892D01*
X94894997Y-143533892D02*
X95085473Y-143486273D01*
X95085473Y-143486273D02*
X95180711Y-143438654D01*
X95180711Y-143438654D02*
X95275950Y-143343416D01*
X95275950Y-143343416D02*
X95323569Y-143200559D01*
X95323569Y-143200559D02*
X95323569Y-142962464D01*
X94656902Y-144391035D02*
X95323569Y-144391035D01*
X94275950Y-144152940D02*
X94990235Y-143914845D01*
X94990235Y-143914845D02*
X94990235Y-144533892D01*
X94418807Y-144867226D02*
X94371188Y-144914845D01*
X94371188Y-144914845D02*
X94323569Y-145010083D01*
X94323569Y-145010083D02*
X94323569Y-145248178D01*
X94323569Y-145248178D02*
X94371188Y-145343416D01*
X94371188Y-145343416D02*
X94418807Y-145391035D01*
X94418807Y-145391035D02*
X94514045Y-145438654D01*
X94514045Y-145438654D02*
X94609283Y-145438654D01*
X94609283Y-145438654D02*
X94752140Y-145391035D01*
X94752140Y-145391035D02*
X95323569Y-144819607D01*
X95323569Y-144819607D02*
X95323569Y-145438654D01*
X202479819Y-142962464D02*
X201479819Y-142962464D01*
X201479819Y-142962464D02*
X201479819Y-143200559D01*
X201479819Y-143200559D02*
X201527438Y-143343416D01*
X201527438Y-143343416D02*
X201622676Y-143438654D01*
X201622676Y-143438654D02*
X201717914Y-143486273D01*
X201717914Y-143486273D02*
X201908390Y-143533892D01*
X201908390Y-143533892D02*
X202051247Y-143533892D01*
X202051247Y-143533892D02*
X202241723Y-143486273D01*
X202241723Y-143486273D02*
X202336961Y-143438654D01*
X202336961Y-143438654D02*
X202432200Y-143343416D01*
X202432200Y-143343416D02*
X202479819Y-143200559D01*
X202479819Y-143200559D02*
X202479819Y-142962464D01*
X201813152Y-144391035D02*
X202479819Y-144391035D01*
X201432200Y-144152940D02*
X202146485Y-143914845D01*
X202146485Y-143914845D02*
X202146485Y-144533892D01*
X201479819Y-144819607D02*
X201479819Y-145486273D01*
X201479819Y-145486273D02*
X202479819Y-145057702D01*
X283442319Y-104862464D02*
X282442319Y-104862464D01*
X282442319Y-104862464D02*
X282442319Y-105100559D01*
X282442319Y-105100559D02*
X282489938Y-105243416D01*
X282489938Y-105243416D02*
X282585176Y-105338654D01*
X282585176Y-105338654D02*
X282680414Y-105386273D01*
X282680414Y-105386273D02*
X282870890Y-105433892D01*
X282870890Y-105433892D02*
X283013747Y-105433892D01*
X283013747Y-105433892D02*
X283204223Y-105386273D01*
X283204223Y-105386273D02*
X283299461Y-105338654D01*
X283299461Y-105338654D02*
X283394700Y-105243416D01*
X283394700Y-105243416D02*
X283442319Y-105100559D01*
X283442319Y-105100559D02*
X283442319Y-104862464D01*
X282537557Y-105814845D02*
X282489938Y-105862464D01*
X282489938Y-105862464D02*
X282442319Y-105957702D01*
X282442319Y-105957702D02*
X282442319Y-106195797D01*
X282442319Y-106195797D02*
X282489938Y-106291035D01*
X282489938Y-106291035D02*
X282537557Y-106338654D01*
X282537557Y-106338654D02*
X282632795Y-106386273D01*
X282632795Y-106386273D02*
X282728033Y-106386273D01*
X282728033Y-106386273D02*
X282870890Y-106338654D01*
X282870890Y-106338654D02*
X283442319Y-105767226D01*
X283442319Y-105767226D02*
X283442319Y-106386273D01*
X282442319Y-107291035D02*
X282442319Y-106814845D01*
X282442319Y-106814845D02*
X282918509Y-106767226D01*
X282918509Y-106767226D02*
X282870890Y-106814845D01*
X282870890Y-106814845D02*
X282823271Y-106910083D01*
X282823271Y-106910083D02*
X282823271Y-107148178D01*
X282823271Y-107148178D02*
X282870890Y-107243416D01*
X282870890Y-107243416D02*
X282918509Y-107291035D01*
X282918509Y-107291035D02*
X283013747Y-107338654D01*
X283013747Y-107338654D02*
X283251842Y-107338654D01*
X283251842Y-107338654D02*
X283347080Y-107291035D01*
X283347080Y-107291035D02*
X283394700Y-107243416D01*
X283394700Y-107243416D02*
X283442319Y-107148178D01*
X283442319Y-107148178D02*
X283442319Y-106910083D01*
X283442319Y-106910083D02*
X283394700Y-106814845D01*
X283394700Y-106814845D02*
X283347080Y-106767226D01*
X164379819Y-142962464D02*
X163379819Y-142962464D01*
X163379819Y-142962464D02*
X163379819Y-143200559D01*
X163379819Y-143200559D02*
X163427438Y-143343416D01*
X163427438Y-143343416D02*
X163522676Y-143438654D01*
X163522676Y-143438654D02*
X163617914Y-143486273D01*
X163617914Y-143486273D02*
X163808390Y-143533892D01*
X163808390Y-143533892D02*
X163951247Y-143533892D01*
X163951247Y-143533892D02*
X164141723Y-143486273D01*
X164141723Y-143486273D02*
X164236961Y-143438654D01*
X164236961Y-143438654D02*
X164332200Y-143343416D01*
X164332200Y-143343416D02*
X164379819Y-143200559D01*
X164379819Y-143200559D02*
X164379819Y-142962464D01*
X163713152Y-144391035D02*
X164379819Y-144391035D01*
X163332200Y-144152940D02*
X164046485Y-143914845D01*
X164046485Y-143914845D02*
X164046485Y-144533892D01*
X163379819Y-145391035D02*
X163379819Y-144914845D01*
X163379819Y-144914845D02*
X163856009Y-144867226D01*
X163856009Y-144867226D02*
X163808390Y-144914845D01*
X163808390Y-144914845D02*
X163760771Y-145010083D01*
X163760771Y-145010083D02*
X163760771Y-145248178D01*
X163760771Y-145248178D02*
X163808390Y-145343416D01*
X163808390Y-145343416D02*
X163856009Y-145391035D01*
X163856009Y-145391035D02*
X163951247Y-145438654D01*
X163951247Y-145438654D02*
X164189342Y-145438654D01*
X164189342Y-145438654D02*
X164284580Y-145391035D01*
X164284580Y-145391035D02*
X164332200Y-145343416D01*
X164332200Y-145343416D02*
X164379819Y-145248178D01*
X164379819Y-145248178D02*
X164379819Y-145010083D01*
X164379819Y-145010083D02*
X164332200Y-144914845D01*
X164332200Y-144914845D02*
X164284580Y-144867226D01*
X178667319Y-86288655D02*
X177667319Y-86288655D01*
X177667319Y-86288655D02*
X177667319Y-86526750D01*
X177667319Y-86526750D02*
X177714938Y-86669607D01*
X177714938Y-86669607D02*
X177810176Y-86764845D01*
X177810176Y-86764845D02*
X177905414Y-86812464D01*
X177905414Y-86812464D02*
X178095890Y-86860083D01*
X178095890Y-86860083D02*
X178238747Y-86860083D01*
X178238747Y-86860083D02*
X178429223Y-86812464D01*
X178429223Y-86812464D02*
X178524461Y-86764845D01*
X178524461Y-86764845D02*
X178619700Y-86669607D01*
X178619700Y-86669607D02*
X178667319Y-86526750D01*
X178667319Y-86526750D02*
X178667319Y-86288655D01*
X177667319Y-87717226D02*
X177667319Y-87526750D01*
X177667319Y-87526750D02*
X177714938Y-87431512D01*
X177714938Y-87431512D02*
X177762557Y-87383893D01*
X177762557Y-87383893D02*
X177905414Y-87288655D01*
X177905414Y-87288655D02*
X178095890Y-87241036D01*
X178095890Y-87241036D02*
X178476842Y-87241036D01*
X178476842Y-87241036D02*
X178572080Y-87288655D01*
X178572080Y-87288655D02*
X178619700Y-87336274D01*
X178619700Y-87336274D02*
X178667319Y-87431512D01*
X178667319Y-87431512D02*
X178667319Y-87621988D01*
X178667319Y-87621988D02*
X178619700Y-87717226D01*
X178619700Y-87717226D02*
X178572080Y-87764845D01*
X178572080Y-87764845D02*
X178476842Y-87812464D01*
X178476842Y-87812464D02*
X178238747Y-87812464D01*
X178238747Y-87812464D02*
X178143509Y-87764845D01*
X178143509Y-87764845D02*
X178095890Y-87717226D01*
X178095890Y-87717226D02*
X178048271Y-87621988D01*
X178048271Y-87621988D02*
X178048271Y-87431512D01*
X178048271Y-87431512D02*
X178095890Y-87336274D01*
X178095890Y-87336274D02*
X178143509Y-87288655D01*
X178143509Y-87288655D02*
X178238747Y-87241036D01*
X226292319Y-104862464D02*
X225292319Y-104862464D01*
X225292319Y-104862464D02*
X225292319Y-105100559D01*
X225292319Y-105100559D02*
X225339938Y-105243416D01*
X225339938Y-105243416D02*
X225435176Y-105338654D01*
X225435176Y-105338654D02*
X225530414Y-105386273D01*
X225530414Y-105386273D02*
X225720890Y-105433892D01*
X225720890Y-105433892D02*
X225863747Y-105433892D01*
X225863747Y-105433892D02*
X226054223Y-105386273D01*
X226054223Y-105386273D02*
X226149461Y-105338654D01*
X226149461Y-105338654D02*
X226244700Y-105243416D01*
X226244700Y-105243416D02*
X226292319Y-105100559D01*
X226292319Y-105100559D02*
X226292319Y-104862464D01*
X225387557Y-105814845D02*
X225339938Y-105862464D01*
X225339938Y-105862464D02*
X225292319Y-105957702D01*
X225292319Y-105957702D02*
X225292319Y-106195797D01*
X225292319Y-106195797D02*
X225339938Y-106291035D01*
X225339938Y-106291035D02*
X225387557Y-106338654D01*
X225387557Y-106338654D02*
X225482795Y-106386273D01*
X225482795Y-106386273D02*
X225578033Y-106386273D01*
X225578033Y-106386273D02*
X225720890Y-106338654D01*
X225720890Y-106338654D02*
X226292319Y-105767226D01*
X226292319Y-105767226D02*
X226292319Y-106386273D01*
X225387557Y-106767226D02*
X225339938Y-106814845D01*
X225339938Y-106814845D02*
X225292319Y-106910083D01*
X225292319Y-106910083D02*
X225292319Y-107148178D01*
X225292319Y-107148178D02*
X225339938Y-107243416D01*
X225339938Y-107243416D02*
X225387557Y-107291035D01*
X225387557Y-107291035D02*
X225482795Y-107338654D01*
X225482795Y-107338654D02*
X225578033Y-107338654D01*
X225578033Y-107338654D02*
X225720890Y-107291035D01*
X225720890Y-107291035D02*
X226292319Y-106719607D01*
X226292319Y-106719607D02*
X226292319Y-107338654D01*
X204861069Y-162012464D02*
X203861069Y-162012464D01*
X203861069Y-162012464D02*
X203861069Y-162250559D01*
X203861069Y-162250559D02*
X203908688Y-162393416D01*
X203908688Y-162393416D02*
X204003926Y-162488654D01*
X204003926Y-162488654D02*
X204099164Y-162536273D01*
X204099164Y-162536273D02*
X204289640Y-162583892D01*
X204289640Y-162583892D02*
X204432497Y-162583892D01*
X204432497Y-162583892D02*
X204622973Y-162536273D01*
X204622973Y-162536273D02*
X204718211Y-162488654D01*
X204718211Y-162488654D02*
X204813450Y-162393416D01*
X204813450Y-162393416D02*
X204861069Y-162250559D01*
X204861069Y-162250559D02*
X204861069Y-162012464D01*
X203861069Y-163488654D02*
X203861069Y-163012464D01*
X203861069Y-163012464D02*
X204337259Y-162964845D01*
X204337259Y-162964845D02*
X204289640Y-163012464D01*
X204289640Y-163012464D02*
X204242021Y-163107702D01*
X204242021Y-163107702D02*
X204242021Y-163345797D01*
X204242021Y-163345797D02*
X204289640Y-163441035D01*
X204289640Y-163441035D02*
X204337259Y-163488654D01*
X204337259Y-163488654D02*
X204432497Y-163536273D01*
X204432497Y-163536273D02*
X204670592Y-163536273D01*
X204670592Y-163536273D02*
X204765830Y-163488654D01*
X204765830Y-163488654D02*
X204813450Y-163441035D01*
X204813450Y-163441035D02*
X204861069Y-163345797D01*
X204861069Y-163345797D02*
X204861069Y-163107702D01*
X204861069Y-163107702D02*
X204813450Y-163012464D01*
X204813450Y-163012464D02*
X204765830Y-162964845D01*
X203861069Y-163869607D02*
X203861069Y-164536273D01*
X203861069Y-164536273D02*
X204861069Y-164107702D01*
X176816666Y-163659580D02*
X176864285Y-163707200D01*
X176864285Y-163707200D02*
X177007142Y-163754819D01*
X177007142Y-163754819D02*
X177102380Y-163754819D01*
X177102380Y-163754819D02*
X177245237Y-163707200D01*
X177245237Y-163707200D02*
X177340475Y-163611961D01*
X177340475Y-163611961D02*
X177388094Y-163516723D01*
X177388094Y-163516723D02*
X177435713Y-163326247D01*
X177435713Y-163326247D02*
X177435713Y-163183390D01*
X177435713Y-163183390D02*
X177388094Y-162992914D01*
X177388094Y-162992914D02*
X177340475Y-162897676D01*
X177340475Y-162897676D02*
X177245237Y-162802438D01*
X177245237Y-162802438D02*
X177102380Y-162754819D01*
X177102380Y-162754819D02*
X177007142Y-162754819D01*
X177007142Y-162754819D02*
X176864285Y-162802438D01*
X176864285Y-162802438D02*
X176816666Y-162850057D01*
X175959523Y-163088152D02*
X175959523Y-163754819D01*
X176197618Y-162707200D02*
X176435713Y-163421485D01*
X176435713Y-163421485D02*
X175816666Y-163421485D01*
X207242319Y-104862464D02*
X206242319Y-104862464D01*
X206242319Y-104862464D02*
X206242319Y-105100559D01*
X206242319Y-105100559D02*
X206289938Y-105243416D01*
X206289938Y-105243416D02*
X206385176Y-105338654D01*
X206385176Y-105338654D02*
X206480414Y-105386273D01*
X206480414Y-105386273D02*
X206670890Y-105433892D01*
X206670890Y-105433892D02*
X206813747Y-105433892D01*
X206813747Y-105433892D02*
X207004223Y-105386273D01*
X207004223Y-105386273D02*
X207099461Y-105338654D01*
X207099461Y-105338654D02*
X207194700Y-105243416D01*
X207194700Y-105243416D02*
X207242319Y-105100559D01*
X207242319Y-105100559D02*
X207242319Y-104862464D01*
X206337557Y-105814845D02*
X206289938Y-105862464D01*
X206289938Y-105862464D02*
X206242319Y-105957702D01*
X206242319Y-105957702D02*
X206242319Y-106195797D01*
X206242319Y-106195797D02*
X206289938Y-106291035D01*
X206289938Y-106291035D02*
X206337557Y-106338654D01*
X206337557Y-106338654D02*
X206432795Y-106386273D01*
X206432795Y-106386273D02*
X206528033Y-106386273D01*
X206528033Y-106386273D02*
X206670890Y-106338654D01*
X206670890Y-106338654D02*
X207242319Y-105767226D01*
X207242319Y-105767226D02*
X207242319Y-106386273D01*
X207242319Y-107338654D02*
X207242319Y-106767226D01*
X207242319Y-107052940D02*
X206242319Y-107052940D01*
X206242319Y-107052940D02*
X206385176Y-106957702D01*
X206385176Y-106957702D02*
X206480414Y-106862464D01*
X206480414Y-106862464D02*
X206528033Y-106767226D01*
X245342319Y-104862464D02*
X244342319Y-104862464D01*
X244342319Y-104862464D02*
X244342319Y-105100559D01*
X244342319Y-105100559D02*
X244389938Y-105243416D01*
X244389938Y-105243416D02*
X244485176Y-105338654D01*
X244485176Y-105338654D02*
X244580414Y-105386273D01*
X244580414Y-105386273D02*
X244770890Y-105433892D01*
X244770890Y-105433892D02*
X244913747Y-105433892D01*
X244913747Y-105433892D02*
X245104223Y-105386273D01*
X245104223Y-105386273D02*
X245199461Y-105338654D01*
X245199461Y-105338654D02*
X245294700Y-105243416D01*
X245294700Y-105243416D02*
X245342319Y-105100559D01*
X245342319Y-105100559D02*
X245342319Y-104862464D01*
X244437557Y-105814845D02*
X244389938Y-105862464D01*
X244389938Y-105862464D02*
X244342319Y-105957702D01*
X244342319Y-105957702D02*
X244342319Y-106195797D01*
X244342319Y-106195797D02*
X244389938Y-106291035D01*
X244389938Y-106291035D02*
X244437557Y-106338654D01*
X244437557Y-106338654D02*
X244532795Y-106386273D01*
X244532795Y-106386273D02*
X244628033Y-106386273D01*
X244628033Y-106386273D02*
X244770890Y-106338654D01*
X244770890Y-106338654D02*
X245342319Y-105767226D01*
X245342319Y-105767226D02*
X245342319Y-106386273D01*
X244342319Y-106719607D02*
X244342319Y-107338654D01*
X244342319Y-107338654D02*
X244723271Y-107005321D01*
X244723271Y-107005321D02*
X244723271Y-107148178D01*
X244723271Y-107148178D02*
X244770890Y-107243416D01*
X244770890Y-107243416D02*
X244818509Y-107291035D01*
X244818509Y-107291035D02*
X244913747Y-107338654D01*
X244913747Y-107338654D02*
X245151842Y-107338654D01*
X245151842Y-107338654D02*
X245247080Y-107291035D01*
X245247080Y-107291035D02*
X245294700Y-107243416D01*
X245294700Y-107243416D02*
X245342319Y-107148178D01*
X245342319Y-107148178D02*
X245342319Y-106862464D01*
X245342319Y-106862464D02*
X245294700Y-106767226D01*
X245294700Y-106767226D02*
X245247080Y-106719607D01*
X94146666Y-80114819D02*
X94479999Y-79638628D01*
X94718094Y-80114819D02*
X94718094Y-79114819D01*
X94718094Y-79114819D02*
X94337142Y-79114819D01*
X94337142Y-79114819D02*
X94241904Y-79162438D01*
X94241904Y-79162438D02*
X94194285Y-79210057D01*
X94194285Y-79210057D02*
X94146666Y-79305295D01*
X94146666Y-79305295D02*
X94146666Y-79448152D01*
X94146666Y-79448152D02*
X94194285Y-79543390D01*
X94194285Y-79543390D02*
X94241904Y-79591009D01*
X94241904Y-79591009D02*
X94337142Y-79638628D01*
X94337142Y-79638628D02*
X94718094Y-79638628D01*
X93765713Y-79210057D02*
X93718094Y-79162438D01*
X93718094Y-79162438D02*
X93622856Y-79114819D01*
X93622856Y-79114819D02*
X93384761Y-79114819D01*
X93384761Y-79114819D02*
X93289523Y-79162438D01*
X93289523Y-79162438D02*
X93241904Y-79210057D01*
X93241904Y-79210057D02*
X93194285Y-79305295D01*
X93194285Y-79305295D02*
X93194285Y-79400533D01*
X93194285Y-79400533D02*
X93241904Y-79543390D01*
X93241904Y-79543390D02*
X93813332Y-80114819D01*
X93813332Y-80114819D02*
X93194285Y-80114819D01*
X154854819Y-123912464D02*
X153854819Y-123912464D01*
X153854819Y-123912464D02*
X153854819Y-124150559D01*
X153854819Y-124150559D02*
X153902438Y-124293416D01*
X153902438Y-124293416D02*
X153997676Y-124388654D01*
X153997676Y-124388654D02*
X154092914Y-124436273D01*
X154092914Y-124436273D02*
X154283390Y-124483892D01*
X154283390Y-124483892D02*
X154426247Y-124483892D01*
X154426247Y-124483892D02*
X154616723Y-124436273D01*
X154616723Y-124436273D02*
X154711961Y-124388654D01*
X154711961Y-124388654D02*
X154807200Y-124293416D01*
X154807200Y-124293416D02*
X154854819Y-124150559D01*
X154854819Y-124150559D02*
X154854819Y-123912464D01*
X153854819Y-124817226D02*
X153854819Y-125436273D01*
X153854819Y-125436273D02*
X154235771Y-125102940D01*
X154235771Y-125102940D02*
X154235771Y-125245797D01*
X154235771Y-125245797D02*
X154283390Y-125341035D01*
X154283390Y-125341035D02*
X154331009Y-125388654D01*
X154331009Y-125388654D02*
X154426247Y-125436273D01*
X154426247Y-125436273D02*
X154664342Y-125436273D01*
X154664342Y-125436273D02*
X154759580Y-125388654D01*
X154759580Y-125388654D02*
X154807200Y-125341035D01*
X154807200Y-125341035D02*
X154854819Y-125245797D01*
X154854819Y-125245797D02*
X154854819Y-124960083D01*
X154854819Y-124960083D02*
X154807200Y-124864845D01*
X154807200Y-124864845D02*
X154759580Y-124817226D01*
X153950057Y-125817226D02*
X153902438Y-125864845D01*
X153902438Y-125864845D02*
X153854819Y-125960083D01*
X153854819Y-125960083D02*
X153854819Y-126198178D01*
X153854819Y-126198178D02*
X153902438Y-126293416D01*
X153902438Y-126293416D02*
X153950057Y-126341035D01*
X153950057Y-126341035D02*
X154045295Y-126388654D01*
X154045295Y-126388654D02*
X154140533Y-126388654D01*
X154140533Y-126388654D02*
X154283390Y-126341035D01*
X154283390Y-126341035D02*
X154854819Y-125769607D01*
X154854819Y-125769607D02*
X154854819Y-126388654D01*
X216767319Y-86288655D02*
X215767319Y-86288655D01*
X215767319Y-86288655D02*
X215767319Y-86526750D01*
X215767319Y-86526750D02*
X215814938Y-86669607D01*
X215814938Y-86669607D02*
X215910176Y-86764845D01*
X215910176Y-86764845D02*
X216005414Y-86812464D01*
X216005414Y-86812464D02*
X216195890Y-86860083D01*
X216195890Y-86860083D02*
X216338747Y-86860083D01*
X216338747Y-86860083D02*
X216529223Y-86812464D01*
X216529223Y-86812464D02*
X216624461Y-86764845D01*
X216624461Y-86764845D02*
X216719700Y-86669607D01*
X216719700Y-86669607D02*
X216767319Y-86526750D01*
X216767319Y-86526750D02*
X216767319Y-86288655D01*
X216195890Y-87431512D02*
X216148271Y-87336274D01*
X216148271Y-87336274D02*
X216100652Y-87288655D01*
X216100652Y-87288655D02*
X216005414Y-87241036D01*
X216005414Y-87241036D02*
X215957795Y-87241036D01*
X215957795Y-87241036D02*
X215862557Y-87288655D01*
X215862557Y-87288655D02*
X215814938Y-87336274D01*
X215814938Y-87336274D02*
X215767319Y-87431512D01*
X215767319Y-87431512D02*
X215767319Y-87621988D01*
X215767319Y-87621988D02*
X215814938Y-87717226D01*
X215814938Y-87717226D02*
X215862557Y-87764845D01*
X215862557Y-87764845D02*
X215957795Y-87812464D01*
X215957795Y-87812464D02*
X216005414Y-87812464D01*
X216005414Y-87812464D02*
X216100652Y-87764845D01*
X216100652Y-87764845D02*
X216148271Y-87717226D01*
X216148271Y-87717226D02*
X216195890Y-87621988D01*
X216195890Y-87621988D02*
X216195890Y-87431512D01*
X216195890Y-87431512D02*
X216243509Y-87336274D01*
X216243509Y-87336274D02*
X216291128Y-87288655D01*
X216291128Y-87288655D02*
X216386366Y-87241036D01*
X216386366Y-87241036D02*
X216576842Y-87241036D01*
X216576842Y-87241036D02*
X216672080Y-87288655D01*
X216672080Y-87288655D02*
X216719700Y-87336274D01*
X216719700Y-87336274D02*
X216767319Y-87431512D01*
X216767319Y-87431512D02*
X216767319Y-87621988D01*
X216767319Y-87621988D02*
X216719700Y-87717226D01*
X216719700Y-87717226D02*
X216672080Y-87764845D01*
X216672080Y-87764845D02*
X216576842Y-87812464D01*
X216576842Y-87812464D02*
X216386366Y-87812464D01*
X216386366Y-87812464D02*
X216291128Y-87764845D01*
X216291128Y-87764845D02*
X216243509Y-87717226D01*
X216243509Y-87717226D02*
X216195890Y-87621988D01*
X90561069Y-123912464D02*
X89561069Y-123912464D01*
X89561069Y-123912464D02*
X89561069Y-124150559D01*
X89561069Y-124150559D02*
X89608688Y-124293416D01*
X89608688Y-124293416D02*
X89703926Y-124388654D01*
X89703926Y-124388654D02*
X89799164Y-124436273D01*
X89799164Y-124436273D02*
X89989640Y-124483892D01*
X89989640Y-124483892D02*
X90132497Y-124483892D01*
X90132497Y-124483892D02*
X90322973Y-124436273D01*
X90322973Y-124436273D02*
X90418211Y-124388654D01*
X90418211Y-124388654D02*
X90513450Y-124293416D01*
X90513450Y-124293416D02*
X90561069Y-124150559D01*
X90561069Y-124150559D02*
X90561069Y-123912464D01*
X89656307Y-124864845D02*
X89608688Y-124912464D01*
X89608688Y-124912464D02*
X89561069Y-125007702D01*
X89561069Y-125007702D02*
X89561069Y-125245797D01*
X89561069Y-125245797D02*
X89608688Y-125341035D01*
X89608688Y-125341035D02*
X89656307Y-125388654D01*
X89656307Y-125388654D02*
X89751545Y-125436273D01*
X89751545Y-125436273D02*
X89846783Y-125436273D01*
X89846783Y-125436273D02*
X89989640Y-125388654D01*
X89989640Y-125388654D02*
X90561069Y-124817226D01*
X90561069Y-124817226D02*
X90561069Y-125436273D01*
X90561069Y-125912464D02*
X90561069Y-126102940D01*
X90561069Y-126102940D02*
X90513450Y-126198178D01*
X90513450Y-126198178D02*
X90465830Y-126245797D01*
X90465830Y-126245797D02*
X90322973Y-126341035D01*
X90322973Y-126341035D02*
X90132497Y-126388654D01*
X90132497Y-126388654D02*
X89751545Y-126388654D01*
X89751545Y-126388654D02*
X89656307Y-126341035D01*
X89656307Y-126341035D02*
X89608688Y-126293416D01*
X89608688Y-126293416D02*
X89561069Y-126198178D01*
X89561069Y-126198178D02*
X89561069Y-126007702D01*
X89561069Y-126007702D02*
X89608688Y-125912464D01*
X89608688Y-125912464D02*
X89656307Y-125864845D01*
X89656307Y-125864845D02*
X89751545Y-125817226D01*
X89751545Y-125817226D02*
X89989640Y-125817226D01*
X89989640Y-125817226D02*
X90084878Y-125864845D01*
X90084878Y-125864845D02*
X90132497Y-125912464D01*
X90132497Y-125912464D02*
X90180116Y-126007702D01*
X90180116Y-126007702D02*
X90180116Y-126198178D01*
X90180116Y-126198178D02*
X90132497Y-126293416D01*
X90132497Y-126293416D02*
X90084878Y-126341035D01*
X90084878Y-126341035D02*
X89989640Y-126388654D01*
X96686666Y-94279580D02*
X96734285Y-94327200D01*
X96734285Y-94327200D02*
X96877142Y-94374819D01*
X96877142Y-94374819D02*
X96972380Y-94374819D01*
X96972380Y-94374819D02*
X97115237Y-94327200D01*
X97115237Y-94327200D02*
X97210475Y-94231961D01*
X97210475Y-94231961D02*
X97258094Y-94136723D01*
X97258094Y-94136723D02*
X97305713Y-93946247D01*
X97305713Y-93946247D02*
X97305713Y-93803390D01*
X97305713Y-93803390D02*
X97258094Y-93612914D01*
X97258094Y-93612914D02*
X97210475Y-93517676D01*
X97210475Y-93517676D02*
X97115237Y-93422438D01*
X97115237Y-93422438D02*
X96972380Y-93374819D01*
X96972380Y-93374819D02*
X96877142Y-93374819D01*
X96877142Y-93374819D02*
X96734285Y-93422438D01*
X96734285Y-93422438D02*
X96686666Y-93470057D01*
X96353332Y-93374819D02*
X95686666Y-93374819D01*
X95686666Y-93374819D02*
X96115237Y-94374819D01*
X135804819Y-123912464D02*
X134804819Y-123912464D01*
X134804819Y-123912464D02*
X134804819Y-124150559D01*
X134804819Y-124150559D02*
X134852438Y-124293416D01*
X134852438Y-124293416D02*
X134947676Y-124388654D01*
X134947676Y-124388654D02*
X135042914Y-124436273D01*
X135042914Y-124436273D02*
X135233390Y-124483892D01*
X135233390Y-124483892D02*
X135376247Y-124483892D01*
X135376247Y-124483892D02*
X135566723Y-124436273D01*
X135566723Y-124436273D02*
X135661961Y-124388654D01*
X135661961Y-124388654D02*
X135757200Y-124293416D01*
X135757200Y-124293416D02*
X135804819Y-124150559D01*
X135804819Y-124150559D02*
X135804819Y-123912464D01*
X134804819Y-124817226D02*
X134804819Y-125436273D01*
X134804819Y-125436273D02*
X135185771Y-125102940D01*
X135185771Y-125102940D02*
X135185771Y-125245797D01*
X135185771Y-125245797D02*
X135233390Y-125341035D01*
X135233390Y-125341035D02*
X135281009Y-125388654D01*
X135281009Y-125388654D02*
X135376247Y-125436273D01*
X135376247Y-125436273D02*
X135614342Y-125436273D01*
X135614342Y-125436273D02*
X135709580Y-125388654D01*
X135709580Y-125388654D02*
X135757200Y-125341035D01*
X135757200Y-125341035D02*
X135804819Y-125245797D01*
X135804819Y-125245797D02*
X135804819Y-124960083D01*
X135804819Y-124960083D02*
X135757200Y-124864845D01*
X135757200Y-124864845D02*
X135709580Y-124817226D01*
X135804819Y-126388654D02*
X135804819Y-125817226D01*
X135804819Y-126102940D02*
X134804819Y-126102940D01*
X134804819Y-126102940D02*
X134947676Y-126007702D01*
X134947676Y-126007702D02*
X135042914Y-125912464D01*
X135042914Y-125912464D02*
X135090533Y-125817226D01*
X176234819Y-158835595D02*
X177044342Y-158835595D01*
X177044342Y-158835595D02*
X177139580Y-158883214D01*
X177139580Y-158883214D02*
X177187200Y-158930833D01*
X177187200Y-158930833D02*
X177234819Y-159026071D01*
X177234819Y-159026071D02*
X177234819Y-159216547D01*
X177234819Y-159216547D02*
X177187200Y-159311785D01*
X177187200Y-159311785D02*
X177139580Y-159359404D01*
X177139580Y-159359404D02*
X177044342Y-159407023D01*
X177044342Y-159407023D02*
X176234819Y-159407023D01*
X176330057Y-159835595D02*
X176282438Y-159883214D01*
X176282438Y-159883214D02*
X176234819Y-159978452D01*
X176234819Y-159978452D02*
X176234819Y-160216547D01*
X176234819Y-160216547D02*
X176282438Y-160311785D01*
X176282438Y-160311785D02*
X176330057Y-160359404D01*
X176330057Y-160359404D02*
X176425295Y-160407023D01*
X176425295Y-160407023D02*
X176520533Y-160407023D01*
X176520533Y-160407023D02*
X176663390Y-160359404D01*
X176663390Y-160359404D02*
X177234819Y-159787976D01*
X177234819Y-159787976D02*
X177234819Y-160407023D01*
X323923569Y-162012464D02*
X322923569Y-162012464D01*
X322923569Y-162012464D02*
X322923569Y-162250559D01*
X322923569Y-162250559D02*
X322971188Y-162393416D01*
X322971188Y-162393416D02*
X323066426Y-162488654D01*
X323066426Y-162488654D02*
X323161664Y-162536273D01*
X323161664Y-162536273D02*
X323352140Y-162583892D01*
X323352140Y-162583892D02*
X323494997Y-162583892D01*
X323494997Y-162583892D02*
X323685473Y-162536273D01*
X323685473Y-162536273D02*
X323780711Y-162488654D01*
X323780711Y-162488654D02*
X323875950Y-162393416D01*
X323875950Y-162393416D02*
X323923569Y-162250559D01*
X323923569Y-162250559D02*
X323923569Y-162012464D01*
X322923569Y-163441035D02*
X322923569Y-163250559D01*
X322923569Y-163250559D02*
X322971188Y-163155321D01*
X322971188Y-163155321D02*
X323018807Y-163107702D01*
X323018807Y-163107702D02*
X323161664Y-163012464D01*
X323161664Y-163012464D02*
X323352140Y-162964845D01*
X323352140Y-162964845D02*
X323733092Y-162964845D01*
X323733092Y-162964845D02*
X323828330Y-163012464D01*
X323828330Y-163012464D02*
X323875950Y-163060083D01*
X323875950Y-163060083D02*
X323923569Y-163155321D01*
X323923569Y-163155321D02*
X323923569Y-163345797D01*
X323923569Y-163345797D02*
X323875950Y-163441035D01*
X323875950Y-163441035D02*
X323828330Y-163488654D01*
X323828330Y-163488654D02*
X323733092Y-163536273D01*
X323733092Y-163536273D02*
X323494997Y-163536273D01*
X323494997Y-163536273D02*
X323399759Y-163488654D01*
X323399759Y-163488654D02*
X323352140Y-163441035D01*
X323352140Y-163441035D02*
X323304521Y-163345797D01*
X323304521Y-163345797D02*
X323304521Y-163155321D01*
X323304521Y-163155321D02*
X323352140Y-163060083D01*
X323352140Y-163060083D02*
X323399759Y-163012464D01*
X323399759Y-163012464D02*
X323494997Y-162964845D01*
X322923569Y-164155321D02*
X322923569Y-164250559D01*
X322923569Y-164250559D02*
X322971188Y-164345797D01*
X322971188Y-164345797D02*
X323018807Y-164393416D01*
X323018807Y-164393416D02*
X323114045Y-164441035D01*
X323114045Y-164441035D02*
X323304521Y-164488654D01*
X323304521Y-164488654D02*
X323542616Y-164488654D01*
X323542616Y-164488654D02*
X323733092Y-164441035D01*
X323733092Y-164441035D02*
X323828330Y-164393416D01*
X323828330Y-164393416D02*
X323875950Y-164345797D01*
X323875950Y-164345797D02*
X323923569Y-164250559D01*
X323923569Y-164250559D02*
X323923569Y-164155321D01*
X323923569Y-164155321D02*
X323875950Y-164060083D01*
X323875950Y-164060083D02*
X323828330Y-164012464D01*
X323828330Y-164012464D02*
X323733092Y-163964845D01*
X323733092Y-163964845D02*
X323542616Y-163917226D01*
X323542616Y-163917226D02*
X323304521Y-163917226D01*
X323304521Y-163917226D02*
X323114045Y-163964845D01*
X323114045Y-163964845D02*
X323018807Y-164012464D01*
X323018807Y-164012464D02*
X322971188Y-164060083D01*
X322971188Y-164060083D02*
X322923569Y-164155321D01*
X312017319Y-85812464D02*
X311017319Y-85812464D01*
X311017319Y-85812464D02*
X311017319Y-86050559D01*
X311017319Y-86050559D02*
X311064938Y-86193416D01*
X311064938Y-86193416D02*
X311160176Y-86288654D01*
X311160176Y-86288654D02*
X311255414Y-86336273D01*
X311255414Y-86336273D02*
X311445890Y-86383892D01*
X311445890Y-86383892D02*
X311588747Y-86383892D01*
X311588747Y-86383892D02*
X311779223Y-86336273D01*
X311779223Y-86336273D02*
X311874461Y-86288654D01*
X311874461Y-86288654D02*
X311969700Y-86193416D01*
X311969700Y-86193416D02*
X312017319Y-86050559D01*
X312017319Y-86050559D02*
X312017319Y-85812464D01*
X312017319Y-87336273D02*
X312017319Y-86764845D01*
X312017319Y-87050559D02*
X311017319Y-87050559D01*
X311017319Y-87050559D02*
X311160176Y-86955321D01*
X311160176Y-86955321D02*
X311255414Y-86860083D01*
X311255414Y-86860083D02*
X311303033Y-86764845D01*
X311017319Y-87669607D02*
X311017319Y-88288654D01*
X311017319Y-88288654D02*
X311398271Y-87955321D01*
X311398271Y-87955321D02*
X311398271Y-88098178D01*
X311398271Y-88098178D02*
X311445890Y-88193416D01*
X311445890Y-88193416D02*
X311493509Y-88241035D01*
X311493509Y-88241035D02*
X311588747Y-88288654D01*
X311588747Y-88288654D02*
X311826842Y-88288654D01*
X311826842Y-88288654D02*
X311922080Y-88241035D01*
X311922080Y-88241035D02*
X311969700Y-88193416D01*
X311969700Y-88193416D02*
X312017319Y-88098178D01*
X312017319Y-88098178D02*
X312017319Y-87812464D01*
X312017319Y-87812464D02*
X311969700Y-87717226D01*
X311969700Y-87717226D02*
X311922080Y-87669607D01*
X88301904Y-93264819D02*
X88301904Y-94074342D01*
X88301904Y-94074342D02*
X88254285Y-94169580D01*
X88254285Y-94169580D02*
X88206666Y-94217200D01*
X88206666Y-94217200D02*
X88111428Y-94264819D01*
X88111428Y-94264819D02*
X87920952Y-94264819D01*
X87920952Y-94264819D02*
X87825714Y-94217200D01*
X87825714Y-94217200D02*
X87778095Y-94169580D01*
X87778095Y-94169580D02*
X87730476Y-94074342D01*
X87730476Y-94074342D02*
X87730476Y-93264819D01*
X87349523Y-93264819D02*
X86730476Y-93264819D01*
X86730476Y-93264819D02*
X87063809Y-93645771D01*
X87063809Y-93645771D02*
X86920952Y-93645771D01*
X86920952Y-93645771D02*
X86825714Y-93693390D01*
X86825714Y-93693390D02*
X86778095Y-93741009D01*
X86778095Y-93741009D02*
X86730476Y-93836247D01*
X86730476Y-93836247D02*
X86730476Y-94074342D01*
X86730476Y-94074342D02*
X86778095Y-94169580D01*
X86778095Y-94169580D02*
X86825714Y-94217200D01*
X86825714Y-94217200D02*
X86920952Y-94264819D01*
X86920952Y-94264819D02*
X87206666Y-94264819D01*
X87206666Y-94264819D02*
X87301904Y-94217200D01*
X87301904Y-94217200D02*
X87349523Y-94169580D01*
X173904819Y-123912464D02*
X172904819Y-123912464D01*
X172904819Y-123912464D02*
X172904819Y-124150559D01*
X172904819Y-124150559D02*
X172952438Y-124293416D01*
X172952438Y-124293416D02*
X173047676Y-124388654D01*
X173047676Y-124388654D02*
X173142914Y-124436273D01*
X173142914Y-124436273D02*
X173333390Y-124483892D01*
X173333390Y-124483892D02*
X173476247Y-124483892D01*
X173476247Y-124483892D02*
X173666723Y-124436273D01*
X173666723Y-124436273D02*
X173761961Y-124388654D01*
X173761961Y-124388654D02*
X173857200Y-124293416D01*
X173857200Y-124293416D02*
X173904819Y-124150559D01*
X173904819Y-124150559D02*
X173904819Y-123912464D01*
X172904819Y-124817226D02*
X172904819Y-125436273D01*
X172904819Y-125436273D02*
X173285771Y-125102940D01*
X173285771Y-125102940D02*
X173285771Y-125245797D01*
X173285771Y-125245797D02*
X173333390Y-125341035D01*
X173333390Y-125341035D02*
X173381009Y-125388654D01*
X173381009Y-125388654D02*
X173476247Y-125436273D01*
X173476247Y-125436273D02*
X173714342Y-125436273D01*
X173714342Y-125436273D02*
X173809580Y-125388654D01*
X173809580Y-125388654D02*
X173857200Y-125341035D01*
X173857200Y-125341035D02*
X173904819Y-125245797D01*
X173904819Y-125245797D02*
X173904819Y-124960083D01*
X173904819Y-124960083D02*
X173857200Y-124864845D01*
X173857200Y-124864845D02*
X173809580Y-124817226D01*
X172904819Y-125769607D02*
X172904819Y-126388654D01*
X172904819Y-126388654D02*
X173285771Y-126055321D01*
X173285771Y-126055321D02*
X173285771Y-126198178D01*
X173285771Y-126198178D02*
X173333390Y-126293416D01*
X173333390Y-126293416D02*
X173381009Y-126341035D01*
X173381009Y-126341035D02*
X173476247Y-126388654D01*
X173476247Y-126388654D02*
X173714342Y-126388654D01*
X173714342Y-126388654D02*
X173809580Y-126341035D01*
X173809580Y-126341035D02*
X173857200Y-126293416D01*
X173857200Y-126293416D02*
X173904819Y-126198178D01*
X173904819Y-126198178D02*
X173904819Y-125912464D01*
X173904819Y-125912464D02*
X173857200Y-125817226D01*
X173857200Y-125817226D02*
X173809580Y-125769607D01*
X345354819Y-104862464D02*
X344354819Y-104862464D01*
X344354819Y-104862464D02*
X344354819Y-105100559D01*
X344354819Y-105100559D02*
X344402438Y-105243416D01*
X344402438Y-105243416D02*
X344497676Y-105338654D01*
X344497676Y-105338654D02*
X344592914Y-105386273D01*
X344592914Y-105386273D02*
X344783390Y-105433892D01*
X344783390Y-105433892D02*
X344926247Y-105433892D01*
X344926247Y-105433892D02*
X345116723Y-105386273D01*
X345116723Y-105386273D02*
X345211961Y-105338654D01*
X345211961Y-105338654D02*
X345307200Y-105243416D01*
X345307200Y-105243416D02*
X345354819Y-105100559D01*
X345354819Y-105100559D02*
X345354819Y-104862464D01*
X344450057Y-105814845D02*
X344402438Y-105862464D01*
X344402438Y-105862464D02*
X344354819Y-105957702D01*
X344354819Y-105957702D02*
X344354819Y-106195797D01*
X344354819Y-106195797D02*
X344402438Y-106291035D01*
X344402438Y-106291035D02*
X344450057Y-106338654D01*
X344450057Y-106338654D02*
X344545295Y-106386273D01*
X344545295Y-106386273D02*
X344640533Y-106386273D01*
X344640533Y-106386273D02*
X344783390Y-106338654D01*
X344783390Y-106338654D02*
X345354819Y-105767226D01*
X345354819Y-105767226D02*
X345354819Y-106386273D01*
X344783390Y-106957702D02*
X344735771Y-106862464D01*
X344735771Y-106862464D02*
X344688152Y-106814845D01*
X344688152Y-106814845D02*
X344592914Y-106767226D01*
X344592914Y-106767226D02*
X344545295Y-106767226D01*
X344545295Y-106767226D02*
X344450057Y-106814845D01*
X344450057Y-106814845D02*
X344402438Y-106862464D01*
X344402438Y-106862464D02*
X344354819Y-106957702D01*
X344354819Y-106957702D02*
X344354819Y-107148178D01*
X344354819Y-107148178D02*
X344402438Y-107243416D01*
X344402438Y-107243416D02*
X344450057Y-107291035D01*
X344450057Y-107291035D02*
X344545295Y-107338654D01*
X344545295Y-107338654D02*
X344592914Y-107338654D01*
X344592914Y-107338654D02*
X344688152Y-107291035D01*
X344688152Y-107291035D02*
X344735771Y-107243416D01*
X344735771Y-107243416D02*
X344783390Y-107148178D01*
X344783390Y-107148178D02*
X344783390Y-106957702D01*
X344783390Y-106957702D02*
X344831009Y-106862464D01*
X344831009Y-106862464D02*
X344878628Y-106814845D01*
X344878628Y-106814845D02*
X344973866Y-106767226D01*
X344973866Y-106767226D02*
X345164342Y-106767226D01*
X345164342Y-106767226D02*
X345259580Y-106814845D01*
X345259580Y-106814845D02*
X345307200Y-106862464D01*
X345307200Y-106862464D02*
X345354819Y-106957702D01*
X345354819Y-106957702D02*
X345354819Y-107148178D01*
X345354819Y-107148178D02*
X345307200Y-107243416D01*
X345307200Y-107243416D02*
X345259580Y-107291035D01*
X345259580Y-107291035D02*
X345164342Y-107338654D01*
X345164342Y-107338654D02*
X344973866Y-107338654D01*
X344973866Y-107338654D02*
X344878628Y-107291035D01*
X344878628Y-107291035D02*
X344831009Y-107243416D01*
X344831009Y-107243416D02*
X344783390Y-107148178D01*
X197717319Y-86288655D02*
X196717319Y-86288655D01*
X196717319Y-86288655D02*
X196717319Y-86526750D01*
X196717319Y-86526750D02*
X196764938Y-86669607D01*
X196764938Y-86669607D02*
X196860176Y-86764845D01*
X196860176Y-86764845D02*
X196955414Y-86812464D01*
X196955414Y-86812464D02*
X197145890Y-86860083D01*
X197145890Y-86860083D02*
X197288747Y-86860083D01*
X197288747Y-86860083D02*
X197479223Y-86812464D01*
X197479223Y-86812464D02*
X197574461Y-86764845D01*
X197574461Y-86764845D02*
X197669700Y-86669607D01*
X197669700Y-86669607D02*
X197717319Y-86526750D01*
X197717319Y-86526750D02*
X197717319Y-86288655D01*
X196717319Y-87193417D02*
X196717319Y-87860083D01*
X196717319Y-87860083D02*
X197717319Y-87431512D01*
X133423569Y-162012464D02*
X132423569Y-162012464D01*
X132423569Y-162012464D02*
X132423569Y-162250559D01*
X132423569Y-162250559D02*
X132471188Y-162393416D01*
X132471188Y-162393416D02*
X132566426Y-162488654D01*
X132566426Y-162488654D02*
X132661664Y-162536273D01*
X132661664Y-162536273D02*
X132852140Y-162583892D01*
X132852140Y-162583892D02*
X132994997Y-162583892D01*
X132994997Y-162583892D02*
X133185473Y-162536273D01*
X133185473Y-162536273D02*
X133280711Y-162488654D01*
X133280711Y-162488654D02*
X133375950Y-162393416D01*
X133375950Y-162393416D02*
X133423569Y-162250559D01*
X133423569Y-162250559D02*
X133423569Y-162012464D01*
X132423569Y-163488654D02*
X132423569Y-163012464D01*
X132423569Y-163012464D02*
X132899759Y-162964845D01*
X132899759Y-162964845D02*
X132852140Y-163012464D01*
X132852140Y-163012464D02*
X132804521Y-163107702D01*
X132804521Y-163107702D02*
X132804521Y-163345797D01*
X132804521Y-163345797D02*
X132852140Y-163441035D01*
X132852140Y-163441035D02*
X132899759Y-163488654D01*
X132899759Y-163488654D02*
X132994997Y-163536273D01*
X132994997Y-163536273D02*
X133233092Y-163536273D01*
X133233092Y-163536273D02*
X133328330Y-163488654D01*
X133328330Y-163488654D02*
X133375950Y-163441035D01*
X133375950Y-163441035D02*
X133423569Y-163345797D01*
X133423569Y-163345797D02*
X133423569Y-163107702D01*
X133423569Y-163107702D02*
X133375950Y-163012464D01*
X133375950Y-163012464D02*
X133328330Y-162964845D01*
X132423569Y-164393416D02*
X132423569Y-164202940D01*
X132423569Y-164202940D02*
X132471188Y-164107702D01*
X132471188Y-164107702D02*
X132518807Y-164060083D01*
X132518807Y-164060083D02*
X132661664Y-163964845D01*
X132661664Y-163964845D02*
X132852140Y-163917226D01*
X132852140Y-163917226D02*
X133233092Y-163917226D01*
X133233092Y-163917226D02*
X133328330Y-163964845D01*
X133328330Y-163964845D02*
X133375950Y-164012464D01*
X133375950Y-164012464D02*
X133423569Y-164107702D01*
X133423569Y-164107702D02*
X133423569Y-164298178D01*
X133423569Y-164298178D02*
X133375950Y-164393416D01*
X133375950Y-164393416D02*
X133328330Y-164441035D01*
X133328330Y-164441035D02*
X133233092Y-164488654D01*
X133233092Y-164488654D02*
X132994997Y-164488654D01*
X132994997Y-164488654D02*
X132899759Y-164441035D01*
X132899759Y-164441035D02*
X132852140Y-164393416D01*
X132852140Y-164393416D02*
X132804521Y-164298178D01*
X132804521Y-164298178D02*
X132804521Y-164107702D01*
X132804521Y-164107702D02*
X132852140Y-164012464D01*
X132852140Y-164012464D02*
X132899759Y-163964845D01*
X132899759Y-163964845D02*
X132994997Y-163917226D01*
X101474819Y-85321905D02*
X100474819Y-85321905D01*
X100474819Y-85321905D02*
X100474819Y-85560000D01*
X100474819Y-85560000D02*
X100522438Y-85702857D01*
X100522438Y-85702857D02*
X100617676Y-85798095D01*
X100617676Y-85798095D02*
X100712914Y-85845714D01*
X100712914Y-85845714D02*
X100903390Y-85893333D01*
X100903390Y-85893333D02*
X101046247Y-85893333D01*
X101046247Y-85893333D02*
X101236723Y-85845714D01*
X101236723Y-85845714D02*
X101331961Y-85798095D01*
X101331961Y-85798095D02*
X101427200Y-85702857D01*
X101427200Y-85702857D02*
X101474819Y-85560000D01*
X101474819Y-85560000D02*
X101474819Y-85321905D01*
X100570057Y-86274286D02*
X100522438Y-86321905D01*
X100522438Y-86321905D02*
X100474819Y-86417143D01*
X100474819Y-86417143D02*
X100474819Y-86655238D01*
X100474819Y-86655238D02*
X100522438Y-86750476D01*
X100522438Y-86750476D02*
X100570057Y-86798095D01*
X100570057Y-86798095D02*
X100665295Y-86845714D01*
X100665295Y-86845714D02*
X100760533Y-86845714D01*
X100760533Y-86845714D02*
X100903390Y-86798095D01*
X100903390Y-86798095D02*
X101474819Y-86226667D01*
X101474819Y-86226667D02*
X101474819Y-86845714D01*
X278679819Y-142962464D02*
X277679819Y-142962464D01*
X277679819Y-142962464D02*
X277679819Y-143200559D01*
X277679819Y-143200559D02*
X277727438Y-143343416D01*
X277727438Y-143343416D02*
X277822676Y-143438654D01*
X277822676Y-143438654D02*
X277917914Y-143486273D01*
X277917914Y-143486273D02*
X278108390Y-143533892D01*
X278108390Y-143533892D02*
X278251247Y-143533892D01*
X278251247Y-143533892D02*
X278441723Y-143486273D01*
X278441723Y-143486273D02*
X278536961Y-143438654D01*
X278536961Y-143438654D02*
X278632200Y-143343416D01*
X278632200Y-143343416D02*
X278679819Y-143200559D01*
X278679819Y-143200559D02*
X278679819Y-142962464D01*
X277679819Y-144438654D02*
X277679819Y-143962464D01*
X277679819Y-143962464D02*
X278156009Y-143914845D01*
X278156009Y-143914845D02*
X278108390Y-143962464D01*
X278108390Y-143962464D02*
X278060771Y-144057702D01*
X278060771Y-144057702D02*
X278060771Y-144295797D01*
X278060771Y-144295797D02*
X278108390Y-144391035D01*
X278108390Y-144391035D02*
X278156009Y-144438654D01*
X278156009Y-144438654D02*
X278251247Y-144486273D01*
X278251247Y-144486273D02*
X278489342Y-144486273D01*
X278489342Y-144486273D02*
X278584580Y-144438654D01*
X278584580Y-144438654D02*
X278632200Y-144391035D01*
X278632200Y-144391035D02*
X278679819Y-144295797D01*
X278679819Y-144295797D02*
X278679819Y-144057702D01*
X278679819Y-144057702D02*
X278632200Y-143962464D01*
X278632200Y-143962464D02*
X278584580Y-143914845D01*
X278679819Y-145438654D02*
X278679819Y-144867226D01*
X278679819Y-145152940D02*
X277679819Y-145152940D01*
X277679819Y-145152940D02*
X277822676Y-145057702D01*
X277822676Y-145057702D02*
X277917914Y-144962464D01*
X277917914Y-144962464D02*
X277965533Y-144867226D01*
X79200333Y-75359819D02*
X79200333Y-76074104D01*
X79200333Y-76074104D02*
X79247952Y-76216961D01*
X79247952Y-76216961D02*
X79343190Y-76312200D01*
X79343190Y-76312200D02*
X79486047Y-76359819D01*
X79486047Y-76359819D02*
X79581285Y-76359819D01*
X78200333Y-76359819D02*
X78771761Y-76359819D01*
X78486047Y-76359819D02*
X78486047Y-75359819D01*
X78486047Y-75359819D02*
X78581285Y-75502676D01*
X78581285Y-75502676D02*
X78676523Y-75597914D01*
X78676523Y-75597914D02*
X78771761Y-75645533D01*
X111992319Y-104862464D02*
X110992319Y-104862464D01*
X110992319Y-104862464D02*
X110992319Y-105100559D01*
X110992319Y-105100559D02*
X111039938Y-105243416D01*
X111039938Y-105243416D02*
X111135176Y-105338654D01*
X111135176Y-105338654D02*
X111230414Y-105386273D01*
X111230414Y-105386273D02*
X111420890Y-105433892D01*
X111420890Y-105433892D02*
X111563747Y-105433892D01*
X111563747Y-105433892D02*
X111754223Y-105386273D01*
X111754223Y-105386273D02*
X111849461Y-105338654D01*
X111849461Y-105338654D02*
X111944700Y-105243416D01*
X111944700Y-105243416D02*
X111992319Y-105100559D01*
X111992319Y-105100559D02*
X111992319Y-104862464D01*
X111992319Y-106386273D02*
X111992319Y-105814845D01*
X111992319Y-106100559D02*
X110992319Y-106100559D01*
X110992319Y-106100559D02*
X111135176Y-106005321D01*
X111135176Y-106005321D02*
X111230414Y-105910083D01*
X111230414Y-105910083D02*
X111278033Y-105814845D01*
X110992319Y-107243416D02*
X110992319Y-107052940D01*
X110992319Y-107052940D02*
X111039938Y-106957702D01*
X111039938Y-106957702D02*
X111087557Y-106910083D01*
X111087557Y-106910083D02*
X111230414Y-106814845D01*
X111230414Y-106814845D02*
X111420890Y-106767226D01*
X111420890Y-106767226D02*
X111801842Y-106767226D01*
X111801842Y-106767226D02*
X111897080Y-106814845D01*
X111897080Y-106814845D02*
X111944700Y-106862464D01*
X111944700Y-106862464D02*
X111992319Y-106957702D01*
X111992319Y-106957702D02*
X111992319Y-107148178D01*
X111992319Y-107148178D02*
X111944700Y-107243416D01*
X111944700Y-107243416D02*
X111897080Y-107291035D01*
X111897080Y-107291035D02*
X111801842Y-107338654D01*
X111801842Y-107338654D02*
X111563747Y-107338654D01*
X111563747Y-107338654D02*
X111468509Y-107291035D01*
X111468509Y-107291035D02*
X111420890Y-107243416D01*
X111420890Y-107243416D02*
X111373271Y-107148178D01*
X111373271Y-107148178D02*
X111373271Y-106957702D01*
X111373271Y-106957702D02*
X111420890Y-106862464D01*
X111420890Y-106862464D02*
X111468509Y-106814845D01*
X111468509Y-106814845D02*
X111563747Y-106767226D01*
X347736069Y-162012464D02*
X346736069Y-162012464D01*
X346736069Y-162012464D02*
X346736069Y-162250559D01*
X346736069Y-162250559D02*
X346783688Y-162393416D01*
X346783688Y-162393416D02*
X346878926Y-162488654D01*
X346878926Y-162488654D02*
X346974164Y-162536273D01*
X346974164Y-162536273D02*
X347164640Y-162583892D01*
X347164640Y-162583892D02*
X347307497Y-162583892D01*
X347307497Y-162583892D02*
X347497973Y-162536273D01*
X347497973Y-162536273D02*
X347593211Y-162488654D01*
X347593211Y-162488654D02*
X347688450Y-162393416D01*
X347688450Y-162393416D02*
X347736069Y-162250559D01*
X347736069Y-162250559D02*
X347736069Y-162012464D01*
X346736069Y-163441035D02*
X346736069Y-163250559D01*
X346736069Y-163250559D02*
X346783688Y-163155321D01*
X346783688Y-163155321D02*
X346831307Y-163107702D01*
X346831307Y-163107702D02*
X346974164Y-163012464D01*
X346974164Y-163012464D02*
X347164640Y-162964845D01*
X347164640Y-162964845D02*
X347545592Y-162964845D01*
X347545592Y-162964845D02*
X347640830Y-163012464D01*
X347640830Y-163012464D02*
X347688450Y-163060083D01*
X347688450Y-163060083D02*
X347736069Y-163155321D01*
X347736069Y-163155321D02*
X347736069Y-163345797D01*
X347736069Y-163345797D02*
X347688450Y-163441035D01*
X347688450Y-163441035D02*
X347640830Y-163488654D01*
X347640830Y-163488654D02*
X347545592Y-163536273D01*
X347545592Y-163536273D02*
X347307497Y-163536273D01*
X347307497Y-163536273D02*
X347212259Y-163488654D01*
X347212259Y-163488654D02*
X347164640Y-163441035D01*
X347164640Y-163441035D02*
X347117021Y-163345797D01*
X347117021Y-163345797D02*
X347117021Y-163155321D01*
X347117021Y-163155321D02*
X347164640Y-163060083D01*
X347164640Y-163060083D02*
X347212259Y-163012464D01*
X347212259Y-163012464D02*
X347307497Y-162964845D01*
X347736069Y-164488654D02*
X347736069Y-163917226D01*
X347736069Y-164202940D02*
X346736069Y-164202940D01*
X346736069Y-164202940D02*
X346878926Y-164107702D01*
X346878926Y-164107702D02*
X346974164Y-164012464D01*
X346974164Y-164012464D02*
X347021783Y-163917226D01*
X159617319Y-86288655D02*
X158617319Y-86288655D01*
X158617319Y-86288655D02*
X158617319Y-86526750D01*
X158617319Y-86526750D02*
X158664938Y-86669607D01*
X158664938Y-86669607D02*
X158760176Y-86764845D01*
X158760176Y-86764845D02*
X158855414Y-86812464D01*
X158855414Y-86812464D02*
X159045890Y-86860083D01*
X159045890Y-86860083D02*
X159188747Y-86860083D01*
X159188747Y-86860083D02*
X159379223Y-86812464D01*
X159379223Y-86812464D02*
X159474461Y-86764845D01*
X159474461Y-86764845D02*
X159569700Y-86669607D01*
X159569700Y-86669607D02*
X159617319Y-86526750D01*
X159617319Y-86526750D02*
X159617319Y-86288655D01*
X158617319Y-87764845D02*
X158617319Y-87288655D01*
X158617319Y-87288655D02*
X159093509Y-87241036D01*
X159093509Y-87241036D02*
X159045890Y-87288655D01*
X159045890Y-87288655D02*
X158998271Y-87383893D01*
X158998271Y-87383893D02*
X158998271Y-87621988D01*
X158998271Y-87621988D02*
X159045890Y-87717226D01*
X159045890Y-87717226D02*
X159093509Y-87764845D01*
X159093509Y-87764845D02*
X159188747Y-87812464D01*
X159188747Y-87812464D02*
X159426842Y-87812464D01*
X159426842Y-87812464D02*
X159522080Y-87764845D01*
X159522080Y-87764845D02*
X159569700Y-87717226D01*
X159569700Y-87717226D02*
X159617319Y-87621988D01*
X159617319Y-87621988D02*
X159617319Y-87383893D01*
X159617319Y-87383893D02*
X159569700Y-87288655D01*
X159569700Y-87288655D02*
X159522080Y-87241036D01*
X185583332Y-167327200D02*
X185440475Y-167374819D01*
X185440475Y-167374819D02*
X185202380Y-167374819D01*
X185202380Y-167374819D02*
X185107142Y-167327200D01*
X185107142Y-167327200D02*
X185059523Y-167279580D01*
X185059523Y-167279580D02*
X185011904Y-167184342D01*
X185011904Y-167184342D02*
X185011904Y-167089104D01*
X185011904Y-167089104D02*
X185059523Y-166993866D01*
X185059523Y-166993866D02*
X185107142Y-166946247D01*
X185107142Y-166946247D02*
X185202380Y-166898628D01*
X185202380Y-166898628D02*
X185392856Y-166851009D01*
X185392856Y-166851009D02*
X185488094Y-166803390D01*
X185488094Y-166803390D02*
X185535713Y-166755771D01*
X185535713Y-166755771D02*
X185583332Y-166660533D01*
X185583332Y-166660533D02*
X185583332Y-166565295D01*
X185583332Y-166565295D02*
X185535713Y-166470057D01*
X185535713Y-166470057D02*
X185488094Y-166422438D01*
X185488094Y-166422438D02*
X185392856Y-166374819D01*
X185392856Y-166374819D02*
X185154761Y-166374819D01*
X185154761Y-166374819D02*
X185011904Y-166422438D01*
X184678570Y-166374819D02*
X184440475Y-167374819D01*
X184440475Y-167374819D02*
X184249999Y-166660533D01*
X184249999Y-166660533D02*
X184059523Y-167374819D01*
X184059523Y-167374819D02*
X183821428Y-166374819D01*
X183488094Y-166470057D02*
X183440475Y-166422438D01*
X183440475Y-166422438D02*
X183345237Y-166374819D01*
X183345237Y-166374819D02*
X183107142Y-166374819D01*
X183107142Y-166374819D02*
X183011904Y-166422438D01*
X183011904Y-166422438D02*
X182964285Y-166470057D01*
X182964285Y-166470057D02*
X182916666Y-166565295D01*
X182916666Y-166565295D02*
X182916666Y-166660533D01*
X182916666Y-166660533D02*
X182964285Y-166803390D01*
X182964285Y-166803390D02*
X183535713Y-167374819D01*
X183535713Y-167374819D02*
X182916666Y-167374819D01*
X76558094Y-88973819D02*
X76558094Y-87973819D01*
X76558094Y-87973819D02*
X76319999Y-87973819D01*
X76319999Y-87973819D02*
X76177142Y-88021438D01*
X76177142Y-88021438D02*
X76081904Y-88116676D01*
X76081904Y-88116676D02*
X76034285Y-88211914D01*
X76034285Y-88211914D02*
X75986666Y-88402390D01*
X75986666Y-88402390D02*
X75986666Y-88545247D01*
X75986666Y-88545247D02*
X76034285Y-88735723D01*
X76034285Y-88735723D02*
X76081904Y-88830961D01*
X76081904Y-88830961D02*
X76177142Y-88926200D01*
X76177142Y-88926200D02*
X76319999Y-88973819D01*
X76319999Y-88973819D02*
X76558094Y-88973819D01*
X75034285Y-88973819D02*
X75605713Y-88973819D01*
X75319999Y-88973819D02*
X75319999Y-87973819D01*
X75319999Y-87973819D02*
X75415237Y-88116676D01*
X75415237Y-88116676D02*
X75510475Y-88211914D01*
X75510475Y-88211914D02*
X75605713Y-88259533D01*
X307254819Y-123912464D02*
X306254819Y-123912464D01*
X306254819Y-123912464D02*
X306254819Y-124150559D01*
X306254819Y-124150559D02*
X306302438Y-124293416D01*
X306302438Y-124293416D02*
X306397676Y-124388654D01*
X306397676Y-124388654D02*
X306492914Y-124436273D01*
X306492914Y-124436273D02*
X306683390Y-124483892D01*
X306683390Y-124483892D02*
X306826247Y-124483892D01*
X306826247Y-124483892D02*
X307016723Y-124436273D01*
X307016723Y-124436273D02*
X307111961Y-124388654D01*
X307111961Y-124388654D02*
X307207200Y-124293416D01*
X307207200Y-124293416D02*
X307254819Y-124150559D01*
X307254819Y-124150559D02*
X307254819Y-123912464D01*
X306588152Y-125341035D02*
X307254819Y-125341035D01*
X306207200Y-125102940D02*
X306921485Y-124864845D01*
X306921485Y-124864845D02*
X306921485Y-125483892D01*
X306254819Y-126055321D02*
X306254819Y-126150559D01*
X306254819Y-126150559D02*
X306302438Y-126245797D01*
X306302438Y-126245797D02*
X306350057Y-126293416D01*
X306350057Y-126293416D02*
X306445295Y-126341035D01*
X306445295Y-126341035D02*
X306635771Y-126388654D01*
X306635771Y-126388654D02*
X306873866Y-126388654D01*
X306873866Y-126388654D02*
X307064342Y-126341035D01*
X307064342Y-126341035D02*
X307159580Y-126293416D01*
X307159580Y-126293416D02*
X307207200Y-126245797D01*
X307207200Y-126245797D02*
X307254819Y-126150559D01*
X307254819Y-126150559D02*
X307254819Y-126055321D01*
X307254819Y-126055321D02*
X307207200Y-125960083D01*
X307207200Y-125960083D02*
X307159580Y-125912464D01*
X307159580Y-125912464D02*
X307064342Y-125864845D01*
X307064342Y-125864845D02*
X306873866Y-125817226D01*
X306873866Y-125817226D02*
X306635771Y-125817226D01*
X306635771Y-125817226D02*
X306445295Y-125864845D01*
X306445295Y-125864845D02*
X306350057Y-125912464D01*
X306350057Y-125912464D02*
X306302438Y-125960083D01*
X306302438Y-125960083D02*
X306254819Y-126055321D01*
X85798569Y-162012464D02*
X84798569Y-162012464D01*
X84798569Y-162012464D02*
X84798569Y-162250559D01*
X84798569Y-162250559D02*
X84846188Y-162393416D01*
X84846188Y-162393416D02*
X84941426Y-162488654D01*
X84941426Y-162488654D02*
X85036664Y-162536273D01*
X85036664Y-162536273D02*
X85227140Y-162583892D01*
X85227140Y-162583892D02*
X85369997Y-162583892D01*
X85369997Y-162583892D02*
X85560473Y-162536273D01*
X85560473Y-162536273D02*
X85655711Y-162488654D01*
X85655711Y-162488654D02*
X85750950Y-162393416D01*
X85750950Y-162393416D02*
X85798569Y-162250559D01*
X85798569Y-162250559D02*
X85798569Y-162012464D01*
X84798569Y-163488654D02*
X84798569Y-163012464D01*
X84798569Y-163012464D02*
X85274759Y-162964845D01*
X85274759Y-162964845D02*
X85227140Y-163012464D01*
X85227140Y-163012464D02*
X85179521Y-163107702D01*
X85179521Y-163107702D02*
X85179521Y-163345797D01*
X85179521Y-163345797D02*
X85227140Y-163441035D01*
X85227140Y-163441035D02*
X85274759Y-163488654D01*
X85274759Y-163488654D02*
X85369997Y-163536273D01*
X85369997Y-163536273D02*
X85608092Y-163536273D01*
X85608092Y-163536273D02*
X85703330Y-163488654D01*
X85703330Y-163488654D02*
X85750950Y-163441035D01*
X85750950Y-163441035D02*
X85798569Y-163345797D01*
X85798569Y-163345797D02*
X85798569Y-163107702D01*
X85798569Y-163107702D02*
X85750950Y-163012464D01*
X85750950Y-163012464D02*
X85703330Y-162964845D01*
X85131902Y-164393416D02*
X85798569Y-164393416D01*
X84750950Y-164155321D02*
X85465235Y-163917226D01*
X85465235Y-163917226D02*
X85465235Y-164536273D01*
X83291904Y-85124819D02*
X83291904Y-85934342D01*
X83291904Y-85934342D02*
X83244285Y-86029580D01*
X83244285Y-86029580D02*
X83196666Y-86077200D01*
X83196666Y-86077200D02*
X83101428Y-86124819D01*
X83101428Y-86124819D02*
X82910952Y-86124819D01*
X82910952Y-86124819D02*
X82815714Y-86077200D01*
X82815714Y-86077200D02*
X82768095Y-86029580D01*
X82768095Y-86029580D02*
X82720476Y-85934342D01*
X82720476Y-85934342D02*
X82720476Y-85124819D01*
X81720476Y-86124819D02*
X82291904Y-86124819D01*
X82006190Y-86124819D02*
X82006190Y-85124819D01*
X82006190Y-85124819D02*
X82101428Y-85267676D01*
X82101428Y-85267676D02*
X82196666Y-85362914D01*
X82196666Y-85362914D02*
X82291904Y-85410533D01*
X338211069Y-123912464D02*
X337211069Y-123912464D01*
X337211069Y-123912464D02*
X337211069Y-124150559D01*
X337211069Y-124150559D02*
X337258688Y-124293416D01*
X337258688Y-124293416D02*
X337353926Y-124388654D01*
X337353926Y-124388654D02*
X337449164Y-124436273D01*
X337449164Y-124436273D02*
X337639640Y-124483892D01*
X337639640Y-124483892D02*
X337782497Y-124483892D01*
X337782497Y-124483892D02*
X337972973Y-124436273D01*
X337972973Y-124436273D02*
X338068211Y-124388654D01*
X338068211Y-124388654D02*
X338163450Y-124293416D01*
X338163450Y-124293416D02*
X338211069Y-124150559D01*
X338211069Y-124150559D02*
X338211069Y-123912464D01*
X337544402Y-125341035D02*
X338211069Y-125341035D01*
X337163450Y-125102940D02*
X337877735Y-124864845D01*
X337877735Y-124864845D02*
X337877735Y-125483892D01*
X338211069Y-126388654D02*
X338211069Y-125817226D01*
X338211069Y-126102940D02*
X337211069Y-126102940D01*
X337211069Y-126102940D02*
X337353926Y-126007702D01*
X337353926Y-126007702D02*
X337449164Y-125912464D01*
X337449164Y-125912464D02*
X337496783Y-125817226D01*
X116754819Y-123912464D02*
X115754819Y-123912464D01*
X115754819Y-123912464D02*
X115754819Y-124150559D01*
X115754819Y-124150559D02*
X115802438Y-124293416D01*
X115802438Y-124293416D02*
X115897676Y-124388654D01*
X115897676Y-124388654D02*
X115992914Y-124436273D01*
X115992914Y-124436273D02*
X116183390Y-124483892D01*
X116183390Y-124483892D02*
X116326247Y-124483892D01*
X116326247Y-124483892D02*
X116516723Y-124436273D01*
X116516723Y-124436273D02*
X116611961Y-124388654D01*
X116611961Y-124388654D02*
X116707200Y-124293416D01*
X116707200Y-124293416D02*
X116754819Y-124150559D01*
X116754819Y-124150559D02*
X116754819Y-123912464D01*
X115754819Y-124817226D02*
X115754819Y-125436273D01*
X115754819Y-125436273D02*
X116135771Y-125102940D01*
X116135771Y-125102940D02*
X116135771Y-125245797D01*
X116135771Y-125245797D02*
X116183390Y-125341035D01*
X116183390Y-125341035D02*
X116231009Y-125388654D01*
X116231009Y-125388654D02*
X116326247Y-125436273D01*
X116326247Y-125436273D02*
X116564342Y-125436273D01*
X116564342Y-125436273D02*
X116659580Y-125388654D01*
X116659580Y-125388654D02*
X116707200Y-125341035D01*
X116707200Y-125341035D02*
X116754819Y-125245797D01*
X116754819Y-125245797D02*
X116754819Y-124960083D01*
X116754819Y-124960083D02*
X116707200Y-124864845D01*
X116707200Y-124864845D02*
X116659580Y-124817226D01*
X115754819Y-126055321D02*
X115754819Y-126150559D01*
X115754819Y-126150559D02*
X115802438Y-126245797D01*
X115802438Y-126245797D02*
X115850057Y-126293416D01*
X115850057Y-126293416D02*
X115945295Y-126341035D01*
X115945295Y-126341035D02*
X116135771Y-126388654D01*
X116135771Y-126388654D02*
X116373866Y-126388654D01*
X116373866Y-126388654D02*
X116564342Y-126341035D01*
X116564342Y-126341035D02*
X116659580Y-126293416D01*
X116659580Y-126293416D02*
X116707200Y-126245797D01*
X116707200Y-126245797D02*
X116754819Y-126150559D01*
X116754819Y-126150559D02*
X116754819Y-126055321D01*
X116754819Y-126055321D02*
X116707200Y-125960083D01*
X116707200Y-125960083D02*
X116659580Y-125912464D01*
X116659580Y-125912464D02*
X116564342Y-125864845D01*
X116564342Y-125864845D02*
X116373866Y-125817226D01*
X116373866Y-125817226D02*
X116135771Y-125817226D01*
X116135771Y-125817226D02*
X115945295Y-125864845D01*
X115945295Y-125864845D02*
X115850057Y-125912464D01*
X115850057Y-125912464D02*
X115802438Y-125960083D01*
X115802438Y-125960083D02*
X115754819Y-126055321D01*
X302492319Y-104862464D02*
X301492319Y-104862464D01*
X301492319Y-104862464D02*
X301492319Y-105100559D01*
X301492319Y-105100559D02*
X301539938Y-105243416D01*
X301539938Y-105243416D02*
X301635176Y-105338654D01*
X301635176Y-105338654D02*
X301730414Y-105386273D01*
X301730414Y-105386273D02*
X301920890Y-105433892D01*
X301920890Y-105433892D02*
X302063747Y-105433892D01*
X302063747Y-105433892D02*
X302254223Y-105386273D01*
X302254223Y-105386273D02*
X302349461Y-105338654D01*
X302349461Y-105338654D02*
X302444700Y-105243416D01*
X302444700Y-105243416D02*
X302492319Y-105100559D01*
X302492319Y-105100559D02*
X302492319Y-104862464D01*
X301587557Y-105814845D02*
X301539938Y-105862464D01*
X301539938Y-105862464D02*
X301492319Y-105957702D01*
X301492319Y-105957702D02*
X301492319Y-106195797D01*
X301492319Y-106195797D02*
X301539938Y-106291035D01*
X301539938Y-106291035D02*
X301587557Y-106338654D01*
X301587557Y-106338654D02*
X301682795Y-106386273D01*
X301682795Y-106386273D02*
X301778033Y-106386273D01*
X301778033Y-106386273D02*
X301920890Y-106338654D01*
X301920890Y-106338654D02*
X302492319Y-105767226D01*
X302492319Y-105767226D02*
X302492319Y-106386273D01*
X301492319Y-107243416D02*
X301492319Y-107052940D01*
X301492319Y-107052940D02*
X301539938Y-106957702D01*
X301539938Y-106957702D02*
X301587557Y-106910083D01*
X301587557Y-106910083D02*
X301730414Y-106814845D01*
X301730414Y-106814845D02*
X301920890Y-106767226D01*
X301920890Y-106767226D02*
X302301842Y-106767226D01*
X302301842Y-106767226D02*
X302397080Y-106814845D01*
X302397080Y-106814845D02*
X302444700Y-106862464D01*
X302444700Y-106862464D02*
X302492319Y-106957702D01*
X302492319Y-106957702D02*
X302492319Y-107148178D01*
X302492319Y-107148178D02*
X302444700Y-107243416D01*
X302444700Y-107243416D02*
X302397080Y-107291035D01*
X302397080Y-107291035D02*
X302301842Y-107338654D01*
X302301842Y-107338654D02*
X302063747Y-107338654D01*
X302063747Y-107338654D02*
X301968509Y-107291035D01*
X301968509Y-107291035D02*
X301920890Y-107243416D01*
X301920890Y-107243416D02*
X301873271Y-107148178D01*
X301873271Y-107148178D02*
X301873271Y-106957702D01*
X301873271Y-106957702D02*
X301920890Y-106862464D01*
X301920890Y-106862464D02*
X301968509Y-106814845D01*
X301968509Y-106814845D02*
X302063747Y-106767226D01*
X150092319Y-104862464D02*
X149092319Y-104862464D01*
X149092319Y-104862464D02*
X149092319Y-105100559D01*
X149092319Y-105100559D02*
X149139938Y-105243416D01*
X149139938Y-105243416D02*
X149235176Y-105338654D01*
X149235176Y-105338654D02*
X149330414Y-105386273D01*
X149330414Y-105386273D02*
X149520890Y-105433892D01*
X149520890Y-105433892D02*
X149663747Y-105433892D01*
X149663747Y-105433892D02*
X149854223Y-105386273D01*
X149854223Y-105386273D02*
X149949461Y-105338654D01*
X149949461Y-105338654D02*
X150044700Y-105243416D01*
X150044700Y-105243416D02*
X150092319Y-105100559D01*
X150092319Y-105100559D02*
X150092319Y-104862464D01*
X150092319Y-106386273D02*
X150092319Y-105814845D01*
X150092319Y-106100559D02*
X149092319Y-106100559D01*
X149092319Y-106100559D02*
X149235176Y-106005321D01*
X149235176Y-106005321D02*
X149330414Y-105910083D01*
X149330414Y-105910083D02*
X149378033Y-105814845D01*
X149520890Y-106957702D02*
X149473271Y-106862464D01*
X149473271Y-106862464D02*
X149425652Y-106814845D01*
X149425652Y-106814845D02*
X149330414Y-106767226D01*
X149330414Y-106767226D02*
X149282795Y-106767226D01*
X149282795Y-106767226D02*
X149187557Y-106814845D01*
X149187557Y-106814845D02*
X149139938Y-106862464D01*
X149139938Y-106862464D02*
X149092319Y-106957702D01*
X149092319Y-106957702D02*
X149092319Y-107148178D01*
X149092319Y-107148178D02*
X149139938Y-107243416D01*
X149139938Y-107243416D02*
X149187557Y-107291035D01*
X149187557Y-107291035D02*
X149282795Y-107338654D01*
X149282795Y-107338654D02*
X149330414Y-107338654D01*
X149330414Y-107338654D02*
X149425652Y-107291035D01*
X149425652Y-107291035D02*
X149473271Y-107243416D01*
X149473271Y-107243416D02*
X149520890Y-107148178D01*
X149520890Y-107148178D02*
X149520890Y-106957702D01*
X149520890Y-106957702D02*
X149568509Y-106862464D01*
X149568509Y-106862464D02*
X149616128Y-106814845D01*
X149616128Y-106814845D02*
X149711366Y-106767226D01*
X149711366Y-106767226D02*
X149901842Y-106767226D01*
X149901842Y-106767226D02*
X149997080Y-106814845D01*
X149997080Y-106814845D02*
X150044700Y-106862464D01*
X150044700Y-106862464D02*
X150092319Y-106957702D01*
X150092319Y-106957702D02*
X150092319Y-107148178D01*
X150092319Y-107148178D02*
X150044700Y-107243416D01*
X150044700Y-107243416D02*
X149997080Y-107291035D01*
X149997080Y-107291035D02*
X149901842Y-107338654D01*
X149901842Y-107338654D02*
X149711366Y-107338654D01*
X149711366Y-107338654D02*
X149616128Y-107291035D01*
X149616128Y-107291035D02*
X149568509Y-107243416D01*
X149568509Y-107243416D02*
X149520890Y-107148178D01*
X91423333Y-85321009D02*
X91756666Y-85321009D01*
X91756666Y-85844819D02*
X91756666Y-84844819D01*
X91756666Y-84844819D02*
X91280476Y-84844819D01*
X90375714Y-85844819D02*
X90947142Y-85844819D01*
X90661428Y-85844819D02*
X90661428Y-84844819D01*
X90661428Y-84844819D02*
X90756666Y-84987676D01*
X90756666Y-84987676D02*
X90851904Y-85082914D01*
X90851904Y-85082914D02*
X90947142Y-85130533D01*
X96686666Y-90956080D02*
X96734285Y-91003700D01*
X96734285Y-91003700D02*
X96877142Y-91051319D01*
X96877142Y-91051319D02*
X96972380Y-91051319D01*
X96972380Y-91051319D02*
X97115237Y-91003700D01*
X97115237Y-91003700D02*
X97210475Y-90908461D01*
X97210475Y-90908461D02*
X97258094Y-90813223D01*
X97258094Y-90813223D02*
X97305713Y-90622747D01*
X97305713Y-90622747D02*
X97305713Y-90479890D01*
X97305713Y-90479890D02*
X97258094Y-90289414D01*
X97258094Y-90289414D02*
X97210475Y-90194176D01*
X97210475Y-90194176D02*
X97115237Y-90098938D01*
X97115237Y-90098938D02*
X96972380Y-90051319D01*
X96972380Y-90051319D02*
X96877142Y-90051319D01*
X96877142Y-90051319D02*
X96734285Y-90098938D01*
X96734285Y-90098938D02*
X96686666Y-90146557D01*
X96115237Y-90479890D02*
X96210475Y-90432271D01*
X96210475Y-90432271D02*
X96258094Y-90384652D01*
X96258094Y-90384652D02*
X96305713Y-90289414D01*
X96305713Y-90289414D02*
X96305713Y-90241795D01*
X96305713Y-90241795D02*
X96258094Y-90146557D01*
X96258094Y-90146557D02*
X96210475Y-90098938D01*
X96210475Y-90098938D02*
X96115237Y-90051319D01*
X96115237Y-90051319D02*
X95924761Y-90051319D01*
X95924761Y-90051319D02*
X95829523Y-90098938D01*
X95829523Y-90098938D02*
X95781904Y-90146557D01*
X95781904Y-90146557D02*
X95734285Y-90241795D01*
X95734285Y-90241795D02*
X95734285Y-90289414D01*
X95734285Y-90289414D02*
X95781904Y-90384652D01*
X95781904Y-90384652D02*
X95829523Y-90432271D01*
X95829523Y-90432271D02*
X95924761Y-90479890D01*
X95924761Y-90479890D02*
X96115237Y-90479890D01*
X96115237Y-90479890D02*
X96210475Y-90527509D01*
X96210475Y-90527509D02*
X96258094Y-90575128D01*
X96258094Y-90575128D02*
X96305713Y-90670366D01*
X96305713Y-90670366D02*
X96305713Y-90860842D01*
X96305713Y-90860842D02*
X96258094Y-90956080D01*
X96258094Y-90956080D02*
X96210475Y-91003700D01*
X96210475Y-91003700D02*
X96115237Y-91051319D01*
X96115237Y-91051319D02*
X95924761Y-91051319D01*
X95924761Y-91051319D02*
X95829523Y-91003700D01*
X95829523Y-91003700D02*
X95781904Y-90956080D01*
X95781904Y-90956080D02*
X95734285Y-90860842D01*
X95734285Y-90860842D02*
X95734285Y-90670366D01*
X95734285Y-90670366D02*
X95781904Y-90575128D01*
X95781904Y-90575128D02*
X95829523Y-90527509D01*
X95829523Y-90527509D02*
X95924761Y-90479890D01*
X259629819Y-142962464D02*
X258629819Y-142962464D01*
X258629819Y-142962464D02*
X258629819Y-143200559D01*
X258629819Y-143200559D02*
X258677438Y-143343416D01*
X258677438Y-143343416D02*
X258772676Y-143438654D01*
X258772676Y-143438654D02*
X258867914Y-143486273D01*
X258867914Y-143486273D02*
X259058390Y-143533892D01*
X259058390Y-143533892D02*
X259201247Y-143533892D01*
X259201247Y-143533892D02*
X259391723Y-143486273D01*
X259391723Y-143486273D02*
X259486961Y-143438654D01*
X259486961Y-143438654D02*
X259582200Y-143343416D01*
X259582200Y-143343416D02*
X259629819Y-143200559D01*
X259629819Y-143200559D02*
X259629819Y-142962464D01*
X258629819Y-144438654D02*
X258629819Y-143962464D01*
X258629819Y-143962464D02*
X259106009Y-143914845D01*
X259106009Y-143914845D02*
X259058390Y-143962464D01*
X259058390Y-143962464D02*
X259010771Y-144057702D01*
X259010771Y-144057702D02*
X259010771Y-144295797D01*
X259010771Y-144295797D02*
X259058390Y-144391035D01*
X259058390Y-144391035D02*
X259106009Y-144438654D01*
X259106009Y-144438654D02*
X259201247Y-144486273D01*
X259201247Y-144486273D02*
X259439342Y-144486273D01*
X259439342Y-144486273D02*
X259534580Y-144438654D01*
X259534580Y-144438654D02*
X259582200Y-144391035D01*
X259582200Y-144391035D02*
X259629819Y-144295797D01*
X259629819Y-144295797D02*
X259629819Y-144057702D01*
X259629819Y-144057702D02*
X259582200Y-143962464D01*
X259582200Y-143962464D02*
X259534580Y-143914845D01*
X258629819Y-145105321D02*
X258629819Y-145200559D01*
X258629819Y-145200559D02*
X258677438Y-145295797D01*
X258677438Y-145295797D02*
X258725057Y-145343416D01*
X258725057Y-145343416D02*
X258820295Y-145391035D01*
X258820295Y-145391035D02*
X259010771Y-145438654D01*
X259010771Y-145438654D02*
X259248866Y-145438654D01*
X259248866Y-145438654D02*
X259439342Y-145391035D01*
X259439342Y-145391035D02*
X259534580Y-145343416D01*
X259534580Y-145343416D02*
X259582200Y-145295797D01*
X259582200Y-145295797D02*
X259629819Y-145200559D01*
X259629819Y-145200559D02*
X259629819Y-145105321D01*
X259629819Y-145105321D02*
X259582200Y-145010083D01*
X259582200Y-145010083D02*
X259534580Y-144962464D01*
X259534580Y-144962464D02*
X259439342Y-144914845D01*
X259439342Y-144914845D02*
X259248866Y-144867226D01*
X259248866Y-144867226D02*
X259010771Y-144867226D01*
X259010771Y-144867226D02*
X258820295Y-144914845D01*
X258820295Y-144914845D02*
X258725057Y-144962464D01*
X258725057Y-144962464D02*
X258677438Y-145010083D01*
X258677438Y-145010083D02*
X258629819Y-145105321D01*
X121517319Y-86288655D02*
X120517319Y-86288655D01*
X120517319Y-86288655D02*
X120517319Y-86526750D01*
X120517319Y-86526750D02*
X120564938Y-86669607D01*
X120564938Y-86669607D02*
X120660176Y-86764845D01*
X120660176Y-86764845D02*
X120755414Y-86812464D01*
X120755414Y-86812464D02*
X120945890Y-86860083D01*
X120945890Y-86860083D02*
X121088747Y-86860083D01*
X121088747Y-86860083D02*
X121279223Y-86812464D01*
X121279223Y-86812464D02*
X121374461Y-86764845D01*
X121374461Y-86764845D02*
X121469700Y-86669607D01*
X121469700Y-86669607D02*
X121517319Y-86526750D01*
X121517319Y-86526750D02*
X121517319Y-86288655D01*
X120517319Y-87193417D02*
X120517319Y-87812464D01*
X120517319Y-87812464D02*
X120898271Y-87479131D01*
X120898271Y-87479131D02*
X120898271Y-87621988D01*
X120898271Y-87621988D02*
X120945890Y-87717226D01*
X120945890Y-87717226D02*
X120993509Y-87764845D01*
X120993509Y-87764845D02*
X121088747Y-87812464D01*
X121088747Y-87812464D02*
X121326842Y-87812464D01*
X121326842Y-87812464D02*
X121422080Y-87764845D01*
X121422080Y-87764845D02*
X121469700Y-87717226D01*
X121469700Y-87717226D02*
X121517319Y-87621988D01*
X121517319Y-87621988D02*
X121517319Y-87336274D01*
X121517319Y-87336274D02*
X121469700Y-87241036D01*
X121469700Y-87241036D02*
X121422080Y-87193417D01*
X240579819Y-142962464D02*
X239579819Y-142962464D01*
X239579819Y-142962464D02*
X239579819Y-143200559D01*
X239579819Y-143200559D02*
X239627438Y-143343416D01*
X239627438Y-143343416D02*
X239722676Y-143438654D01*
X239722676Y-143438654D02*
X239817914Y-143486273D01*
X239817914Y-143486273D02*
X240008390Y-143533892D01*
X240008390Y-143533892D02*
X240151247Y-143533892D01*
X240151247Y-143533892D02*
X240341723Y-143486273D01*
X240341723Y-143486273D02*
X240436961Y-143438654D01*
X240436961Y-143438654D02*
X240532200Y-143343416D01*
X240532200Y-143343416D02*
X240579819Y-143200559D01*
X240579819Y-143200559D02*
X240579819Y-142962464D01*
X239913152Y-144391035D02*
X240579819Y-144391035D01*
X239532200Y-144152940D02*
X240246485Y-143914845D01*
X240246485Y-143914845D02*
X240246485Y-144533892D01*
X240579819Y-144962464D02*
X240579819Y-145152940D01*
X240579819Y-145152940D02*
X240532200Y-145248178D01*
X240532200Y-145248178D02*
X240484580Y-145295797D01*
X240484580Y-145295797D02*
X240341723Y-145391035D01*
X240341723Y-145391035D02*
X240151247Y-145438654D01*
X240151247Y-145438654D02*
X239770295Y-145438654D01*
X239770295Y-145438654D02*
X239675057Y-145391035D01*
X239675057Y-145391035D02*
X239627438Y-145343416D01*
X239627438Y-145343416D02*
X239579819Y-145248178D01*
X239579819Y-145248178D02*
X239579819Y-145057702D01*
X239579819Y-145057702D02*
X239627438Y-144962464D01*
X239627438Y-144962464D02*
X239675057Y-144914845D01*
X239675057Y-144914845D02*
X239770295Y-144867226D01*
X239770295Y-144867226D02*
X240008390Y-144867226D01*
X240008390Y-144867226D02*
X240103628Y-144914845D01*
X240103628Y-144914845D02*
X240151247Y-144962464D01*
X240151247Y-144962464D02*
X240198866Y-145057702D01*
X240198866Y-145057702D02*
X240198866Y-145248178D01*
X240198866Y-145248178D02*
X240151247Y-145343416D01*
X240151247Y-145343416D02*
X240103628Y-145391035D01*
X240103628Y-145391035D02*
X240008390Y-145438654D01*
X250104819Y-123912464D02*
X249104819Y-123912464D01*
X249104819Y-123912464D02*
X249104819Y-124150559D01*
X249104819Y-124150559D02*
X249152438Y-124293416D01*
X249152438Y-124293416D02*
X249247676Y-124388654D01*
X249247676Y-124388654D02*
X249342914Y-124436273D01*
X249342914Y-124436273D02*
X249533390Y-124483892D01*
X249533390Y-124483892D02*
X249676247Y-124483892D01*
X249676247Y-124483892D02*
X249866723Y-124436273D01*
X249866723Y-124436273D02*
X249961961Y-124388654D01*
X249961961Y-124388654D02*
X250057200Y-124293416D01*
X250057200Y-124293416D02*
X250104819Y-124150559D01*
X250104819Y-124150559D02*
X250104819Y-123912464D01*
X249104819Y-124817226D02*
X249104819Y-125436273D01*
X249104819Y-125436273D02*
X249485771Y-125102940D01*
X249485771Y-125102940D02*
X249485771Y-125245797D01*
X249485771Y-125245797D02*
X249533390Y-125341035D01*
X249533390Y-125341035D02*
X249581009Y-125388654D01*
X249581009Y-125388654D02*
X249676247Y-125436273D01*
X249676247Y-125436273D02*
X249914342Y-125436273D01*
X249914342Y-125436273D02*
X250009580Y-125388654D01*
X250009580Y-125388654D02*
X250057200Y-125341035D01*
X250057200Y-125341035D02*
X250104819Y-125245797D01*
X250104819Y-125245797D02*
X250104819Y-124960083D01*
X250104819Y-124960083D02*
X250057200Y-124864845D01*
X250057200Y-124864845D02*
X250009580Y-124817226D01*
X249104819Y-125769607D02*
X249104819Y-126436273D01*
X249104819Y-126436273D02*
X250104819Y-126007702D01*
X192954819Y-123912464D02*
X191954819Y-123912464D01*
X191954819Y-123912464D02*
X191954819Y-124150559D01*
X191954819Y-124150559D02*
X192002438Y-124293416D01*
X192002438Y-124293416D02*
X192097676Y-124388654D01*
X192097676Y-124388654D02*
X192192914Y-124436273D01*
X192192914Y-124436273D02*
X192383390Y-124483892D01*
X192383390Y-124483892D02*
X192526247Y-124483892D01*
X192526247Y-124483892D02*
X192716723Y-124436273D01*
X192716723Y-124436273D02*
X192811961Y-124388654D01*
X192811961Y-124388654D02*
X192907200Y-124293416D01*
X192907200Y-124293416D02*
X192954819Y-124150559D01*
X192954819Y-124150559D02*
X192954819Y-123912464D01*
X191954819Y-124817226D02*
X191954819Y-125436273D01*
X191954819Y-125436273D02*
X192335771Y-125102940D01*
X192335771Y-125102940D02*
X192335771Y-125245797D01*
X192335771Y-125245797D02*
X192383390Y-125341035D01*
X192383390Y-125341035D02*
X192431009Y-125388654D01*
X192431009Y-125388654D02*
X192526247Y-125436273D01*
X192526247Y-125436273D02*
X192764342Y-125436273D01*
X192764342Y-125436273D02*
X192859580Y-125388654D01*
X192859580Y-125388654D02*
X192907200Y-125341035D01*
X192907200Y-125341035D02*
X192954819Y-125245797D01*
X192954819Y-125245797D02*
X192954819Y-124960083D01*
X192954819Y-124960083D02*
X192907200Y-124864845D01*
X192907200Y-124864845D02*
X192859580Y-124817226D01*
X192288152Y-126293416D02*
X192954819Y-126293416D01*
X191907200Y-126055321D02*
X192621485Y-125817226D01*
X192621485Y-125817226D02*
X192621485Y-126436273D01*
X131042319Y-104924964D02*
X130042319Y-104924964D01*
X130042319Y-104924964D02*
X130042319Y-105163059D01*
X130042319Y-105163059D02*
X130089938Y-105305916D01*
X130089938Y-105305916D02*
X130185176Y-105401154D01*
X130185176Y-105401154D02*
X130280414Y-105448773D01*
X130280414Y-105448773D02*
X130470890Y-105496392D01*
X130470890Y-105496392D02*
X130613747Y-105496392D01*
X130613747Y-105496392D02*
X130804223Y-105448773D01*
X130804223Y-105448773D02*
X130899461Y-105401154D01*
X130899461Y-105401154D02*
X130994700Y-105305916D01*
X130994700Y-105305916D02*
X131042319Y-105163059D01*
X131042319Y-105163059D02*
X131042319Y-104924964D01*
X131042319Y-106448773D02*
X131042319Y-105877345D01*
X131042319Y-106163059D02*
X130042319Y-106163059D01*
X130042319Y-106163059D02*
X130185176Y-106067821D01*
X130185176Y-106067821D02*
X130280414Y-105972583D01*
X130280414Y-105972583D02*
X130328033Y-105877345D01*
X130042319Y-106782107D02*
X130042319Y-107448773D01*
X130042319Y-107448773D02*
X131042319Y-107020202D01*
X254867319Y-85812464D02*
X253867319Y-85812464D01*
X253867319Y-85812464D02*
X253867319Y-86050559D01*
X253867319Y-86050559D02*
X253914938Y-86193416D01*
X253914938Y-86193416D02*
X254010176Y-86288654D01*
X254010176Y-86288654D02*
X254105414Y-86336273D01*
X254105414Y-86336273D02*
X254295890Y-86383892D01*
X254295890Y-86383892D02*
X254438747Y-86383892D01*
X254438747Y-86383892D02*
X254629223Y-86336273D01*
X254629223Y-86336273D02*
X254724461Y-86288654D01*
X254724461Y-86288654D02*
X254819700Y-86193416D01*
X254819700Y-86193416D02*
X254867319Y-86050559D01*
X254867319Y-86050559D02*
X254867319Y-85812464D01*
X254867319Y-87336273D02*
X254867319Y-86764845D01*
X254867319Y-87050559D02*
X253867319Y-87050559D01*
X253867319Y-87050559D02*
X254010176Y-86955321D01*
X254010176Y-86955321D02*
X254105414Y-86860083D01*
X254105414Y-86860083D02*
X254153033Y-86764845D01*
X253867319Y-87955321D02*
X253867319Y-88050559D01*
X253867319Y-88050559D02*
X253914938Y-88145797D01*
X253914938Y-88145797D02*
X253962557Y-88193416D01*
X253962557Y-88193416D02*
X254057795Y-88241035D01*
X254057795Y-88241035D02*
X254248271Y-88288654D01*
X254248271Y-88288654D02*
X254486366Y-88288654D01*
X254486366Y-88288654D02*
X254676842Y-88241035D01*
X254676842Y-88241035D02*
X254772080Y-88193416D01*
X254772080Y-88193416D02*
X254819700Y-88145797D01*
X254819700Y-88145797D02*
X254867319Y-88050559D01*
X254867319Y-88050559D02*
X254867319Y-87955321D01*
X254867319Y-87955321D02*
X254819700Y-87860083D01*
X254819700Y-87860083D02*
X254772080Y-87812464D01*
X254772080Y-87812464D02*
X254676842Y-87764845D01*
X254676842Y-87764845D02*
X254486366Y-87717226D01*
X254486366Y-87717226D02*
X254248271Y-87717226D01*
X254248271Y-87717226D02*
X254057795Y-87764845D01*
X254057795Y-87764845D02*
X253962557Y-87812464D01*
X253962557Y-87812464D02*
X253914938Y-87860083D01*
X253914938Y-87860083D02*
X253867319Y-87955321D01*
X188192319Y-104862464D02*
X187192319Y-104862464D01*
X187192319Y-104862464D02*
X187192319Y-105100559D01*
X187192319Y-105100559D02*
X187239938Y-105243416D01*
X187239938Y-105243416D02*
X187335176Y-105338654D01*
X187335176Y-105338654D02*
X187430414Y-105386273D01*
X187430414Y-105386273D02*
X187620890Y-105433892D01*
X187620890Y-105433892D02*
X187763747Y-105433892D01*
X187763747Y-105433892D02*
X187954223Y-105386273D01*
X187954223Y-105386273D02*
X188049461Y-105338654D01*
X188049461Y-105338654D02*
X188144700Y-105243416D01*
X188144700Y-105243416D02*
X188192319Y-105100559D01*
X188192319Y-105100559D02*
X188192319Y-104862464D01*
X187287557Y-105814845D02*
X187239938Y-105862464D01*
X187239938Y-105862464D02*
X187192319Y-105957702D01*
X187192319Y-105957702D02*
X187192319Y-106195797D01*
X187192319Y-106195797D02*
X187239938Y-106291035D01*
X187239938Y-106291035D02*
X187287557Y-106338654D01*
X187287557Y-106338654D02*
X187382795Y-106386273D01*
X187382795Y-106386273D02*
X187478033Y-106386273D01*
X187478033Y-106386273D02*
X187620890Y-106338654D01*
X187620890Y-106338654D02*
X188192319Y-105767226D01*
X188192319Y-105767226D02*
X188192319Y-106386273D01*
X187192319Y-107005321D02*
X187192319Y-107100559D01*
X187192319Y-107100559D02*
X187239938Y-107195797D01*
X187239938Y-107195797D02*
X187287557Y-107243416D01*
X187287557Y-107243416D02*
X187382795Y-107291035D01*
X187382795Y-107291035D02*
X187573271Y-107338654D01*
X187573271Y-107338654D02*
X187811366Y-107338654D01*
X187811366Y-107338654D02*
X188001842Y-107291035D01*
X188001842Y-107291035D02*
X188097080Y-107243416D01*
X188097080Y-107243416D02*
X188144700Y-107195797D01*
X188144700Y-107195797D02*
X188192319Y-107100559D01*
X188192319Y-107100559D02*
X188192319Y-107005321D01*
X188192319Y-107005321D02*
X188144700Y-106910083D01*
X188144700Y-106910083D02*
X188097080Y-106862464D01*
X188097080Y-106862464D02*
X188001842Y-106814845D01*
X188001842Y-106814845D02*
X187811366Y-106767226D01*
X187811366Y-106767226D02*
X187573271Y-106767226D01*
X187573271Y-106767226D02*
X187382795Y-106814845D01*
X187382795Y-106814845D02*
X187287557Y-106862464D01*
X187287557Y-106862464D02*
X187239938Y-106910083D01*
X187239938Y-106910083D02*
X187192319Y-107005321D01*
X273917319Y-85812464D02*
X272917319Y-85812464D01*
X272917319Y-85812464D02*
X272917319Y-86050559D01*
X272917319Y-86050559D02*
X272964938Y-86193416D01*
X272964938Y-86193416D02*
X273060176Y-86288654D01*
X273060176Y-86288654D02*
X273155414Y-86336273D01*
X273155414Y-86336273D02*
X273345890Y-86383892D01*
X273345890Y-86383892D02*
X273488747Y-86383892D01*
X273488747Y-86383892D02*
X273679223Y-86336273D01*
X273679223Y-86336273D02*
X273774461Y-86288654D01*
X273774461Y-86288654D02*
X273869700Y-86193416D01*
X273869700Y-86193416D02*
X273917319Y-86050559D01*
X273917319Y-86050559D02*
X273917319Y-85812464D01*
X273917319Y-87336273D02*
X273917319Y-86764845D01*
X273917319Y-87050559D02*
X272917319Y-87050559D01*
X272917319Y-87050559D02*
X273060176Y-86955321D01*
X273060176Y-86955321D02*
X273155414Y-86860083D01*
X273155414Y-86860083D02*
X273203033Y-86764845D01*
X273917319Y-88288654D02*
X273917319Y-87717226D01*
X273917319Y-88002940D02*
X272917319Y-88002940D01*
X272917319Y-88002940D02*
X273060176Y-87907702D01*
X273060176Y-87907702D02*
X273155414Y-87812464D01*
X273155414Y-87812464D02*
X273203033Y-87717226D01*
X231054819Y-123912464D02*
X230054819Y-123912464D01*
X230054819Y-123912464D02*
X230054819Y-124150559D01*
X230054819Y-124150559D02*
X230102438Y-124293416D01*
X230102438Y-124293416D02*
X230197676Y-124388654D01*
X230197676Y-124388654D02*
X230292914Y-124436273D01*
X230292914Y-124436273D02*
X230483390Y-124483892D01*
X230483390Y-124483892D02*
X230626247Y-124483892D01*
X230626247Y-124483892D02*
X230816723Y-124436273D01*
X230816723Y-124436273D02*
X230911961Y-124388654D01*
X230911961Y-124388654D02*
X231007200Y-124293416D01*
X231007200Y-124293416D02*
X231054819Y-124150559D01*
X231054819Y-124150559D02*
X231054819Y-123912464D01*
X230054819Y-124817226D02*
X230054819Y-125436273D01*
X230054819Y-125436273D02*
X230435771Y-125102940D01*
X230435771Y-125102940D02*
X230435771Y-125245797D01*
X230435771Y-125245797D02*
X230483390Y-125341035D01*
X230483390Y-125341035D02*
X230531009Y-125388654D01*
X230531009Y-125388654D02*
X230626247Y-125436273D01*
X230626247Y-125436273D02*
X230864342Y-125436273D01*
X230864342Y-125436273D02*
X230959580Y-125388654D01*
X230959580Y-125388654D02*
X231007200Y-125341035D01*
X231007200Y-125341035D02*
X231054819Y-125245797D01*
X231054819Y-125245797D02*
X231054819Y-124960083D01*
X231054819Y-124960083D02*
X231007200Y-124864845D01*
X231007200Y-124864845D02*
X230959580Y-124817226D01*
X230054819Y-126293416D02*
X230054819Y-126102940D01*
X230054819Y-126102940D02*
X230102438Y-126007702D01*
X230102438Y-126007702D02*
X230150057Y-125960083D01*
X230150057Y-125960083D02*
X230292914Y-125864845D01*
X230292914Y-125864845D02*
X230483390Y-125817226D01*
X230483390Y-125817226D02*
X230864342Y-125817226D01*
X230864342Y-125817226D02*
X230959580Y-125864845D01*
X230959580Y-125864845D02*
X231007200Y-125912464D01*
X231007200Y-125912464D02*
X231054819Y-126007702D01*
X231054819Y-126007702D02*
X231054819Y-126198178D01*
X231054819Y-126198178D02*
X231007200Y-126293416D01*
X231007200Y-126293416D02*
X230959580Y-126341035D01*
X230959580Y-126341035D02*
X230864342Y-126388654D01*
X230864342Y-126388654D02*
X230626247Y-126388654D01*
X230626247Y-126388654D02*
X230531009Y-126341035D01*
X230531009Y-126341035D02*
X230483390Y-126293416D01*
X230483390Y-126293416D02*
X230435771Y-126198178D01*
X230435771Y-126198178D02*
X230435771Y-126007702D01*
X230435771Y-126007702D02*
X230483390Y-125912464D01*
X230483390Y-125912464D02*
X230531009Y-125864845D01*
X230531009Y-125864845D02*
X230626247Y-125817226D01*
X169142319Y-104862464D02*
X168142319Y-104862464D01*
X168142319Y-104862464D02*
X168142319Y-105100559D01*
X168142319Y-105100559D02*
X168189938Y-105243416D01*
X168189938Y-105243416D02*
X168285176Y-105338654D01*
X168285176Y-105338654D02*
X168380414Y-105386273D01*
X168380414Y-105386273D02*
X168570890Y-105433892D01*
X168570890Y-105433892D02*
X168713747Y-105433892D01*
X168713747Y-105433892D02*
X168904223Y-105386273D01*
X168904223Y-105386273D02*
X168999461Y-105338654D01*
X168999461Y-105338654D02*
X169094700Y-105243416D01*
X169094700Y-105243416D02*
X169142319Y-105100559D01*
X169142319Y-105100559D02*
X169142319Y-104862464D01*
X169142319Y-106386273D02*
X169142319Y-105814845D01*
X169142319Y-106100559D02*
X168142319Y-106100559D01*
X168142319Y-106100559D02*
X168285176Y-106005321D01*
X168285176Y-106005321D02*
X168380414Y-105910083D01*
X168380414Y-105910083D02*
X168428033Y-105814845D01*
X169142319Y-106862464D02*
X169142319Y-107052940D01*
X169142319Y-107052940D02*
X169094700Y-107148178D01*
X169094700Y-107148178D02*
X169047080Y-107195797D01*
X169047080Y-107195797D02*
X168904223Y-107291035D01*
X168904223Y-107291035D02*
X168713747Y-107338654D01*
X168713747Y-107338654D02*
X168332795Y-107338654D01*
X168332795Y-107338654D02*
X168237557Y-107291035D01*
X168237557Y-107291035D02*
X168189938Y-107243416D01*
X168189938Y-107243416D02*
X168142319Y-107148178D01*
X168142319Y-107148178D02*
X168142319Y-106957702D01*
X168142319Y-106957702D02*
X168189938Y-106862464D01*
X168189938Y-106862464D02*
X168237557Y-106814845D01*
X168237557Y-106814845D02*
X168332795Y-106767226D01*
X168332795Y-106767226D02*
X168570890Y-106767226D01*
X168570890Y-106767226D02*
X168666128Y-106814845D01*
X168666128Y-106814845D02*
X168713747Y-106862464D01*
X168713747Y-106862464D02*
X168761366Y-106957702D01*
X168761366Y-106957702D02*
X168761366Y-107148178D01*
X168761366Y-107148178D02*
X168713747Y-107243416D01*
X168713747Y-107243416D02*
X168666128Y-107291035D01*
X168666128Y-107291035D02*
X168570890Y-107338654D01*
X183429819Y-142962464D02*
X182429819Y-142962464D01*
X182429819Y-142962464D02*
X182429819Y-143200559D01*
X182429819Y-143200559D02*
X182477438Y-143343416D01*
X182477438Y-143343416D02*
X182572676Y-143438654D01*
X182572676Y-143438654D02*
X182667914Y-143486273D01*
X182667914Y-143486273D02*
X182858390Y-143533892D01*
X182858390Y-143533892D02*
X183001247Y-143533892D01*
X183001247Y-143533892D02*
X183191723Y-143486273D01*
X183191723Y-143486273D02*
X183286961Y-143438654D01*
X183286961Y-143438654D02*
X183382200Y-143343416D01*
X183382200Y-143343416D02*
X183429819Y-143200559D01*
X183429819Y-143200559D02*
X183429819Y-142962464D01*
X182763152Y-144391035D02*
X183429819Y-144391035D01*
X182382200Y-144152940D02*
X183096485Y-143914845D01*
X183096485Y-143914845D02*
X183096485Y-144533892D01*
X182429819Y-145343416D02*
X182429819Y-145152940D01*
X182429819Y-145152940D02*
X182477438Y-145057702D01*
X182477438Y-145057702D02*
X182525057Y-145010083D01*
X182525057Y-145010083D02*
X182667914Y-144914845D01*
X182667914Y-144914845D02*
X182858390Y-144867226D01*
X182858390Y-144867226D02*
X183239342Y-144867226D01*
X183239342Y-144867226D02*
X183334580Y-144914845D01*
X183334580Y-144914845D02*
X183382200Y-144962464D01*
X183382200Y-144962464D02*
X183429819Y-145057702D01*
X183429819Y-145057702D02*
X183429819Y-145248178D01*
X183429819Y-145248178D02*
X183382200Y-145343416D01*
X183382200Y-145343416D02*
X183334580Y-145391035D01*
X183334580Y-145391035D02*
X183239342Y-145438654D01*
X183239342Y-145438654D02*
X183001247Y-145438654D01*
X183001247Y-145438654D02*
X182906009Y-145391035D01*
X182906009Y-145391035D02*
X182858390Y-145343416D01*
X182858390Y-145343416D02*
X182810771Y-145248178D01*
X182810771Y-145248178D02*
X182810771Y-145057702D01*
X182810771Y-145057702D02*
X182858390Y-144962464D01*
X182858390Y-144962464D02*
X182906009Y-144914845D01*
X182906009Y-144914845D02*
X183001247Y-144867226D01*
X179386666Y-164844819D02*
X179719999Y-164368628D01*
X179958094Y-164844819D02*
X179958094Y-163844819D01*
X179958094Y-163844819D02*
X179577142Y-163844819D01*
X179577142Y-163844819D02*
X179481904Y-163892438D01*
X179481904Y-163892438D02*
X179434285Y-163940057D01*
X179434285Y-163940057D02*
X179386666Y-164035295D01*
X179386666Y-164035295D02*
X179386666Y-164178152D01*
X179386666Y-164178152D02*
X179434285Y-164273390D01*
X179434285Y-164273390D02*
X179481904Y-164321009D01*
X179481904Y-164321009D02*
X179577142Y-164368628D01*
X179577142Y-164368628D02*
X179958094Y-164368628D01*
X178434285Y-164844819D02*
X179005713Y-164844819D01*
X178719999Y-164844819D02*
X178719999Y-163844819D01*
X178719999Y-163844819D02*
X178815237Y-163987676D01*
X178815237Y-163987676D02*
X178910475Y-164082914D01*
X178910475Y-164082914D02*
X179005713Y-164130533D01*
X165516666Y-166659580D02*
X165564285Y-166707200D01*
X165564285Y-166707200D02*
X165707142Y-166754819D01*
X165707142Y-166754819D02*
X165802380Y-166754819D01*
X165802380Y-166754819D02*
X165945237Y-166707200D01*
X165945237Y-166707200D02*
X166040475Y-166611961D01*
X166040475Y-166611961D02*
X166088094Y-166516723D01*
X166088094Y-166516723D02*
X166135713Y-166326247D01*
X166135713Y-166326247D02*
X166135713Y-166183390D01*
X166135713Y-166183390D02*
X166088094Y-165992914D01*
X166088094Y-165992914D02*
X166040475Y-165897676D01*
X166040475Y-165897676D02*
X165945237Y-165802438D01*
X165945237Y-165802438D02*
X165802380Y-165754819D01*
X165802380Y-165754819D02*
X165707142Y-165754819D01*
X165707142Y-165754819D02*
X165564285Y-165802438D01*
X165564285Y-165802438D02*
X165516666Y-165850057D01*
X164564285Y-166754819D02*
X165135713Y-166754819D01*
X164849999Y-166754819D02*
X164849999Y-165754819D01*
X164849999Y-165754819D02*
X164945237Y-165897676D01*
X164945237Y-165897676D02*
X165040475Y-165992914D01*
X165040475Y-165992914D02*
X165135713Y-166040533D01*
X340592319Y-85812464D02*
X339592319Y-85812464D01*
X339592319Y-85812464D02*
X339592319Y-86050559D01*
X339592319Y-86050559D02*
X339639938Y-86193416D01*
X339639938Y-86193416D02*
X339735176Y-86288654D01*
X339735176Y-86288654D02*
X339830414Y-86336273D01*
X339830414Y-86336273D02*
X340020890Y-86383892D01*
X340020890Y-86383892D02*
X340163747Y-86383892D01*
X340163747Y-86383892D02*
X340354223Y-86336273D01*
X340354223Y-86336273D02*
X340449461Y-86288654D01*
X340449461Y-86288654D02*
X340544700Y-86193416D01*
X340544700Y-86193416D02*
X340592319Y-86050559D01*
X340592319Y-86050559D02*
X340592319Y-85812464D01*
X340592319Y-87336273D02*
X340592319Y-86764845D01*
X340592319Y-87050559D02*
X339592319Y-87050559D01*
X339592319Y-87050559D02*
X339735176Y-86955321D01*
X339735176Y-86955321D02*
X339830414Y-86860083D01*
X339830414Y-86860083D02*
X339878033Y-86764845D01*
X339925652Y-88193416D02*
X340592319Y-88193416D01*
X339544700Y-87955321D02*
X340258985Y-87717226D01*
X340258985Y-87717226D02*
X340258985Y-88336273D01*
X109611069Y-162012464D02*
X108611069Y-162012464D01*
X108611069Y-162012464D02*
X108611069Y-162250559D01*
X108611069Y-162250559D02*
X108658688Y-162393416D01*
X108658688Y-162393416D02*
X108753926Y-162488654D01*
X108753926Y-162488654D02*
X108849164Y-162536273D01*
X108849164Y-162536273D02*
X109039640Y-162583892D01*
X109039640Y-162583892D02*
X109182497Y-162583892D01*
X109182497Y-162583892D02*
X109372973Y-162536273D01*
X109372973Y-162536273D02*
X109468211Y-162488654D01*
X109468211Y-162488654D02*
X109563450Y-162393416D01*
X109563450Y-162393416D02*
X109611069Y-162250559D01*
X109611069Y-162250559D02*
X109611069Y-162012464D01*
X108611069Y-163488654D02*
X108611069Y-163012464D01*
X108611069Y-163012464D02*
X109087259Y-162964845D01*
X109087259Y-162964845D02*
X109039640Y-163012464D01*
X109039640Y-163012464D02*
X108992021Y-163107702D01*
X108992021Y-163107702D02*
X108992021Y-163345797D01*
X108992021Y-163345797D02*
X109039640Y-163441035D01*
X109039640Y-163441035D02*
X109087259Y-163488654D01*
X109087259Y-163488654D02*
X109182497Y-163536273D01*
X109182497Y-163536273D02*
X109420592Y-163536273D01*
X109420592Y-163536273D02*
X109515830Y-163488654D01*
X109515830Y-163488654D02*
X109563450Y-163441035D01*
X109563450Y-163441035D02*
X109611069Y-163345797D01*
X109611069Y-163345797D02*
X109611069Y-163107702D01*
X109611069Y-163107702D02*
X109563450Y-163012464D01*
X109563450Y-163012464D02*
X109515830Y-162964845D01*
X108611069Y-164441035D02*
X108611069Y-163964845D01*
X108611069Y-163964845D02*
X109087259Y-163917226D01*
X109087259Y-163917226D02*
X109039640Y-163964845D01*
X109039640Y-163964845D02*
X108992021Y-164060083D01*
X108992021Y-164060083D02*
X108992021Y-164298178D01*
X108992021Y-164298178D02*
X109039640Y-164393416D01*
X109039640Y-164393416D02*
X109087259Y-164441035D01*
X109087259Y-164441035D02*
X109182497Y-164488654D01*
X109182497Y-164488654D02*
X109420592Y-164488654D01*
X109420592Y-164488654D02*
X109515830Y-164441035D01*
X109515830Y-164441035D02*
X109563450Y-164393416D01*
X109563450Y-164393416D02*
X109611069Y-164298178D01*
X109611069Y-164298178D02*
X109611069Y-164060083D01*
X109611069Y-164060083D02*
X109563450Y-163964845D01*
X109563450Y-163964845D02*
X109515830Y-163917226D01*
X88179819Y-104862464D02*
X87179819Y-104862464D01*
X87179819Y-104862464D02*
X87179819Y-105100559D01*
X87179819Y-105100559D02*
X87227438Y-105243416D01*
X87227438Y-105243416D02*
X87322676Y-105338654D01*
X87322676Y-105338654D02*
X87417914Y-105386273D01*
X87417914Y-105386273D02*
X87608390Y-105433892D01*
X87608390Y-105433892D02*
X87751247Y-105433892D01*
X87751247Y-105433892D02*
X87941723Y-105386273D01*
X87941723Y-105386273D02*
X88036961Y-105338654D01*
X88036961Y-105338654D02*
X88132200Y-105243416D01*
X88132200Y-105243416D02*
X88179819Y-105100559D01*
X88179819Y-105100559D02*
X88179819Y-104862464D01*
X88179819Y-106386273D02*
X88179819Y-105814845D01*
X88179819Y-106100559D02*
X87179819Y-106100559D01*
X87179819Y-106100559D02*
X87322676Y-106005321D01*
X87322676Y-106005321D02*
X87417914Y-105910083D01*
X87417914Y-105910083D02*
X87465533Y-105814845D01*
X87179819Y-107291035D02*
X87179819Y-106814845D01*
X87179819Y-106814845D02*
X87656009Y-106767226D01*
X87656009Y-106767226D02*
X87608390Y-106814845D01*
X87608390Y-106814845D02*
X87560771Y-106910083D01*
X87560771Y-106910083D02*
X87560771Y-107148178D01*
X87560771Y-107148178D02*
X87608390Y-107243416D01*
X87608390Y-107243416D02*
X87656009Y-107291035D01*
X87656009Y-107291035D02*
X87751247Y-107338654D01*
X87751247Y-107338654D02*
X87989342Y-107338654D01*
X87989342Y-107338654D02*
X88084580Y-107291035D01*
X88084580Y-107291035D02*
X88132200Y-107243416D01*
X88132200Y-107243416D02*
X88179819Y-107148178D01*
X88179819Y-107148178D02*
X88179819Y-106910083D01*
X88179819Y-106910083D02*
X88132200Y-106814845D01*
X88132200Y-106814845D02*
X88084580Y-106767226D01*
X145329819Y-142962464D02*
X144329819Y-142962464D01*
X144329819Y-142962464D02*
X144329819Y-143200559D01*
X144329819Y-143200559D02*
X144377438Y-143343416D01*
X144377438Y-143343416D02*
X144472676Y-143438654D01*
X144472676Y-143438654D02*
X144567914Y-143486273D01*
X144567914Y-143486273D02*
X144758390Y-143533892D01*
X144758390Y-143533892D02*
X144901247Y-143533892D01*
X144901247Y-143533892D02*
X145091723Y-143486273D01*
X145091723Y-143486273D02*
X145186961Y-143438654D01*
X145186961Y-143438654D02*
X145282200Y-143343416D01*
X145282200Y-143343416D02*
X145329819Y-143200559D01*
X145329819Y-143200559D02*
X145329819Y-142962464D01*
X144663152Y-144391035D02*
X145329819Y-144391035D01*
X144282200Y-144152940D02*
X144996485Y-143914845D01*
X144996485Y-143914845D02*
X144996485Y-144533892D01*
X144663152Y-145343416D02*
X145329819Y-145343416D01*
X144282200Y-145105321D02*
X144996485Y-144867226D01*
X144996485Y-144867226D02*
X144996485Y-145486273D01*
X212004819Y-123912464D02*
X211004819Y-123912464D01*
X211004819Y-123912464D02*
X211004819Y-124150559D01*
X211004819Y-124150559D02*
X211052438Y-124293416D01*
X211052438Y-124293416D02*
X211147676Y-124388654D01*
X211147676Y-124388654D02*
X211242914Y-124436273D01*
X211242914Y-124436273D02*
X211433390Y-124483892D01*
X211433390Y-124483892D02*
X211576247Y-124483892D01*
X211576247Y-124483892D02*
X211766723Y-124436273D01*
X211766723Y-124436273D02*
X211861961Y-124388654D01*
X211861961Y-124388654D02*
X211957200Y-124293416D01*
X211957200Y-124293416D02*
X212004819Y-124150559D01*
X212004819Y-124150559D02*
X212004819Y-123912464D01*
X211004819Y-124817226D02*
X211004819Y-125436273D01*
X211004819Y-125436273D02*
X211385771Y-125102940D01*
X211385771Y-125102940D02*
X211385771Y-125245797D01*
X211385771Y-125245797D02*
X211433390Y-125341035D01*
X211433390Y-125341035D02*
X211481009Y-125388654D01*
X211481009Y-125388654D02*
X211576247Y-125436273D01*
X211576247Y-125436273D02*
X211814342Y-125436273D01*
X211814342Y-125436273D02*
X211909580Y-125388654D01*
X211909580Y-125388654D02*
X211957200Y-125341035D01*
X211957200Y-125341035D02*
X212004819Y-125245797D01*
X212004819Y-125245797D02*
X212004819Y-124960083D01*
X212004819Y-124960083D02*
X211957200Y-124864845D01*
X211957200Y-124864845D02*
X211909580Y-124817226D01*
X211004819Y-126341035D02*
X211004819Y-125864845D01*
X211004819Y-125864845D02*
X211481009Y-125817226D01*
X211481009Y-125817226D02*
X211433390Y-125864845D01*
X211433390Y-125864845D02*
X211385771Y-125960083D01*
X211385771Y-125960083D02*
X211385771Y-126198178D01*
X211385771Y-126198178D02*
X211433390Y-126293416D01*
X211433390Y-126293416D02*
X211481009Y-126341035D01*
X211481009Y-126341035D02*
X211576247Y-126388654D01*
X211576247Y-126388654D02*
X211814342Y-126388654D01*
X211814342Y-126388654D02*
X211909580Y-126341035D01*
X211909580Y-126341035D02*
X211957200Y-126293416D01*
X211957200Y-126293416D02*
X212004819Y-126198178D01*
X212004819Y-126198178D02*
X212004819Y-125960083D01*
X212004819Y-125960083D02*
X211957200Y-125864845D01*
X211957200Y-125864845D02*
X211909580Y-125817226D01*
X276298569Y-162012464D02*
X275298569Y-162012464D01*
X275298569Y-162012464D02*
X275298569Y-162250559D01*
X275298569Y-162250559D02*
X275346188Y-162393416D01*
X275346188Y-162393416D02*
X275441426Y-162488654D01*
X275441426Y-162488654D02*
X275536664Y-162536273D01*
X275536664Y-162536273D02*
X275727140Y-162583892D01*
X275727140Y-162583892D02*
X275869997Y-162583892D01*
X275869997Y-162583892D02*
X276060473Y-162536273D01*
X276060473Y-162536273D02*
X276155711Y-162488654D01*
X276155711Y-162488654D02*
X276250950Y-162393416D01*
X276250950Y-162393416D02*
X276298569Y-162250559D01*
X276298569Y-162250559D02*
X276298569Y-162012464D01*
X275298569Y-163488654D02*
X275298569Y-163012464D01*
X275298569Y-163012464D02*
X275774759Y-162964845D01*
X275774759Y-162964845D02*
X275727140Y-163012464D01*
X275727140Y-163012464D02*
X275679521Y-163107702D01*
X275679521Y-163107702D02*
X275679521Y-163345797D01*
X275679521Y-163345797D02*
X275727140Y-163441035D01*
X275727140Y-163441035D02*
X275774759Y-163488654D01*
X275774759Y-163488654D02*
X275869997Y-163536273D01*
X275869997Y-163536273D02*
X276108092Y-163536273D01*
X276108092Y-163536273D02*
X276203330Y-163488654D01*
X276203330Y-163488654D02*
X276250950Y-163441035D01*
X276250950Y-163441035D02*
X276298569Y-163345797D01*
X276298569Y-163345797D02*
X276298569Y-163107702D01*
X276298569Y-163107702D02*
X276250950Y-163012464D01*
X276250950Y-163012464D02*
X276203330Y-162964845D01*
X275727140Y-164107702D02*
X275679521Y-164012464D01*
X275679521Y-164012464D02*
X275631902Y-163964845D01*
X275631902Y-163964845D02*
X275536664Y-163917226D01*
X275536664Y-163917226D02*
X275489045Y-163917226D01*
X275489045Y-163917226D02*
X275393807Y-163964845D01*
X275393807Y-163964845D02*
X275346188Y-164012464D01*
X275346188Y-164012464D02*
X275298569Y-164107702D01*
X275298569Y-164107702D02*
X275298569Y-164298178D01*
X275298569Y-164298178D02*
X275346188Y-164393416D01*
X275346188Y-164393416D02*
X275393807Y-164441035D01*
X275393807Y-164441035D02*
X275489045Y-164488654D01*
X275489045Y-164488654D02*
X275536664Y-164488654D01*
X275536664Y-164488654D02*
X275631902Y-164441035D01*
X275631902Y-164441035D02*
X275679521Y-164393416D01*
X275679521Y-164393416D02*
X275727140Y-164298178D01*
X275727140Y-164298178D02*
X275727140Y-164107702D01*
X275727140Y-164107702D02*
X275774759Y-164012464D01*
X275774759Y-164012464D02*
X275822378Y-163964845D01*
X275822378Y-163964845D02*
X275917616Y-163917226D01*
X275917616Y-163917226D02*
X276108092Y-163917226D01*
X276108092Y-163917226D02*
X276203330Y-163964845D01*
X276203330Y-163964845D02*
X276250950Y-164012464D01*
X276250950Y-164012464D02*
X276298569Y-164107702D01*
X276298569Y-164107702D02*
X276298569Y-164298178D01*
X276298569Y-164298178D02*
X276250950Y-164393416D01*
X276250950Y-164393416D02*
X276203330Y-164441035D01*
X276203330Y-164441035D02*
X276108092Y-164488654D01*
X276108092Y-164488654D02*
X275917616Y-164488654D01*
X275917616Y-164488654D02*
X275822378Y-164441035D01*
X275822378Y-164441035D02*
X275774759Y-164393416D01*
X275774759Y-164393416D02*
X275727140Y-164298178D01*
X172669999Y-168042842D02*
X172712856Y-168085700D01*
X172712856Y-168085700D02*
X172841428Y-168128557D01*
X172841428Y-168128557D02*
X172927142Y-168128557D01*
X172927142Y-168128557D02*
X173055713Y-168085700D01*
X173055713Y-168085700D02*
X173141428Y-167999985D01*
X173141428Y-167999985D02*
X173184285Y-167914271D01*
X173184285Y-167914271D02*
X173227142Y-167742842D01*
X173227142Y-167742842D02*
X173227142Y-167614271D01*
X173227142Y-167614271D02*
X173184285Y-167442842D01*
X173184285Y-167442842D02*
X173141428Y-167357128D01*
X173141428Y-167357128D02*
X173055713Y-167271414D01*
X173055713Y-167271414D02*
X172927142Y-167228557D01*
X172927142Y-167228557D02*
X172841428Y-167228557D01*
X172841428Y-167228557D02*
X172712856Y-167271414D01*
X172712856Y-167271414D02*
X172669999Y-167314271D01*
X172241428Y-168128557D02*
X172069999Y-168128557D01*
X172069999Y-168128557D02*
X171984285Y-168085700D01*
X171984285Y-168085700D02*
X171941428Y-168042842D01*
X171941428Y-168042842D02*
X171855713Y-167914271D01*
X171855713Y-167914271D02*
X171812856Y-167742842D01*
X171812856Y-167742842D02*
X171812856Y-167399985D01*
X171812856Y-167399985D02*
X171855713Y-167314271D01*
X171855713Y-167314271D02*
X171898571Y-167271414D01*
X171898571Y-167271414D02*
X171984285Y-167228557D01*
X171984285Y-167228557D02*
X172155713Y-167228557D01*
X172155713Y-167228557D02*
X172241428Y-167271414D01*
X172241428Y-167271414D02*
X172284285Y-167314271D01*
X172284285Y-167314271D02*
X172327142Y-167399985D01*
X172327142Y-167399985D02*
X172327142Y-167614271D01*
X172327142Y-167614271D02*
X172284285Y-167699985D01*
X172284285Y-167699985D02*
X172241428Y-167742842D01*
X172241428Y-167742842D02*
X172155713Y-167785700D01*
X172155713Y-167785700D02*
X171984285Y-167785700D01*
X171984285Y-167785700D02*
X171898571Y-167742842D01*
X171898571Y-167742842D02*
X171855713Y-167699985D01*
X171855713Y-167699985D02*
X171812856Y-167614271D01*
X163929580Y-153743333D02*
X163977200Y-153695714D01*
X163977200Y-153695714D02*
X164024819Y-153552857D01*
X164024819Y-153552857D02*
X164024819Y-153457619D01*
X164024819Y-153457619D02*
X163977200Y-153314762D01*
X163977200Y-153314762D02*
X163881961Y-153219524D01*
X163881961Y-153219524D02*
X163786723Y-153171905D01*
X163786723Y-153171905D02*
X163596247Y-153124286D01*
X163596247Y-153124286D02*
X163453390Y-153124286D01*
X163453390Y-153124286D02*
X163262914Y-153171905D01*
X163262914Y-153171905D02*
X163167676Y-153219524D01*
X163167676Y-153219524D02*
X163072438Y-153314762D01*
X163072438Y-153314762D02*
X163024819Y-153457619D01*
X163024819Y-153457619D02*
X163024819Y-153552857D01*
X163024819Y-153552857D02*
X163072438Y-153695714D01*
X163072438Y-153695714D02*
X163120057Y-153743333D01*
X163120057Y-154124286D02*
X163072438Y-154171905D01*
X163072438Y-154171905D02*
X163024819Y-154267143D01*
X163024819Y-154267143D02*
X163024819Y-154505238D01*
X163024819Y-154505238D02*
X163072438Y-154600476D01*
X163072438Y-154600476D02*
X163120057Y-154648095D01*
X163120057Y-154648095D02*
X163215295Y-154695714D01*
X163215295Y-154695714D02*
X163310533Y-154695714D01*
X163310533Y-154695714D02*
X163453390Y-154648095D01*
X163453390Y-154648095D02*
X164024819Y-154076667D01*
X164024819Y-154076667D02*
X164024819Y-154695714D01*
X292967319Y-85812464D02*
X291967319Y-85812464D01*
X291967319Y-85812464D02*
X291967319Y-86050559D01*
X291967319Y-86050559D02*
X292014938Y-86193416D01*
X292014938Y-86193416D02*
X292110176Y-86288654D01*
X292110176Y-86288654D02*
X292205414Y-86336273D01*
X292205414Y-86336273D02*
X292395890Y-86383892D01*
X292395890Y-86383892D02*
X292538747Y-86383892D01*
X292538747Y-86383892D02*
X292729223Y-86336273D01*
X292729223Y-86336273D02*
X292824461Y-86288654D01*
X292824461Y-86288654D02*
X292919700Y-86193416D01*
X292919700Y-86193416D02*
X292967319Y-86050559D01*
X292967319Y-86050559D02*
X292967319Y-85812464D01*
X292967319Y-87336273D02*
X292967319Y-86764845D01*
X292967319Y-87050559D02*
X291967319Y-87050559D01*
X291967319Y-87050559D02*
X292110176Y-86955321D01*
X292110176Y-86955321D02*
X292205414Y-86860083D01*
X292205414Y-86860083D02*
X292253033Y-86764845D01*
X292062557Y-87717226D02*
X292014938Y-87764845D01*
X292014938Y-87764845D02*
X291967319Y-87860083D01*
X291967319Y-87860083D02*
X291967319Y-88098178D01*
X291967319Y-88098178D02*
X292014938Y-88193416D01*
X292014938Y-88193416D02*
X292062557Y-88241035D01*
X292062557Y-88241035D02*
X292157795Y-88288654D01*
X292157795Y-88288654D02*
X292253033Y-88288654D01*
X292253033Y-88288654D02*
X292395890Y-88241035D01*
X292395890Y-88241035D02*
X292967319Y-87669607D01*
X292967319Y-87669607D02*
X292967319Y-88288654D01*
X126279819Y-142962464D02*
X125279819Y-142962464D01*
X125279819Y-142962464D02*
X125279819Y-143200559D01*
X125279819Y-143200559D02*
X125327438Y-143343416D01*
X125327438Y-143343416D02*
X125422676Y-143438654D01*
X125422676Y-143438654D02*
X125517914Y-143486273D01*
X125517914Y-143486273D02*
X125708390Y-143533892D01*
X125708390Y-143533892D02*
X125851247Y-143533892D01*
X125851247Y-143533892D02*
X126041723Y-143486273D01*
X126041723Y-143486273D02*
X126136961Y-143438654D01*
X126136961Y-143438654D02*
X126232200Y-143343416D01*
X126232200Y-143343416D02*
X126279819Y-143200559D01*
X126279819Y-143200559D02*
X126279819Y-142962464D01*
X125613152Y-144391035D02*
X126279819Y-144391035D01*
X125232200Y-144152940D02*
X125946485Y-143914845D01*
X125946485Y-143914845D02*
X125946485Y-144533892D01*
X125279819Y-144819607D02*
X125279819Y-145438654D01*
X125279819Y-145438654D02*
X125660771Y-145105321D01*
X125660771Y-145105321D02*
X125660771Y-145248178D01*
X125660771Y-145248178D02*
X125708390Y-145343416D01*
X125708390Y-145343416D02*
X125756009Y-145391035D01*
X125756009Y-145391035D02*
X125851247Y-145438654D01*
X125851247Y-145438654D02*
X126089342Y-145438654D01*
X126089342Y-145438654D02*
X126184580Y-145391035D01*
X126184580Y-145391035D02*
X126232200Y-145343416D01*
X126232200Y-145343416D02*
X126279819Y-145248178D01*
X126279819Y-145248178D02*
X126279819Y-144962464D01*
X126279819Y-144962464D02*
X126232200Y-144867226D01*
X126232200Y-144867226D02*
X126184580Y-144819607D01*
X297729819Y-142962464D02*
X296729819Y-142962464D01*
X296729819Y-142962464D02*
X296729819Y-143200559D01*
X296729819Y-143200559D02*
X296777438Y-143343416D01*
X296777438Y-143343416D02*
X296872676Y-143438654D01*
X296872676Y-143438654D02*
X296967914Y-143486273D01*
X296967914Y-143486273D02*
X297158390Y-143533892D01*
X297158390Y-143533892D02*
X297301247Y-143533892D01*
X297301247Y-143533892D02*
X297491723Y-143486273D01*
X297491723Y-143486273D02*
X297586961Y-143438654D01*
X297586961Y-143438654D02*
X297682200Y-143343416D01*
X297682200Y-143343416D02*
X297729819Y-143200559D01*
X297729819Y-143200559D02*
X297729819Y-142962464D01*
X296729819Y-144438654D02*
X296729819Y-143962464D01*
X296729819Y-143962464D02*
X297206009Y-143914845D01*
X297206009Y-143914845D02*
X297158390Y-143962464D01*
X297158390Y-143962464D02*
X297110771Y-144057702D01*
X297110771Y-144057702D02*
X297110771Y-144295797D01*
X297110771Y-144295797D02*
X297158390Y-144391035D01*
X297158390Y-144391035D02*
X297206009Y-144438654D01*
X297206009Y-144438654D02*
X297301247Y-144486273D01*
X297301247Y-144486273D02*
X297539342Y-144486273D01*
X297539342Y-144486273D02*
X297634580Y-144438654D01*
X297634580Y-144438654D02*
X297682200Y-144391035D01*
X297682200Y-144391035D02*
X297729819Y-144295797D01*
X297729819Y-144295797D02*
X297729819Y-144057702D01*
X297729819Y-144057702D02*
X297682200Y-143962464D01*
X297682200Y-143962464D02*
X297634580Y-143914845D01*
X296825057Y-144867226D02*
X296777438Y-144914845D01*
X296777438Y-144914845D02*
X296729819Y-145010083D01*
X296729819Y-145010083D02*
X296729819Y-145248178D01*
X296729819Y-145248178D02*
X296777438Y-145343416D01*
X296777438Y-145343416D02*
X296825057Y-145391035D01*
X296825057Y-145391035D02*
X296920295Y-145438654D01*
X296920295Y-145438654D02*
X297015533Y-145438654D01*
X297015533Y-145438654D02*
X297158390Y-145391035D01*
X297158390Y-145391035D02*
X297729819Y-144819607D01*
X297729819Y-144819607D02*
X297729819Y-145438654D01*
X333448569Y-142899964D02*
X332448569Y-142899964D01*
X332448569Y-142899964D02*
X332448569Y-143138059D01*
X332448569Y-143138059D02*
X332496188Y-143280916D01*
X332496188Y-143280916D02*
X332591426Y-143376154D01*
X332591426Y-143376154D02*
X332686664Y-143423773D01*
X332686664Y-143423773D02*
X332877140Y-143471392D01*
X332877140Y-143471392D02*
X333019997Y-143471392D01*
X333019997Y-143471392D02*
X333210473Y-143423773D01*
X333210473Y-143423773D02*
X333305711Y-143376154D01*
X333305711Y-143376154D02*
X333400950Y-143280916D01*
X333400950Y-143280916D02*
X333448569Y-143138059D01*
X333448569Y-143138059D02*
X333448569Y-142899964D01*
X332448569Y-144376154D02*
X332448569Y-143899964D01*
X332448569Y-143899964D02*
X332924759Y-143852345D01*
X332924759Y-143852345D02*
X332877140Y-143899964D01*
X332877140Y-143899964D02*
X332829521Y-143995202D01*
X332829521Y-143995202D02*
X332829521Y-144233297D01*
X332829521Y-144233297D02*
X332877140Y-144328535D01*
X332877140Y-144328535D02*
X332924759Y-144376154D01*
X332924759Y-144376154D02*
X333019997Y-144423773D01*
X333019997Y-144423773D02*
X333258092Y-144423773D01*
X333258092Y-144423773D02*
X333353330Y-144376154D01*
X333353330Y-144376154D02*
X333400950Y-144328535D01*
X333400950Y-144328535D02*
X333448569Y-144233297D01*
X333448569Y-144233297D02*
X333448569Y-143995202D01*
X333448569Y-143995202D02*
X333400950Y-143899964D01*
X333400950Y-143899964D02*
X333353330Y-143852345D01*
X332448569Y-144757107D02*
X332448569Y-145376154D01*
X332448569Y-145376154D02*
X332829521Y-145042821D01*
X332829521Y-145042821D02*
X332829521Y-145185678D01*
X332829521Y-145185678D02*
X332877140Y-145280916D01*
X332877140Y-145280916D02*
X332924759Y-145328535D01*
X332924759Y-145328535D02*
X333019997Y-145376154D01*
X333019997Y-145376154D02*
X333258092Y-145376154D01*
X333258092Y-145376154D02*
X333353330Y-145328535D01*
X333353330Y-145328535D02*
X333400950Y-145280916D01*
X333400950Y-145280916D02*
X333448569Y-145185678D01*
X333448569Y-145185678D02*
X333448569Y-144899964D01*
X333448569Y-144899964D02*
X333400950Y-144804726D01*
X333400950Y-144804726D02*
X333353330Y-144757107D01*
X140567319Y-86288655D02*
X139567319Y-86288655D01*
X139567319Y-86288655D02*
X139567319Y-86526750D01*
X139567319Y-86526750D02*
X139614938Y-86669607D01*
X139614938Y-86669607D02*
X139710176Y-86764845D01*
X139710176Y-86764845D02*
X139805414Y-86812464D01*
X139805414Y-86812464D02*
X139995890Y-86860083D01*
X139995890Y-86860083D02*
X140138747Y-86860083D01*
X140138747Y-86860083D02*
X140329223Y-86812464D01*
X140329223Y-86812464D02*
X140424461Y-86764845D01*
X140424461Y-86764845D02*
X140519700Y-86669607D01*
X140519700Y-86669607D02*
X140567319Y-86526750D01*
X140567319Y-86526750D02*
X140567319Y-86288655D01*
X139900652Y-87717226D02*
X140567319Y-87717226D01*
X139519700Y-87479131D02*
X140233985Y-87241036D01*
X140233985Y-87241036D02*
X140233985Y-87860083D01*
X161059580Y-153723333D02*
X161107200Y-153675714D01*
X161107200Y-153675714D02*
X161154819Y-153532857D01*
X161154819Y-153532857D02*
X161154819Y-153437619D01*
X161154819Y-153437619D02*
X161107200Y-153294762D01*
X161107200Y-153294762D02*
X161011961Y-153199524D01*
X161011961Y-153199524D02*
X160916723Y-153151905D01*
X160916723Y-153151905D02*
X160726247Y-153104286D01*
X160726247Y-153104286D02*
X160583390Y-153104286D01*
X160583390Y-153104286D02*
X160392914Y-153151905D01*
X160392914Y-153151905D02*
X160297676Y-153199524D01*
X160297676Y-153199524D02*
X160202438Y-153294762D01*
X160202438Y-153294762D02*
X160154819Y-153437619D01*
X160154819Y-153437619D02*
X160154819Y-153532857D01*
X160154819Y-153532857D02*
X160202438Y-153675714D01*
X160202438Y-153675714D02*
X160250057Y-153723333D01*
X160154819Y-154628095D02*
X160154819Y-154151905D01*
X160154819Y-154151905D02*
X160631009Y-154104286D01*
X160631009Y-154104286D02*
X160583390Y-154151905D01*
X160583390Y-154151905D02*
X160535771Y-154247143D01*
X160535771Y-154247143D02*
X160535771Y-154485238D01*
X160535771Y-154485238D02*
X160583390Y-154580476D01*
X160583390Y-154580476D02*
X160631009Y-154628095D01*
X160631009Y-154628095D02*
X160726247Y-154675714D01*
X160726247Y-154675714D02*
X160964342Y-154675714D01*
X160964342Y-154675714D02*
X161059580Y-154628095D01*
X161059580Y-154628095D02*
X161107200Y-154580476D01*
X161107200Y-154580476D02*
X161154819Y-154485238D01*
X161154819Y-154485238D02*
X161154819Y-154247143D01*
X161154819Y-154247143D02*
X161107200Y-154151905D01*
X161107200Y-154151905D02*
X161059580Y-154104286D01*
X269154819Y-123912464D02*
X268154819Y-123912464D01*
X268154819Y-123912464D02*
X268154819Y-124150559D01*
X268154819Y-124150559D02*
X268202438Y-124293416D01*
X268202438Y-124293416D02*
X268297676Y-124388654D01*
X268297676Y-124388654D02*
X268392914Y-124436273D01*
X268392914Y-124436273D02*
X268583390Y-124483892D01*
X268583390Y-124483892D02*
X268726247Y-124483892D01*
X268726247Y-124483892D02*
X268916723Y-124436273D01*
X268916723Y-124436273D02*
X269011961Y-124388654D01*
X269011961Y-124388654D02*
X269107200Y-124293416D01*
X269107200Y-124293416D02*
X269154819Y-124150559D01*
X269154819Y-124150559D02*
X269154819Y-123912464D01*
X268154819Y-124817226D02*
X268154819Y-125436273D01*
X268154819Y-125436273D02*
X268535771Y-125102940D01*
X268535771Y-125102940D02*
X268535771Y-125245797D01*
X268535771Y-125245797D02*
X268583390Y-125341035D01*
X268583390Y-125341035D02*
X268631009Y-125388654D01*
X268631009Y-125388654D02*
X268726247Y-125436273D01*
X268726247Y-125436273D02*
X268964342Y-125436273D01*
X268964342Y-125436273D02*
X269059580Y-125388654D01*
X269059580Y-125388654D02*
X269107200Y-125341035D01*
X269107200Y-125341035D02*
X269154819Y-125245797D01*
X269154819Y-125245797D02*
X269154819Y-124960083D01*
X269154819Y-124960083D02*
X269107200Y-124864845D01*
X269107200Y-124864845D02*
X269059580Y-124817226D01*
X268583390Y-126007702D02*
X268535771Y-125912464D01*
X268535771Y-125912464D02*
X268488152Y-125864845D01*
X268488152Y-125864845D02*
X268392914Y-125817226D01*
X268392914Y-125817226D02*
X268345295Y-125817226D01*
X268345295Y-125817226D02*
X268250057Y-125864845D01*
X268250057Y-125864845D02*
X268202438Y-125912464D01*
X268202438Y-125912464D02*
X268154819Y-126007702D01*
X268154819Y-126007702D02*
X268154819Y-126198178D01*
X268154819Y-126198178D02*
X268202438Y-126293416D01*
X268202438Y-126293416D02*
X268250057Y-126341035D01*
X268250057Y-126341035D02*
X268345295Y-126388654D01*
X268345295Y-126388654D02*
X268392914Y-126388654D01*
X268392914Y-126388654D02*
X268488152Y-126341035D01*
X268488152Y-126341035D02*
X268535771Y-126293416D01*
X268535771Y-126293416D02*
X268583390Y-126198178D01*
X268583390Y-126198178D02*
X268583390Y-126007702D01*
X268583390Y-126007702D02*
X268631009Y-125912464D01*
X268631009Y-125912464D02*
X268678628Y-125864845D01*
X268678628Y-125864845D02*
X268773866Y-125817226D01*
X268773866Y-125817226D02*
X268964342Y-125817226D01*
X268964342Y-125817226D02*
X269059580Y-125864845D01*
X269059580Y-125864845D02*
X269107200Y-125912464D01*
X269107200Y-125912464D02*
X269154819Y-126007702D01*
X269154819Y-126007702D02*
X269154819Y-126198178D01*
X269154819Y-126198178D02*
X269107200Y-126293416D01*
X269107200Y-126293416D02*
X269059580Y-126341035D01*
X269059580Y-126341035D02*
X268964342Y-126388654D01*
X268964342Y-126388654D02*
X268773866Y-126388654D01*
X268773866Y-126388654D02*
X268678628Y-126341035D01*
X268678628Y-126341035D02*
X268631009Y-126293416D01*
X268631009Y-126293416D02*
X268583390Y-126198178D01*
X174576666Y-151599580D02*
X174624285Y-151647200D01*
X174624285Y-151647200D02*
X174767142Y-151694819D01*
X174767142Y-151694819D02*
X174862380Y-151694819D01*
X174862380Y-151694819D02*
X175005237Y-151647200D01*
X175005237Y-151647200D02*
X175100475Y-151551961D01*
X175100475Y-151551961D02*
X175148094Y-151456723D01*
X175148094Y-151456723D02*
X175195713Y-151266247D01*
X175195713Y-151266247D02*
X175195713Y-151123390D01*
X175195713Y-151123390D02*
X175148094Y-150932914D01*
X175148094Y-150932914D02*
X175100475Y-150837676D01*
X175100475Y-150837676D02*
X175005237Y-150742438D01*
X175005237Y-150742438D02*
X174862380Y-150694819D01*
X174862380Y-150694819D02*
X174767142Y-150694819D01*
X174767142Y-150694819D02*
X174624285Y-150742438D01*
X174624285Y-150742438D02*
X174576666Y-150790057D01*
X174243332Y-150694819D02*
X173624285Y-150694819D01*
X173624285Y-150694819D02*
X173957618Y-151075771D01*
X173957618Y-151075771D02*
X173814761Y-151075771D01*
X173814761Y-151075771D02*
X173719523Y-151123390D01*
X173719523Y-151123390D02*
X173671904Y-151171009D01*
X173671904Y-151171009D02*
X173624285Y-151266247D01*
X173624285Y-151266247D02*
X173624285Y-151504342D01*
X173624285Y-151504342D02*
X173671904Y-151599580D01*
X173671904Y-151599580D02*
X173719523Y-151647200D01*
X173719523Y-151647200D02*
X173814761Y-151694819D01*
X173814761Y-151694819D02*
X174100475Y-151694819D01*
X174100475Y-151694819D02*
X174195713Y-151647200D01*
X174195713Y-151647200D02*
X174243332Y-151599580D01*
X221529819Y-142962464D02*
X220529819Y-142962464D01*
X220529819Y-142962464D02*
X220529819Y-143200559D01*
X220529819Y-143200559D02*
X220577438Y-143343416D01*
X220577438Y-143343416D02*
X220672676Y-143438654D01*
X220672676Y-143438654D02*
X220767914Y-143486273D01*
X220767914Y-143486273D02*
X220958390Y-143533892D01*
X220958390Y-143533892D02*
X221101247Y-143533892D01*
X221101247Y-143533892D02*
X221291723Y-143486273D01*
X221291723Y-143486273D02*
X221386961Y-143438654D01*
X221386961Y-143438654D02*
X221482200Y-143343416D01*
X221482200Y-143343416D02*
X221529819Y-143200559D01*
X221529819Y-143200559D02*
X221529819Y-142962464D01*
X220863152Y-144391035D02*
X221529819Y-144391035D01*
X220482200Y-144152940D02*
X221196485Y-143914845D01*
X221196485Y-143914845D02*
X221196485Y-144533892D01*
X220958390Y-145057702D02*
X220910771Y-144962464D01*
X220910771Y-144962464D02*
X220863152Y-144914845D01*
X220863152Y-144914845D02*
X220767914Y-144867226D01*
X220767914Y-144867226D02*
X220720295Y-144867226D01*
X220720295Y-144867226D02*
X220625057Y-144914845D01*
X220625057Y-144914845D02*
X220577438Y-144962464D01*
X220577438Y-144962464D02*
X220529819Y-145057702D01*
X220529819Y-145057702D02*
X220529819Y-145248178D01*
X220529819Y-145248178D02*
X220577438Y-145343416D01*
X220577438Y-145343416D02*
X220625057Y-145391035D01*
X220625057Y-145391035D02*
X220720295Y-145438654D01*
X220720295Y-145438654D02*
X220767914Y-145438654D01*
X220767914Y-145438654D02*
X220863152Y-145391035D01*
X220863152Y-145391035D02*
X220910771Y-145343416D01*
X220910771Y-145343416D02*
X220958390Y-145248178D01*
X220958390Y-145248178D02*
X220958390Y-145057702D01*
X220958390Y-145057702D02*
X221006009Y-144962464D01*
X221006009Y-144962464D02*
X221053628Y-144914845D01*
X221053628Y-144914845D02*
X221148866Y-144867226D01*
X221148866Y-144867226D02*
X221339342Y-144867226D01*
X221339342Y-144867226D02*
X221434580Y-144914845D01*
X221434580Y-144914845D02*
X221482200Y-144962464D01*
X221482200Y-144962464D02*
X221529819Y-145057702D01*
X221529819Y-145057702D02*
X221529819Y-145248178D01*
X221529819Y-145248178D02*
X221482200Y-145343416D01*
X221482200Y-145343416D02*
X221434580Y-145391035D01*
X221434580Y-145391035D02*
X221339342Y-145438654D01*
X221339342Y-145438654D02*
X221148866Y-145438654D01*
X221148866Y-145438654D02*
X221053628Y-145391035D01*
X221053628Y-145391035D02*
X221006009Y-145343416D01*
X221006009Y-145343416D02*
X220958390Y-145248178D01*
D11*
%TO.C,R3*%
X78527500Y-79772224D02*
X78527500Y-79262776D01*
X79572500Y-79772224D02*
X79572500Y-79262776D01*
%TO.C,D27*%
X318087500Y-104426750D02*
X318087500Y-108436750D01*
X318087500Y-108436750D02*
X320087500Y-108436750D01*
X320087500Y-104426750D02*
X320087500Y-108436750D01*
%TO.C,C6*%
X176398748Y-166405000D02*
X176921252Y-166405000D01*
X176398748Y-167875000D02*
X176921252Y-167875000D01*
%TO.C,D39*%
X284750000Y-123476750D02*
X284750000Y-127486750D01*
X284750000Y-127486750D02*
X286750000Y-127486750D01*
X286750000Y-123476750D02*
X286750000Y-127486750D01*
%TO.C,D24*%
X260937500Y-104426750D02*
X260937500Y-108436750D01*
X260937500Y-108436750D02*
X262937500Y-108436750D01*
X262937500Y-104426750D02*
X262937500Y-108436750D01*
%TO.C,D9*%
X232362500Y-85376750D02*
X232362500Y-89386750D01*
X232362500Y-89386750D02*
X234362500Y-89386750D01*
X234362500Y-85376750D02*
X234362500Y-89386750D01*
%TO.C,D59*%
X296656250Y-161576750D02*
X296656250Y-165586750D01*
X296656250Y-165586750D02*
X298656250Y-165586750D01*
X298656250Y-161576750D02*
X298656250Y-165586750D01*
%TO.C,D42*%
X91868750Y-142526750D02*
X91868750Y-146536750D01*
X91868750Y-146536750D02*
X93868750Y-146536750D01*
X93868750Y-142526750D02*
X93868750Y-146536750D01*
%TO.C,D47*%
X199025000Y-142526750D02*
X199025000Y-146536750D01*
X199025000Y-146536750D02*
X201025000Y-146536750D01*
X201025000Y-142526750D02*
X201025000Y-146536750D01*
%TO.C,D25*%
X279987500Y-104426750D02*
X279987500Y-108436750D01*
X279987500Y-108436750D02*
X281987500Y-108436750D01*
X281987500Y-104426750D02*
X281987500Y-108436750D01*
%TO.C,D45*%
X160925000Y-142526750D02*
X160925000Y-146536750D01*
X160925000Y-146536750D02*
X162925000Y-146536750D01*
X162925000Y-142526750D02*
X162925000Y-146536750D01*
%TO.C,D6*%
X175212500Y-85376750D02*
X175212500Y-89386750D01*
X175212500Y-89386750D02*
X177212500Y-89386750D01*
X177212500Y-85376750D02*
X177212500Y-89386750D01*
%TO.C,D22*%
X222837500Y-104426750D02*
X222837500Y-108436750D01*
X222837500Y-108436750D02*
X224837500Y-108436750D01*
X224837500Y-104426750D02*
X224837500Y-108436750D01*
%TO.C,D57*%
X201406250Y-161576750D02*
X201406250Y-165586750D01*
X201406250Y-165586750D02*
X203406250Y-165586750D01*
X203406250Y-161576750D02*
X203406250Y-165586750D01*
%TO.C,C4*%
X176388748Y-164245000D02*
X176911252Y-164245000D01*
X176388748Y-165715000D02*
X176911252Y-165715000D01*
%TO.C,D21*%
X203787500Y-104426750D02*
X203787500Y-108436750D01*
X203787500Y-108436750D02*
X205787500Y-108436750D01*
X205787500Y-104426750D02*
X205787500Y-108436750D01*
%TO.C,D23*%
X241887500Y-104426750D02*
X241887500Y-108436750D01*
X241887500Y-108436750D02*
X243887500Y-108436750D01*
X243887500Y-104426750D02*
X243887500Y-108436750D01*
%TO.C,R2*%
X91097500Y-79894724D02*
X91097500Y-79385276D01*
X92142500Y-79894724D02*
X92142500Y-79385276D01*
%TO.C,D32*%
X151400000Y-123476750D02*
X151400000Y-127486750D01*
X151400000Y-127486750D02*
X153400000Y-127486750D01*
X153400000Y-123476750D02*
X153400000Y-127486750D01*
%TO.C,D8*%
X213312500Y-85376750D02*
X213312500Y-89386750D01*
X213312500Y-89386750D02*
X215312500Y-89386750D01*
X215312500Y-85376750D02*
X215312500Y-89386750D01*
%TO.C,D29*%
X87106250Y-123476750D02*
X87106250Y-127486750D01*
X87106250Y-127486750D02*
X89106250Y-127486750D01*
X89106250Y-123476750D02*
X89106250Y-127486750D01*
%TO.C,C7*%
X93815000Y-93668748D02*
X93815000Y-94191252D01*
X95285000Y-93668748D02*
X95285000Y-94191252D01*
%TO.C,D31*%
X132350000Y-123476750D02*
X132350000Y-127486750D01*
X132350000Y-127486750D02*
X134350000Y-127486750D01*
X134350000Y-123476750D02*
X134350000Y-127486750D01*
%TO.C,U2*%
X167320000Y-155987500D02*
X167320000Y-156437500D01*
X167320000Y-163207500D02*
X167320000Y-162757500D01*
X167770000Y-155987500D02*
X167320000Y-155987500D01*
X167770000Y-163207500D02*
X167320000Y-163207500D01*
X174090000Y-155987500D02*
X174540000Y-155987500D01*
X174090000Y-163207500D02*
X174540000Y-163207500D01*
X174540000Y-155987500D02*
X174540000Y-156437500D01*
X174540000Y-163207500D02*
X174540000Y-162757500D01*
X174560000Y-164137500D02*
X174090000Y-163797500D01*
X174560000Y-163457500D01*
X174560000Y-164137500D01*
G36*
X174560000Y-164137500D02*
G01*
X174090000Y-163797500D01*
X174560000Y-163457500D01*
X174560000Y-164137500D01*
G37*
%TO.C,D60*%
X320468750Y-161576750D02*
X320468750Y-165586750D01*
X320468750Y-165586750D02*
X322468750Y-165586750D01*
X322468750Y-161576750D02*
X322468750Y-165586750D01*
%TO.C,D13*%
X308562500Y-85376750D02*
X308562500Y-89386750D01*
X308562500Y-89386750D02*
X310562500Y-89386750D01*
X310562500Y-85376750D02*
X310562500Y-89386750D01*
%TO.C,U3*%
X89390000Y-93072500D02*
X89390000Y-93872500D01*
X89390000Y-94672500D02*
X89390000Y-93872500D01*
X92510000Y-93072500D02*
X92510000Y-93872500D01*
X92510000Y-94672500D02*
X92510000Y-93872500D01*
X89440000Y-92572500D02*
X89110000Y-92812500D01*
X89110000Y-92332500D01*
X89440000Y-92572500D01*
G36*
X89440000Y-92572500D02*
G01*
X89110000Y-92812500D01*
X89110000Y-92332500D01*
X89440000Y-92572500D01*
G37*
%TO.C,D33*%
X170450000Y-123476750D02*
X170450000Y-127486750D01*
X170450000Y-127486750D02*
X172450000Y-127486750D01*
X172450000Y-123476750D02*
X172450000Y-127486750D01*
%TO.C,D28*%
X341900000Y-104426750D02*
X341900000Y-108436750D01*
X341900000Y-108436750D02*
X343900000Y-108436750D01*
X343900000Y-104426750D02*
X343900000Y-108436750D01*
%TO.C,D7*%
X194262500Y-85376750D02*
X194262500Y-89386750D01*
X194262500Y-89386750D02*
X196262500Y-89386750D01*
X196262500Y-85376750D02*
X196262500Y-89386750D01*
%TO.C,D56*%
X129968750Y-161576750D02*
X129968750Y-165586750D01*
X129968750Y-165586750D02*
X131968750Y-165586750D01*
X131968750Y-161576750D02*
X131968750Y-165586750D01*
%TO.C,D2*%
X96987500Y-87265000D02*
X100997500Y-87265000D01*
X96987500Y-89265000D02*
X100997500Y-89265000D01*
X100997500Y-89265000D02*
X100997500Y-87265000D01*
%TO.C,D51*%
X275225000Y-142526750D02*
X275225000Y-146536750D01*
X275225000Y-146536750D02*
X277225000Y-146536750D01*
X277225000Y-142526750D02*
X277225000Y-146536750D01*
%TO.C,J1*%
X80582500Y-75880000D02*
X80582500Y-77880000D01*
X89982500Y-75880000D02*
X89982500Y-77880000D01*
%TO.C,D16*%
X108537500Y-104426750D02*
X108537500Y-108436750D01*
X108537500Y-108436750D02*
X110537500Y-108436750D01*
X110537500Y-104426750D02*
X110537500Y-108436750D01*
%TO.C,D61*%
X344281250Y-161576750D02*
X344281250Y-165586750D01*
X344281250Y-165586750D02*
X346281250Y-165586750D01*
X346281250Y-161576750D02*
X346281250Y-165586750D01*
%TO.C,D5*%
X156162500Y-85376750D02*
X156162500Y-89386750D01*
X156162500Y-89386750D02*
X158162500Y-89386750D01*
X158162500Y-85376750D02*
X158162500Y-89386750D01*
%TO.C,SW2*%
X181500000Y-162170000D02*
X181500000Y-164170000D01*
X183000000Y-160420000D02*
X182550000Y-160870000D01*
X183000000Y-165920000D02*
X182550000Y-165470000D01*
X185500000Y-160420000D02*
X183000000Y-160420000D01*
X185500000Y-160420000D02*
X185950000Y-160870000D01*
X185500000Y-165920000D02*
X183000000Y-165920000D01*
X185500000Y-165920000D02*
X185950000Y-165470000D01*
X187000000Y-162170000D02*
X187000000Y-164170000D01*
%TO.C,D1*%
X77726000Y-87519000D02*
X81736000Y-87519000D01*
X77726000Y-89519000D02*
X81736000Y-89519000D01*
X81736000Y-89519000D02*
X81736000Y-87519000D01*
%TO.C,D40*%
X303800000Y-123476750D02*
X303800000Y-127486750D01*
X303800000Y-127486750D02*
X305800000Y-127486750D01*
X305800000Y-123476750D02*
X305800000Y-127486750D01*
%TO.C,D54*%
X82343750Y-161576750D02*
X82343750Y-165586750D01*
X82343750Y-165586750D02*
X84343750Y-165586750D01*
X84343750Y-161576750D02*
X84343750Y-165586750D01*
%TO.C,U1*%
X83720000Y-84892500D02*
X83720000Y-85692500D01*
X83720000Y-86492500D02*
X83720000Y-85692500D01*
X86840000Y-84892500D02*
X86840000Y-85692500D01*
X86840000Y-86492500D02*
X86840000Y-85692500D01*
X87120000Y-87232500D02*
X86790000Y-86992500D01*
X87120000Y-86752500D01*
X87120000Y-87232500D01*
G36*
X87120000Y-87232500D02*
G01*
X86790000Y-86992500D01*
X87120000Y-86752500D01*
X87120000Y-87232500D01*
G37*
%TO.C,D41*%
X334756250Y-123476750D02*
X334756250Y-127486750D01*
X334756250Y-127486750D02*
X336756250Y-127486750D01*
X336756250Y-123476750D02*
X336756250Y-127486750D01*
%TO.C,D30*%
X113300000Y-123476750D02*
X113300000Y-127486750D01*
X113300000Y-127486750D02*
X115300000Y-127486750D01*
X115300000Y-123476750D02*
X115300000Y-127486750D01*
%TO.C,D26*%
X299037500Y-104426750D02*
X299037500Y-108436750D01*
X299037500Y-108436750D02*
X301037500Y-108436750D01*
X301037500Y-104426750D02*
X301037500Y-108436750D01*
%TO.C,D18*%
X146637500Y-104426750D02*
X146637500Y-108436750D01*
X146637500Y-108436750D02*
X148637500Y-108436750D01*
X148637500Y-104426750D02*
X148637500Y-108436750D01*
%TO.C,F1*%
X88090000Y-87382064D02*
X88090000Y-86177936D01*
X89910000Y-87382064D02*
X89910000Y-86177936D01*
%TO.C,C8*%
X93561252Y-89925000D02*
X93038748Y-89925000D01*
X93561252Y-91395000D02*
X93038748Y-91395000D01*
%TO.C,D50*%
X256175000Y-142526750D02*
X256175000Y-146536750D01*
X256175000Y-146536750D02*
X258175000Y-146536750D01*
X258175000Y-142526750D02*
X258175000Y-146536750D01*
%TO.C,D3*%
X118062500Y-85376750D02*
X118062500Y-89386750D01*
X118062500Y-89386750D02*
X120062500Y-89386750D01*
X120062500Y-85376750D02*
X120062500Y-89386750D01*
%TO.C,D49*%
X237125000Y-142526750D02*
X237125000Y-146536750D01*
X237125000Y-146536750D02*
X239125000Y-146536750D01*
X239125000Y-142526750D02*
X239125000Y-146536750D01*
%TO.C,D37*%
X246650000Y-123476750D02*
X246650000Y-127486750D01*
X246650000Y-127486750D02*
X248650000Y-127486750D01*
X248650000Y-123476750D02*
X248650000Y-127486750D01*
%TO.C,D34*%
X189500000Y-123476750D02*
X189500000Y-127486750D01*
X189500000Y-127486750D02*
X191500000Y-127486750D01*
X191500000Y-123476750D02*
X191500000Y-127486750D01*
%TO.C,D17*%
X127587500Y-104489250D02*
X127587500Y-108499250D01*
X127587500Y-108499250D02*
X129587500Y-108499250D01*
X129587500Y-104489250D02*
X129587500Y-108499250D01*
%TO.C,D10*%
X251412500Y-85376750D02*
X251412500Y-89386750D01*
X251412500Y-89386750D02*
X253412500Y-89386750D01*
X253412500Y-85376750D02*
X253412500Y-89386750D01*
%TO.C,D20*%
X184737500Y-104426750D02*
X184737500Y-108436750D01*
X184737500Y-108436750D02*
X186737500Y-108436750D01*
X186737500Y-104426750D02*
X186737500Y-108436750D01*
%TO.C,D11*%
X270462500Y-85376750D02*
X270462500Y-89386750D01*
X270462500Y-89386750D02*
X272462500Y-89386750D01*
X272462500Y-85376750D02*
X272462500Y-89386750D01*
%TO.C,D36*%
X227600000Y-123476750D02*
X227600000Y-127486750D01*
X227600000Y-127486750D02*
X229600000Y-127486750D01*
X229600000Y-123476750D02*
X229600000Y-127486750D01*
%TO.C,D19*%
X165687500Y-104426750D02*
X165687500Y-108436750D01*
X165687500Y-108436750D02*
X167687500Y-108436750D01*
X167687500Y-104426750D02*
X167687500Y-108436750D01*
%TO.C,D46*%
X179975000Y-142526750D02*
X179975000Y-146536750D01*
X179975000Y-146536750D02*
X181975000Y-146536750D01*
X181975000Y-142526750D02*
X181975000Y-146536750D01*
%TO.C,R1*%
X178377500Y-162454724D02*
X178377500Y-161945276D01*
X179422500Y-162454724D02*
X179422500Y-161945276D01*
%TO.C,C1*%
X168703752Y-165565000D02*
X168181248Y-165565000D01*
X168703752Y-167035000D02*
X168181248Y-167035000D01*
%TO.C,D14*%
X337137500Y-85376750D02*
X337137500Y-89386750D01*
X337137500Y-89386750D02*
X339137500Y-89386750D01*
X339137500Y-85376750D02*
X339137500Y-89386750D01*
%TO.C,D55*%
X106156250Y-161576750D02*
X106156250Y-165586750D01*
X106156250Y-165586750D02*
X108156250Y-165586750D01*
X108156250Y-161576750D02*
X108156250Y-165586750D01*
%TO.C,D15*%
X84725000Y-104426750D02*
X84725000Y-108436750D01*
X84725000Y-108436750D02*
X86725000Y-108436750D01*
X86725000Y-104426750D02*
X86725000Y-108436750D01*
%TO.C,D44*%
X141875000Y-142526750D02*
X141875000Y-146536750D01*
X141875000Y-146536750D02*
X143875000Y-146536750D01*
X143875000Y-142526750D02*
X143875000Y-146536750D01*
%TO.C,D35*%
X208550000Y-123476750D02*
X208550000Y-127486750D01*
X208550000Y-127486750D02*
X210550000Y-127486750D01*
X210550000Y-123476750D02*
X210550000Y-127486750D01*
%TO.C,D58*%
X272843750Y-161576750D02*
X272843750Y-165586750D01*
X272843750Y-165586750D02*
X274843750Y-165586750D01*
X274843750Y-161576750D02*
X274843750Y-165586750D01*
%TO.C,C9*%
X172258748Y-165545000D02*
X172781252Y-165545000D01*
X172258748Y-167015000D02*
X172781252Y-167015000D01*
%TO.C,C2*%
X162785000Y-157111252D02*
X162785000Y-156588748D01*
X164255000Y-157111252D02*
X164255000Y-156588748D01*
%TO.C,D12*%
X289512500Y-85376750D02*
X289512500Y-89386750D01*
X289512500Y-89386750D02*
X291512500Y-89386750D01*
X291512500Y-85376750D02*
X291512500Y-89386750D01*
%TO.C,D43*%
X122825000Y-142526750D02*
X122825000Y-146536750D01*
X122825000Y-146536750D02*
X124825000Y-146536750D01*
X124825000Y-142526750D02*
X124825000Y-146536750D01*
%TO.C,D52*%
X294275000Y-142526750D02*
X294275000Y-146536750D01*
X294275000Y-146536750D02*
X296275000Y-146536750D01*
X296275000Y-142526750D02*
X296275000Y-146536750D01*
%TO.C,D53*%
X329993750Y-142464250D02*
X329993750Y-146474250D01*
X329993750Y-146474250D02*
X331993750Y-146474250D01*
X331993750Y-142464250D02*
X331993750Y-146474250D01*
%TO.C,D4*%
X137112500Y-85376750D02*
X137112500Y-89386750D01*
X137112500Y-89386750D02*
X139112500Y-89386750D01*
X139112500Y-85376750D02*
X139112500Y-89386750D01*
%TO.C,C5*%
X159925000Y-157111252D02*
X159925000Y-156588748D01*
X161395000Y-157111252D02*
X161395000Y-156588748D01*
%TO.C,D38*%
X265700000Y-123476750D02*
X265700000Y-127486750D01*
X265700000Y-127486750D02*
X267700000Y-127486750D01*
X267700000Y-123476750D02*
X267700000Y-127486750D01*
%TO.C,C3*%
X174148748Y-152185000D02*
X174671252Y-152185000D01*
X174148748Y-153655000D02*
X174671252Y-153655000D01*
%TO.C,D48*%
X218075000Y-142526750D02*
X218075000Y-146536750D01*
X218075000Y-146536750D02*
X220075000Y-146536750D01*
X220075000Y-142526750D02*
X220075000Y-146536750D01*
%TD*%
M02*
