%TF.GenerationSoftware,KiCad,Pcbnew,8.0.3*%
%TF.CreationDate,2025-05-11T02:01:07-04:00*%
%TF.ProjectId,KP60,4b503630-2e6b-4696-9361-645f70636258,rev?*%
%TF.SameCoordinates,Original*%
%TF.FileFunction,Soldermask,Bot*%
%TF.FilePolarity,Negative*%
%FSLAX46Y46*%
G04 Gerber Fmt 4.6, Leading zero omitted, Abs format (unit mm)*
G04 Created by KiCad (PCBNEW 8.0.3) date 2025-05-11 02:01:07*
%MOMM*%
%LPD*%
G01*
G04 APERTURE LIST*
G04 Aperture macros list*
%AMRoundRect*
0 Rectangle with rounded corners*
0 $1 Rounding radius*
0 $2 $3 $4 $5 $6 $7 $8 $9 X,Y pos of 4 corners*
0 Add a 4 corners polygon primitive as box body*
4,1,4,$2,$3,$4,$5,$6,$7,$8,$9,$2,$3,0*
0 Add four circle primitives for the rounded corners*
1,1,$1+$1,$2,$3*
1,1,$1+$1,$4,$5*
1,1,$1+$1,$6,$7*
1,1,$1+$1,$8,$9*
0 Add four rect primitives between the rounded corners*
20,1,$1+$1,$2,$3,$4,$5,0*
20,1,$1+$1,$4,$5,$6,$7,0*
20,1,$1+$1,$6,$7,$8,$9,0*
20,1,$1+$1,$8,$9,$2,$3,0*%
G04 Aperture macros list end*
%ADD10C,1.750000*%
%ADD11C,4.000000*%
%ADD12C,2.500000*%
%ADD13O,3.200000X2.200000*%
%ADD14C,3.048000*%
%ADD15C,3.987800*%
%ADD16O,4.200000X2.200000*%
%ADD17C,2.200000*%
%ADD18RoundRect,0.237500X-0.237500X0.250000X-0.237500X-0.250000X0.237500X-0.250000X0.237500X0.250000X0*%
%ADD19RoundRect,0.225000X0.375000X-0.225000X0.375000X0.225000X-0.375000X0.225000X-0.375000X-0.225000X0*%
%ADD20RoundRect,0.250000X0.337500X0.475000X-0.337500X0.475000X-0.337500X-0.475000X0.337500X-0.475000X0*%
%ADD21RoundRect,0.250000X0.475000X-0.337500X0.475000X0.337500X-0.475000X0.337500X-0.475000X-0.337500X0*%
%ADD22RoundRect,0.075000X0.075000X-0.662500X0.075000X0.662500X-0.075000X0.662500X-0.075000X-0.662500X0*%
%ADD23RoundRect,0.075000X0.662500X-0.075000X0.662500X0.075000X-0.662500X0.075000X-0.662500X-0.075000X0*%
%ADD24RoundRect,0.150000X-0.150000X0.512500X-0.150000X-0.512500X0.150000X-0.512500X0.150000X0.512500X0*%
%ADD25RoundRect,0.225000X0.225000X0.375000X-0.225000X0.375000X-0.225000X-0.375000X0.225000X-0.375000X0*%
%ADD26C,0.650000*%
%ADD27R,0.600000X1.450000*%
%ADD28R,0.300000X1.450000*%
%ADD29O,1.000000X1.600000*%
%ADD30O,1.000000X2.100000*%
%ADD31R,1.700000X1.000000*%
%ADD32RoundRect,0.150000X0.150000X-0.512500X0.150000X0.512500X-0.150000X0.512500X-0.150000X-0.512500X0*%
%ADD33RoundRect,0.250001X-0.624999X0.462499X-0.624999X-0.462499X0.624999X-0.462499X0.624999X0.462499X0*%
%ADD34RoundRect,0.250000X-0.337500X-0.475000X0.337500X-0.475000X0.337500X0.475000X-0.337500X0.475000X0*%
%ADD35RoundRect,0.250000X-0.475000X0.337500X-0.475000X-0.337500X0.475000X-0.337500X0.475000X0.337500X0*%
G04 APERTURE END LIST*
D10*
%TO.C,S14*%
X327818750Y-83058000D03*
D11*
X332898750Y-83058000D03*
D10*
X337978750Y-83058000D03*
D12*
X329088750Y-80518000D03*
X335438750Y-77978000D03*
%TD*%
D13*
%TO.C,H4*%
X326640000Y-101760000D03*
%TD*%
%TO.C,H5*%
X194770000Y-120850000D03*
%TD*%
D10*
%TO.C,S42*%
X275431250Y-121158000D03*
D11*
X280511250Y-121158000D03*
D10*
X285591250Y-121158000D03*
D12*
X276701250Y-118618000D03*
X283051250Y-116078000D03*
%TD*%
D10*
%TO.C,S49*%
X170656250Y-140208000D03*
D11*
X175736250Y-140208000D03*
D10*
X180816250Y-140208000D03*
D12*
X171926250Y-137668000D03*
X178276250Y-135128000D03*
%TD*%
D10*
%TO.C,S36*%
X161131250Y-121158000D03*
D11*
X166211250Y-121158000D03*
D10*
X171291250Y-121158000D03*
D12*
X162401250Y-118618000D03*
X168751250Y-116078000D03*
%TD*%
D10*
%TO.C,S9*%
X223043750Y-83058000D03*
D11*
X228123750Y-83058000D03*
D10*
X233203750Y-83058000D03*
D12*
X224313750Y-80518000D03*
X230663750Y-77978000D03*
%TD*%
D14*
%TO.C,ST5*%
X320962000Y-76075000D03*
D15*
X320962000Y-91285000D03*
D14*
X344838000Y-76075000D03*
D15*
X344838000Y-91285000D03*
%TD*%
D10*
%TO.C,S43*%
X294481250Y-121158000D03*
D11*
X299561250Y-121158000D03*
D10*
X304641250Y-121158000D03*
D12*
X295751250Y-118618000D03*
X302101250Y-116078000D03*
%TD*%
D10*
%TO.C,S33*%
X103981250Y-121158000D03*
D11*
X109061250Y-121158000D03*
D10*
X114141250Y-121158000D03*
D12*
X105251250Y-118618000D03*
X111601250Y-116078000D03*
%TD*%
D10*
%TO.C,S23*%
X175418750Y-102108000D03*
D11*
X180498750Y-102108000D03*
D10*
X185578750Y-102108000D03*
D12*
X176688750Y-99568000D03*
X183038750Y-97028000D03*
%TD*%
D10*
%TO.C,S31*%
X332581250Y-102108000D03*
D11*
X337661250Y-102108000D03*
D10*
X342741250Y-102108000D03*
D12*
X333851250Y-99568000D03*
X340201250Y-97028000D03*
%TD*%
D10*
%TO.C,S21*%
X137318750Y-102108000D03*
D11*
X142398750Y-102108000D03*
D10*
X147478750Y-102108000D03*
D12*
X138588750Y-99568000D03*
X144938750Y-97028000D03*
%TD*%
D10*
%TO.C,S45*%
X82550000Y-140208000D03*
D11*
X87630000Y-140208000D03*
D10*
X92710000Y-140208000D03*
D12*
X83820000Y-137668000D03*
X90170000Y-135128000D03*
%TD*%
D10*
%TO.C,S20*%
X118268750Y-102108000D03*
D11*
X123348750Y-102108000D03*
D10*
X128428750Y-102108000D03*
D12*
X119538750Y-99568000D03*
X125888750Y-97028000D03*
%TD*%
D10*
%TO.C,S50*%
X189706250Y-140208000D03*
D11*
X194786250Y-140208000D03*
D10*
X199866250Y-140208000D03*
D12*
X190976250Y-137668000D03*
X197326250Y-135128000D03*
%TD*%
D10*
%TO.C,S64*%
X334962500Y-159258000D03*
D11*
X340042500Y-159258000D03*
D10*
X345122500Y-159258000D03*
D12*
X336232500Y-156718000D03*
X342582500Y-154178000D03*
%TD*%
D13*
%TO.C,H6*%
X257060000Y-159050000D03*
%TD*%
D10*
%TO.C,S60*%
X192087500Y-159258000D03*
D11*
X197167500Y-159258000D03*
D10*
X202247500Y-159258000D03*
D12*
X193357500Y-156718000D03*
X199707500Y-154178000D03*
%TD*%
D10*
%TO.C,S52*%
X227806250Y-140208000D03*
D11*
X232886250Y-140208000D03*
D10*
X237966250Y-140208000D03*
D12*
X229076250Y-137668000D03*
X235426250Y-135128000D03*
%TD*%
D10*
%TO.C,S29*%
X289718750Y-102108000D03*
D11*
X294798750Y-102108000D03*
D10*
X299878750Y-102108000D03*
D12*
X290988750Y-99568000D03*
X297338750Y-97028000D03*
%TD*%
D10*
%TO.C,S57*%
X73025000Y-159258000D03*
D11*
X78105000Y-159258000D03*
D10*
X83185000Y-159258000D03*
D12*
X74295000Y-156718000D03*
X80645000Y-154178000D03*
%TD*%
D10*
%TO.C,S25*%
X213518750Y-102108000D03*
D11*
X218598750Y-102108000D03*
D10*
X223678750Y-102108000D03*
D12*
X214788750Y-99568000D03*
X221138750Y-97028000D03*
%TD*%
D10*
%TO.C,S13*%
X299243750Y-83058000D03*
D11*
X304323750Y-83058000D03*
D10*
X309403750Y-83058000D03*
D12*
X300513750Y-80518000D03*
X306863750Y-77978000D03*
%TD*%
D10*
%TO.C,S24*%
X194468750Y-102108000D03*
D11*
X199548750Y-102108000D03*
D10*
X204628750Y-102108000D03*
D12*
X195738750Y-99568000D03*
X202088750Y-97028000D03*
%TD*%
D10*
%TO.C,S47*%
X132556250Y-140208000D03*
D11*
X137636250Y-140208000D03*
D10*
X142716250Y-140208000D03*
D12*
X133826250Y-137668000D03*
X140176250Y-135128000D03*
%TD*%
D10*
%TO.C,S4*%
X127793750Y-83058000D03*
D11*
X132873750Y-83058000D03*
D10*
X137953750Y-83058000D03*
D12*
X129063750Y-80518000D03*
X135413750Y-77978000D03*
%TD*%
D10*
%TO.C,S1*%
X80803750Y-83058000D03*
D11*
X75723750Y-83058000D03*
D10*
X70643750Y-83058000D03*
D12*
X79533750Y-85598000D03*
X73183750Y-88138000D03*
%TD*%
D10*
%TO.C,S37*%
X180181250Y-121158000D03*
D11*
X185261250Y-121158000D03*
D10*
X190341250Y-121158000D03*
D12*
X181451250Y-118618000D03*
X187801250Y-116078000D03*
%TD*%
D10*
%TO.C,S58*%
X96837500Y-159258000D03*
D11*
X101917500Y-159258000D03*
D10*
X106997500Y-159258000D03*
D12*
X98107500Y-156718000D03*
X104457500Y-154178000D03*
%TD*%
D10*
%TO.C,S48*%
X151606250Y-140208000D03*
D11*
X156686250Y-140208000D03*
D10*
X161766250Y-140208000D03*
D12*
X152876250Y-137668000D03*
X159226250Y-135128000D03*
%TD*%
D10*
%TO.C,S30*%
X308768750Y-102108000D03*
D11*
X313848750Y-102108000D03*
D10*
X318928750Y-102108000D03*
D12*
X310038750Y-99568000D03*
X316388750Y-97028000D03*
%TD*%
D14*
%TO.C,ST1*%
X147297000Y-150890000D03*
D15*
X147297000Y-166100000D03*
D14*
X247297000Y-150890000D03*
D15*
X247297000Y-166100000D03*
%TD*%
D10*
%TO.C,S28*%
X270668750Y-102108000D03*
D11*
X275748750Y-102108000D03*
D10*
X280828750Y-102108000D03*
D12*
X271938750Y-99568000D03*
X278288750Y-97028000D03*
%TD*%
D10*
%TO.C,S26*%
X232568750Y-102108000D03*
D11*
X237648750Y-102108000D03*
D10*
X242728750Y-102108000D03*
D12*
X233838750Y-99568000D03*
X240188750Y-97028000D03*
%TD*%
D10*
%TO.C,S59*%
X120650000Y-159258000D03*
D11*
X125730000Y-159258000D03*
D10*
X130810000Y-159258000D03*
D12*
X121920000Y-156718000D03*
X128270000Y-154178000D03*
%TD*%
D10*
%TO.C,S39*%
X218281250Y-121158000D03*
D11*
X223361250Y-121158000D03*
D10*
X228441250Y-121158000D03*
D12*
X219551250Y-118618000D03*
X225901250Y-116078000D03*
%TD*%
D10*
%TO.C,S8*%
X203993750Y-83058000D03*
D11*
X209073750Y-83058000D03*
D10*
X214153750Y-83058000D03*
D12*
X205263750Y-80518000D03*
X211613750Y-77978000D03*
%TD*%
D14*
%TO.C,ST4*%
X318582000Y-114175000D03*
D15*
X318582000Y-129385000D03*
D14*
X342458000Y-114175000D03*
D15*
X342458000Y-129385000D03*
%TD*%
D10*
%TO.C,S19*%
X99218750Y-102108000D03*
D11*
X104298750Y-102108000D03*
D10*
X109378750Y-102108000D03*
D12*
X100488750Y-99568000D03*
X106838750Y-97028000D03*
%TD*%
D10*
%TO.C,S3*%
X108743750Y-83058000D03*
D11*
X113823750Y-83058000D03*
D10*
X118903750Y-83058000D03*
D12*
X110013750Y-80518000D03*
X116363750Y-77978000D03*
%TD*%
D10*
%TO.C,S38*%
X199231250Y-121158000D03*
D11*
X204311250Y-121158000D03*
D10*
X209391250Y-121158000D03*
D12*
X200501250Y-118618000D03*
X206851250Y-116078000D03*
%TD*%
D10*
%TO.C,S41*%
X256381250Y-121158000D03*
D11*
X261461250Y-121158000D03*
D10*
X266541250Y-121158000D03*
D12*
X257651250Y-118618000D03*
X264001250Y-116078000D03*
%TD*%
D10*
%TO.C,S10*%
X242093750Y-83058000D03*
D11*
X247173750Y-83058000D03*
D10*
X252253750Y-83058000D03*
D12*
X243363750Y-80518000D03*
X249713750Y-77978000D03*
%TD*%
D10*
%TO.C,S62*%
X287337500Y-159258000D03*
D11*
X292417500Y-159258000D03*
D10*
X297497500Y-159258000D03*
D12*
X288607500Y-156718000D03*
X294957500Y-154178000D03*
%TD*%
D10*
%TO.C,S5*%
X146843750Y-83058000D03*
D11*
X151923750Y-83058000D03*
D10*
X157003750Y-83058000D03*
D12*
X148113750Y-80518000D03*
X154463750Y-77978000D03*
%TD*%
D10*
%TO.C,S12*%
X280193750Y-83058000D03*
D11*
X285273750Y-83058000D03*
D10*
X290353750Y-83058000D03*
D12*
X281463750Y-80518000D03*
X287813750Y-77978000D03*
%TD*%
D10*
%TO.C,S53*%
X246856250Y-140208000D03*
D11*
X251936250Y-140208000D03*
D10*
X257016250Y-140208000D03*
D12*
X248126250Y-137668000D03*
X254476250Y-135128000D03*
%TD*%
D10*
%TO.C,S54*%
X265906250Y-140208000D03*
D11*
X270986250Y-140208000D03*
D10*
X276066250Y-140208000D03*
D12*
X267176250Y-137668000D03*
X273526250Y-135128000D03*
%TD*%
D10*
%TO.C,S63*%
X311150000Y-159258000D03*
D11*
X316230000Y-159258000D03*
D10*
X321310000Y-159258000D03*
D12*
X312420000Y-156718000D03*
X318770000Y-154178000D03*
%TD*%
D10*
%TO.C,S22*%
X156527500Y-102108000D03*
D11*
X161607500Y-102108000D03*
D10*
X166687500Y-102108000D03*
D12*
X157797500Y-99568000D03*
X164147500Y-97028000D03*
%TD*%
D10*
%TO.C,S11*%
X261143750Y-83058000D03*
D11*
X266223750Y-83058000D03*
D10*
X271303750Y-83058000D03*
D12*
X262413750Y-80518000D03*
X268763750Y-77978000D03*
%TD*%
D10*
%TO.C,S18*%
X75406250Y-102108000D03*
D11*
X80486250Y-102108000D03*
D10*
X85566250Y-102108000D03*
D12*
X76676250Y-99568000D03*
X83026250Y-97028000D03*
%TD*%
D14*
%TO.C,ST2*%
X75692000Y-133225000D03*
D15*
X75692000Y-148435000D03*
D14*
X99568000Y-133225000D03*
D15*
X99568000Y-148435000D03*
%TD*%
D10*
%TO.C,S32*%
X77787500Y-121158000D03*
D11*
X82867500Y-121158000D03*
D10*
X87947500Y-121158000D03*
D12*
X79057500Y-118618000D03*
X85407500Y-116078000D03*
%TD*%
D14*
%TO.C,ST3*%
X313812000Y-133435000D03*
D15*
X313812000Y-148645000D03*
D14*
X337688000Y-133435000D03*
D15*
X337688000Y-148645000D03*
%TD*%
D16*
%TO.C,H2*%
X66720000Y-130340000D03*
%TD*%
D10*
%TO.C,S51*%
X208756250Y-140208000D03*
D11*
X213836250Y-140208000D03*
D10*
X218916250Y-140208000D03*
D12*
X210026250Y-137668000D03*
X216376250Y-135128000D03*
%TD*%
D10*
%TO.C,S56*%
X320675000Y-140208000D03*
D11*
X325755000Y-140208000D03*
D10*
X330835000Y-140208000D03*
D12*
X321945000Y-137668000D03*
X328295000Y-135128000D03*
%TD*%
D10*
%TO.C,S61*%
X263525000Y-159258000D03*
D11*
X268605000Y-159258000D03*
D10*
X273685000Y-159258000D03*
D12*
X264795000Y-156718000D03*
X271145000Y-154178000D03*
%TD*%
D10*
%TO.C,S46*%
X113506250Y-140208000D03*
D11*
X118586250Y-140208000D03*
D10*
X123666250Y-140208000D03*
D12*
X114776250Y-137668000D03*
X121126250Y-135128000D03*
%TD*%
D10*
%TO.C,S55*%
X284956250Y-140208000D03*
D11*
X290036250Y-140208000D03*
D10*
X295116250Y-140208000D03*
D12*
X286226250Y-137668000D03*
X292576250Y-135128000D03*
%TD*%
D10*
%TO.C,S40*%
X237331250Y-121158000D03*
D11*
X242411250Y-121158000D03*
D10*
X247491250Y-121158000D03*
D12*
X238601250Y-118618000D03*
X244951250Y-116078000D03*
%TD*%
D10*
%TO.C,S35*%
X142081250Y-121158000D03*
D11*
X147161250Y-121158000D03*
D10*
X152241250Y-121158000D03*
D12*
X143351250Y-118618000D03*
X149701250Y-116078000D03*
%TD*%
D17*
%TO.C,H3*%
X91750000Y-101730000D03*
%TD*%
D10*
%TO.C,S6*%
X165893750Y-83058000D03*
D11*
X170973750Y-83058000D03*
D10*
X176053750Y-83058000D03*
D12*
X167163750Y-80518000D03*
X173513750Y-77978000D03*
%TD*%
D10*
%TO.C,S27*%
X251618750Y-102108000D03*
D11*
X256698750Y-102108000D03*
D10*
X261778750Y-102108000D03*
D12*
X252888750Y-99568000D03*
X259238750Y-97028000D03*
%TD*%
D16*
%TO.C,H1*%
X351410000Y-130340000D03*
%TD*%
D10*
%TO.C,S44*%
X325437500Y-121158000D03*
D11*
X330517500Y-121158000D03*
D10*
X335597500Y-121158000D03*
D12*
X326707500Y-118618000D03*
X333057500Y-116078000D03*
%TD*%
D10*
%TO.C,S7*%
X184943750Y-83058000D03*
D11*
X190023750Y-83058000D03*
D10*
X195103750Y-83058000D03*
D12*
X186213750Y-80518000D03*
X192563750Y-77978000D03*
%TD*%
D10*
%TO.C,S2*%
X99853750Y-83058000D03*
D11*
X94773750Y-83058000D03*
D10*
X89693750Y-83058000D03*
D12*
X98583750Y-85598000D03*
X92233750Y-88138000D03*
%TD*%
D10*
%TO.C,S34*%
X123031250Y-121158000D03*
D11*
X128111250Y-121158000D03*
D10*
X133191250Y-121158000D03*
D12*
X124301250Y-118618000D03*
X130651250Y-116078000D03*
%TD*%
D18*
%TO.C,R3*%
X79050000Y-78605000D03*
X79050000Y-80430000D03*
%TD*%
D19*
%TO.C,D27*%
X319087500Y-107726750D03*
X319087500Y-104426750D03*
%TD*%
D20*
%TO.C,C6*%
X177697500Y-167140000D03*
X175622500Y-167140000D03*
%TD*%
D19*
%TO.C,D39*%
X285750000Y-126776750D03*
X285750000Y-123476750D03*
%TD*%
%TO.C,D24*%
X261937500Y-107726750D03*
X261937500Y-104426750D03*
%TD*%
%TO.C,D9*%
X233362500Y-88676750D03*
X233362500Y-85376750D03*
%TD*%
%TO.C,D59*%
X297656250Y-164876750D03*
X297656250Y-161576750D03*
%TD*%
%TO.C,D42*%
X92868750Y-145826750D03*
X92868750Y-142526750D03*
%TD*%
%TO.C,D47*%
X200025000Y-145826750D03*
X200025000Y-142526750D03*
%TD*%
%TO.C,D25*%
X280987500Y-107726750D03*
X280987500Y-104426750D03*
%TD*%
%TO.C,D45*%
X161925000Y-145826750D03*
X161925000Y-142526750D03*
%TD*%
%TO.C,D6*%
X176212500Y-88676750D03*
X176212500Y-85376750D03*
%TD*%
%TO.C,D22*%
X223837500Y-107726750D03*
X223837500Y-104426750D03*
%TD*%
%TO.C,D57*%
X202406250Y-164876750D03*
X202406250Y-161576750D03*
%TD*%
D20*
%TO.C,C4*%
X177687500Y-164980000D03*
X175612500Y-164980000D03*
%TD*%
D19*
%TO.C,D21*%
X204787500Y-107726750D03*
X204787500Y-104426750D03*
%TD*%
%TO.C,D23*%
X242887500Y-107726750D03*
X242887500Y-104426750D03*
%TD*%
D18*
%TO.C,R2*%
X91620000Y-78727500D03*
X91620000Y-80552500D03*
%TD*%
D19*
%TO.C,D32*%
X152400000Y-126776750D03*
X152400000Y-123476750D03*
%TD*%
%TO.C,D8*%
X214312500Y-88676750D03*
X214312500Y-85376750D03*
%TD*%
%TO.C,D29*%
X88106250Y-126776750D03*
X88106250Y-123476750D03*
%TD*%
D21*
%TO.C,C7*%
X94550000Y-94967500D03*
X94550000Y-92892500D03*
%TD*%
D19*
%TO.C,D31*%
X133350000Y-126776750D03*
X133350000Y-123476750D03*
%TD*%
D22*
%TO.C,U2*%
X173680000Y-163760000D03*
X173180000Y-163760000D03*
X172680000Y-163760000D03*
X172180000Y-163760000D03*
X171680000Y-163760000D03*
X171180000Y-163760000D03*
X170680000Y-163760000D03*
X170180000Y-163760000D03*
X169680000Y-163760000D03*
X169180000Y-163760000D03*
X168680000Y-163760000D03*
X168180000Y-163760000D03*
D23*
X166767500Y-162347500D03*
X166767500Y-161847500D03*
X166767500Y-161347500D03*
X166767500Y-160847500D03*
X166767500Y-160347500D03*
X166767500Y-159847500D03*
X166767500Y-159347500D03*
X166767500Y-158847500D03*
X166767500Y-158347500D03*
X166767500Y-157847500D03*
X166767500Y-157347500D03*
X166767500Y-156847500D03*
D22*
X168180000Y-155435000D03*
X168680000Y-155435000D03*
X169180000Y-155435000D03*
X169680000Y-155435000D03*
X170180000Y-155435000D03*
X170680000Y-155435000D03*
X171180000Y-155435000D03*
X171680000Y-155435000D03*
X172180000Y-155435000D03*
X172680000Y-155435000D03*
X173180000Y-155435000D03*
X173680000Y-155435000D03*
D23*
X175092500Y-156847500D03*
X175092500Y-157347500D03*
X175092500Y-157847500D03*
X175092500Y-158347500D03*
X175092500Y-158847500D03*
X175092500Y-159347500D03*
X175092500Y-159847500D03*
X175092500Y-160347500D03*
X175092500Y-160847500D03*
X175092500Y-161347500D03*
X175092500Y-161847500D03*
X175092500Y-162347500D03*
%TD*%
D19*
%TO.C,D60*%
X321468750Y-164876750D03*
X321468750Y-161576750D03*
%TD*%
%TO.C,D13*%
X309562500Y-88676750D03*
X309562500Y-85376750D03*
%TD*%
D24*
%TO.C,U3*%
X90000000Y-92735000D03*
X91900000Y-92735000D03*
X90950000Y-95010000D03*
%TD*%
D19*
%TO.C,D33*%
X171450000Y-126776750D03*
X171450000Y-123476750D03*
%TD*%
%TO.C,D28*%
X342900000Y-107726750D03*
X342900000Y-104426750D03*
%TD*%
%TO.C,D7*%
X195262500Y-88676750D03*
X195262500Y-85376750D03*
%TD*%
%TO.C,D56*%
X130968750Y-164876750D03*
X130968750Y-161576750D03*
%TD*%
D25*
%TO.C,D2*%
X100287500Y-88265000D03*
X96987500Y-88265000D03*
%TD*%
D19*
%TO.C,D51*%
X276225000Y-145826750D03*
X276225000Y-142526750D03*
%TD*%
D26*
%TO.C,J1*%
X82392500Y-78580000D03*
X88172500Y-78580000D03*
D27*
X82032500Y-80025000D03*
X82832500Y-80025000D03*
D28*
X84032500Y-80025000D03*
X85032500Y-80025000D03*
X85532500Y-80025000D03*
X86532500Y-80025000D03*
D27*
X87732500Y-80025000D03*
X88532500Y-80025000D03*
X88532500Y-80025000D03*
X87732500Y-80025000D03*
D28*
X87032500Y-80025000D03*
X86032500Y-80025000D03*
X84532500Y-80025000D03*
X83532500Y-80025000D03*
D27*
X82832500Y-80025000D03*
X82032500Y-80025000D03*
D29*
X80962500Y-74930000D03*
D30*
X80962500Y-79110000D03*
D29*
X89602500Y-74930000D03*
D30*
X89602500Y-79110000D03*
%TD*%
D19*
%TO.C,D16*%
X109537500Y-107726750D03*
X109537500Y-104426750D03*
%TD*%
%TO.C,D61*%
X345281250Y-164876750D03*
X345281250Y-161576750D03*
%TD*%
%TO.C,D5*%
X157162500Y-88676750D03*
X157162500Y-85376750D03*
%TD*%
D31*
%TO.C,SW2*%
X181100000Y-165070000D03*
X187400000Y-165070000D03*
X181100000Y-161270000D03*
X187400000Y-161270000D03*
%TD*%
D25*
%TO.C,D1*%
X81026000Y-88519000D03*
X77726000Y-88519000D03*
%TD*%
D19*
%TO.C,D40*%
X304800000Y-126776750D03*
X304800000Y-123476750D03*
%TD*%
%TO.C,D54*%
X83343750Y-164876750D03*
X83343750Y-161576750D03*
%TD*%
D32*
%TO.C,U1*%
X86230000Y-86830000D03*
X85280000Y-86830000D03*
X84330000Y-86830000D03*
X84330000Y-84555000D03*
X85280000Y-84555000D03*
X86230000Y-84555000D03*
%TD*%
D19*
%TO.C,D41*%
X335756250Y-126776750D03*
X335756250Y-123476750D03*
%TD*%
%TO.C,D30*%
X114300000Y-126776750D03*
X114300000Y-123476750D03*
%TD*%
%TO.C,D26*%
X300037500Y-107726750D03*
X300037500Y-104426750D03*
%TD*%
%TO.C,D18*%
X147637500Y-107726750D03*
X147637500Y-104426750D03*
%TD*%
D33*
%TO.C,F1*%
X89000000Y-85292500D03*
X89000000Y-88267500D03*
%TD*%
D34*
%TO.C,C8*%
X92262500Y-90660000D03*
X94337500Y-90660000D03*
%TD*%
D19*
%TO.C,D50*%
X257175000Y-145826750D03*
X257175000Y-142526750D03*
%TD*%
%TO.C,D3*%
X119062500Y-88676750D03*
X119062500Y-85376750D03*
%TD*%
%TO.C,D49*%
X238125000Y-145826750D03*
X238125000Y-142526750D03*
%TD*%
%TO.C,D37*%
X247650000Y-126776750D03*
X247650000Y-123476750D03*
%TD*%
%TO.C,D34*%
X190500000Y-126776750D03*
X190500000Y-123476750D03*
%TD*%
%TO.C,D17*%
X128587500Y-107789250D03*
X128587500Y-104489250D03*
%TD*%
%TO.C,D10*%
X252412500Y-88676750D03*
X252412500Y-85376750D03*
%TD*%
%TO.C,D20*%
X185737500Y-107726750D03*
X185737500Y-104426750D03*
%TD*%
%TO.C,D11*%
X271462500Y-88676750D03*
X271462500Y-85376750D03*
%TD*%
%TO.C,D36*%
X228600000Y-126776750D03*
X228600000Y-123476750D03*
%TD*%
%TO.C,D19*%
X166687500Y-107726750D03*
X166687500Y-104426750D03*
%TD*%
%TO.C,D46*%
X180975000Y-145826750D03*
X180975000Y-142526750D03*
%TD*%
D18*
%TO.C,R1*%
X178900000Y-161287500D03*
X178900000Y-163112500D03*
%TD*%
D34*
%TO.C,C1*%
X167405000Y-166300000D03*
X169480000Y-166300000D03*
%TD*%
D19*
%TO.C,D14*%
X338137500Y-88676750D03*
X338137500Y-85376750D03*
%TD*%
%TO.C,D55*%
X107156250Y-164876750D03*
X107156250Y-161576750D03*
%TD*%
%TO.C,D15*%
X85725000Y-107726750D03*
X85725000Y-104426750D03*
%TD*%
%TO.C,D44*%
X142875000Y-145826750D03*
X142875000Y-142526750D03*
%TD*%
%TO.C,D35*%
X209550000Y-126776750D03*
X209550000Y-123476750D03*
%TD*%
%TO.C,D58*%
X273843750Y-164876750D03*
X273843750Y-161576750D03*
%TD*%
D20*
%TO.C,C9*%
X173557500Y-166280000D03*
X171482500Y-166280000D03*
%TD*%
D35*
%TO.C,C2*%
X163520000Y-155812500D03*
X163520000Y-157887500D03*
%TD*%
D19*
%TO.C,D12*%
X290512500Y-88676750D03*
X290512500Y-85376750D03*
%TD*%
%TO.C,D43*%
X123825000Y-145826750D03*
X123825000Y-142526750D03*
%TD*%
%TO.C,D52*%
X295275000Y-145826750D03*
X295275000Y-142526750D03*
%TD*%
%TO.C,D53*%
X330993750Y-145764250D03*
X330993750Y-142464250D03*
%TD*%
%TO.C,D4*%
X138112500Y-88676750D03*
X138112500Y-85376750D03*
%TD*%
D35*
%TO.C,C5*%
X160660000Y-155812500D03*
X160660000Y-157887500D03*
%TD*%
D19*
%TO.C,D38*%
X266700000Y-126776750D03*
X266700000Y-123476750D03*
%TD*%
D20*
%TO.C,C3*%
X175447500Y-152920000D03*
X173372500Y-152920000D03*
%TD*%
D19*
%TO.C,D48*%
X219075000Y-145826750D03*
X219075000Y-142526750D03*
%TD*%
M02*
