M48
; DRILL file {KiCad 8.0.3} date 2025-05-11T02:01:34-0400
; FORMAT={-:-/ absolute / inch / decimal}
; #@! TF.CreationDate,2025-05-11T02:01:34-04:00
; #@! TF.GenerationSoftware,Kicad,Pcbnew,8.0.3
; #@! TF.FileFunction,Plated,1,2,PTH
FMAT,2
INCH
; #@! TA.AperFunction,Plated,PTH,ViaDrill
T1C0.0118
; #@! TA.AperFunction,Plated,PTH,ComponentDrill
T2C0.0236
; #@! TA.AperFunction,Plated,PTH,ComponentDrill
T3C0.0591
%
G90
G05
T1
X2.8266Y-4.2429
X2.8915Y-4.2429
X3.1459Y-6.4039
X3.1472Y-3.0543
X3.1782Y-6.4231
X3.2445Y-3.3756
X3.2811Y-3.2299
X3.3051Y-3.0583
X3.3258Y-3.5228
X3.3281Y-3.2614
X3.3437Y-3.3764
X3.3583Y-3.3303
X3.3811Y-3.2264
X3.3992Y-6.4243
X3.3992Y-3.4803
X3.424Y-6.3967
X3.4264Y-3.0575
X3.4303Y-3.2319
X3.5335Y-3.5236
X3.5657Y-3.0535
X3.7606Y-5.7429
X3.7795Y-3.6559
X3.9024Y-4.3106
X3.9031Y-4.198
X3.9246Y-4.9913
X4.0378Y-4.9921
X4.0743Y-6.3967
X4.1023Y-6.423
X4.2603Y-5.6185
X4.3073Y-6.3945
X4.3548Y-6.403
X5.0438Y-6.3997
X5.0791Y-6.3718
X5.2591Y-6.3994
X5.2843Y-6.3745
X5.5717Y-6.3791
X5.5724Y-6.5382
X5.6213Y-6.4933
X6.0634Y-5.8356
X6.065Y-5.9272
X6.2142Y-6.298
X6.2152Y-6.3295
X6.439Y-6.2634
X6.5772Y-6.4874
X6.6409Y-6.228
X6.6587Y-5.7688
X6.661Y-6.2831
X6.6807Y-6.072
X6.6997Y-6.1639
X6.7199Y-6.0751
X6.7361Y-6.1662
X6.8004Y-5.9654
X6.823Y-6.3464
X6.8378Y-6.3154
X7.5669Y-6.5984
X7.6882Y-5.7744
X8.0811Y-5.7688
X8.8354Y-5.7688
X9.528Y-6.3579
X9.761Y-5.7688
X10.2996Y-5.8969
T3
X2.8813Y-3.47
X2.925Y-6.17
X3.0187Y-3.92
X3.1125Y-4.67
X3.1313Y-3.37
X3.175Y-6.07
X3.2687Y-3.82
X3.3Y-5.42
X3.3625Y-4.57
X3.55Y-5.32
X3.6313Y-3.47
X3.8625Y-6.17
X3.8813Y-3.37
X3.9562Y-3.92
X4.1125Y-6.07
X4.1437Y-4.67
X4.2062Y-3.82
X4.3312Y-3.17
X4.3937Y-4.57
X4.5187Y-5.42
X4.5812Y-3.07
X4.7062Y-3.92
X4.7687Y-5.32
X4.8Y-6.17
X4.8937Y-4.67
X4.9562Y-3.82
X5.05Y-6.07
X5.0812Y-3.17
X5.1437Y-4.57
X5.2687Y-5.42
X5.3312Y-3.07
X5.4562Y-3.92
X5.5187Y-5.32
X5.6437Y-4.67
X5.7062Y-3.82
X5.8312Y-3.17
X5.8937Y-4.57
X6.0187Y-5.42
X6.0812Y-3.07
X6.2125Y-3.92
X6.2687Y-5.32
X6.3937Y-4.67
X6.4625Y-3.82
X6.5812Y-3.17
X6.6437Y-4.57
X6.7687Y-5.42
X6.8312Y-3.07
X6.9562Y-3.92
X7.0187Y-5.32
X7.1437Y-4.67
X7.2062Y-3.82
X7.3312Y-3.17
X7.3937Y-4.57
X7.5187Y-5.42
X7.5812Y-3.07
X7.6125Y-6.17
X7.7062Y-3.92
X7.7687Y-5.32
X7.8625Y-6.07
X7.8937Y-4.67
X7.9562Y-3.82
X8.0812Y-3.17
X8.1437Y-4.57
X8.2687Y-5.42
X8.3312Y-3.07
X8.4562Y-3.92
X8.5187Y-5.32
X8.6437Y-4.67
X8.7062Y-3.82
X8.8312Y-3.17
X8.8937Y-4.57
X9.0187Y-5.42
X9.0812Y-3.07
X9.2062Y-3.92
X9.2687Y-5.32
X9.3937Y-4.67
X9.4562Y-3.82
X9.5812Y-3.17
X9.6437Y-4.57
X9.7687Y-5.42
X9.8312Y-3.07
X9.9562Y-3.92
X10.0187Y-5.32
X10.1437Y-4.67
X10.2062Y-3.82
X10.3312Y-3.17
X10.3937Y-4.57
X10.425Y-6.17
X10.5187Y-5.42
X10.5812Y-3.07
X10.675Y-6.07
X10.7062Y-3.92
X10.7687Y-5.32
X10.8937Y-4.67
X10.9562Y-3.82
X11.0812Y-3.17
X11.1437Y-4.57
X11.2687Y-5.42
X11.3312Y-3.07
X11.3625Y-6.17
X11.4562Y-3.92
X11.5187Y-5.32
X11.6125Y-6.07
X11.6437Y-4.67
X11.7062Y-3.82
X11.8312Y-3.17
X11.8937Y-4.57
X12.0812Y-3.07
X12.2062Y-3.92
X12.3Y-6.17
X12.4562Y-3.82
X12.55Y-6.07
X12.675Y-5.42
X12.8625Y-4.67
X12.925Y-5.32
X12.9562Y-3.17
X13.1125Y-4.57
X13.1437Y-3.92
X13.2062Y-3.07
X13.2375Y-6.17
X13.3937Y-3.82
X13.4875Y-6.07
T2
G00X3.1875Y-2.9382
M15
G01X3.1875Y-2.9618
M16
G05
G00X3.1875Y-3.0929
M15
G01X3.1875Y-3.1362
M16
G05
G00X3.5277Y-2.9382
M15
G01X3.5277Y-2.9618
M16
G05
G00X3.5277Y-3.0929
M15
G01X3.5277Y-3.1362
M16
G05
M30
