M48
; DRILL file {KiCad 8.0.3} date 2025-05-11T02:01:34-0400
; FORMAT={-:-/ absolute / inch / decimal}
; #@! TF.CreationDate,2025-05-11T02:01:34-04:00
; #@! TF.GenerationSoftware,Kicad,Pcbnew,8.0.3
; #@! TF.FileFunction,NonPlated,1,2,NPTH
FMAT,2
INCH
; #@! TA.AperFunction,NonPlated,NPTH,ComponentDrill
T1C0.0256
; #@! TA.AperFunction,NonPlated,NPTH,ComponentDrill
T2C0.0689
; #@! TA.AperFunction,NonPlated,NPTH,ComponentDrill
T3C0.0866
; #@! TA.AperFunction,NonPlated,NPTH,ComponentDrill
T4C0.1200
; #@! TA.AperFunction,NonPlated,NPTH,ComponentDrill
T5C0.1570
; #@! TA.AperFunction,NonPlated,NPTH,ComponentDrill
T6C0.1575
%
G90
G05
T1
X3.2438Y-3.0937
X3.4714Y-3.0937
T2
X2.7812Y-3.27
X2.875Y-6.27
X2.9688Y-4.02
X3.0625Y-4.77
X3.1812Y-3.27
X3.25Y-5.52
X3.275Y-6.27
X3.3687Y-4.02
X3.4625Y-4.77
X3.5312Y-3.27
X3.65Y-5.52
X3.8125Y-6.27
X3.9062Y-4.02
X3.9312Y-3.27
X4.0938Y-4.77
X4.2125Y-6.27
X4.2812Y-3.27
X4.3062Y-4.02
X4.4688Y-5.52
X4.4937Y-4.77
X4.6562Y-4.02
X4.6812Y-3.27
X4.75Y-6.27
X4.8438Y-4.77
X4.8687Y-5.52
X5.0312Y-3.27
X5.0562Y-4.02
X5.15Y-6.27
X5.2188Y-5.52
X5.2437Y-4.77
X5.4062Y-4.02
X5.4312Y-3.27
X5.5938Y-4.77
X5.6187Y-5.52
X5.7812Y-3.27
X5.8062Y-4.02
X5.9688Y-5.52
X5.9937Y-4.77
X6.1625Y-4.02
X6.1812Y-3.27
X6.3438Y-4.77
X6.3687Y-5.52
X6.5312Y-3.27
X6.5625Y-4.02
X6.7188Y-5.52
X6.7437Y-4.77
X6.9062Y-4.02
X6.9312Y-3.27
X7.0938Y-4.77
X7.1187Y-5.52
X7.2812Y-3.27
X7.3062Y-4.02
X7.4688Y-5.52
X7.4937Y-4.77
X7.5625Y-6.27
X7.6562Y-4.02
X7.6812Y-3.27
X7.8438Y-4.77
X7.8687Y-5.52
X7.9625Y-6.27
X8.0312Y-3.27
X8.0563Y-4.02
X8.2188Y-5.52
X8.2438Y-4.77
X8.4062Y-4.02
X8.4313Y-3.27
X8.5938Y-4.77
X8.6188Y-5.52
X8.7812Y-3.27
X8.8063Y-4.02
X8.9688Y-5.52
X8.9938Y-4.77
X9.1562Y-4.02
X9.1813Y-3.27
X9.3438Y-4.77
X9.3688Y-5.52
X9.5312Y-3.27
X9.5563Y-4.02
X9.7188Y-5.52
X9.7438Y-4.77
X9.9062Y-4.02
X9.9313Y-3.27
X10.0938Y-4.77
X10.1188Y-5.52
X10.2812Y-3.27
X10.3063Y-4.02
X10.375Y-6.27
X10.4688Y-5.52
X10.4938Y-4.77
X10.6562Y-4.02
X10.6813Y-3.27
X10.775Y-6.27
X10.8438Y-4.77
X10.8688Y-5.52
X11.0312Y-3.27
X11.0563Y-4.02
X11.2188Y-5.52
X11.2438Y-4.77
X11.3125Y-6.27
X11.4062Y-4.02
X11.4313Y-3.27
X11.5938Y-4.77
X11.6188Y-5.52
X11.7125Y-6.27
X11.7812Y-3.27
X11.8063Y-4.02
X11.9938Y-4.77
X12.1562Y-4.02
X12.1813Y-3.27
X12.25Y-6.27
X12.5563Y-4.02
X12.625Y-5.52
X12.65Y-6.27
X12.8125Y-4.77
X12.9062Y-3.27
X13.025Y-5.52
X13.0938Y-4.02
X13.1875Y-6.27
X13.2125Y-4.77
X13.3063Y-3.27
X13.4938Y-4.02
X13.5875Y-6.27
T3
X3.6122Y-4.0051
T4
X2.98Y-5.2451
X3.92Y-5.2451
X5.7991Y-5.9406
X9.7361Y-5.9406
X12.3548Y-5.2533
X12.5426Y-4.4951
X12.6363Y-2.9951
X13.2948Y-5.2533
X13.4826Y-4.4951
X13.5763Y-2.9951
T5
X2.98Y-5.8439
X3.92Y-5.8439
X5.7991Y-6.5394
X9.7361Y-6.5394
X12.3548Y-5.8522
X12.5426Y-5.0939
X12.6363Y-3.5939
X13.2948Y-5.8522
X13.4826Y-5.0939
X13.5763Y-3.5939
T6
X2.9812Y-3.27
X3.075Y-6.27
X3.1687Y-4.02
X3.2625Y-4.77
X3.45Y-5.52
X3.7312Y-3.27
X4.0125Y-6.27
X4.1063Y-4.02
X4.2938Y-4.77
X4.4813Y-3.27
X4.6688Y-5.52
X4.8563Y-4.02
X4.95Y-6.27
X5.0438Y-4.77
X5.2313Y-3.27
X5.4188Y-5.52
X5.6063Y-4.02
X5.7938Y-4.77
X5.9813Y-3.27
X6.1688Y-5.52
X6.3625Y-4.02
X6.5438Y-4.77
X6.7313Y-3.27
X6.9188Y-5.52
X7.1063Y-4.02
X7.2938Y-4.77
X7.4813Y-3.27
X7.6688Y-5.52
X7.7625Y-6.27
X7.8563Y-4.02
X8.0437Y-4.77
X8.2312Y-3.27
X8.4187Y-5.52
X8.6062Y-4.02
X8.7937Y-4.77
X8.9812Y-3.27
X9.1687Y-5.52
X9.3562Y-4.02
X9.5437Y-4.77
X9.7312Y-3.27
X9.9187Y-5.52
X10.1062Y-4.02
X10.2937Y-4.77
X10.4812Y-3.27
X10.575Y-6.27
X10.6687Y-5.52
X10.8562Y-4.02
X11.0437Y-4.77
X11.2312Y-3.27
X11.4187Y-5.52
X11.5125Y-6.27
X11.6062Y-4.02
X11.7937Y-4.77
X11.9812Y-3.27
X12.3562Y-4.02
X12.45Y-6.27
X12.825Y-5.52
X13.0125Y-4.77
X13.1062Y-3.27
X13.2937Y-4.02
X13.3875Y-6.27
T3
G00X2.5874Y-5.1315
M15
G01X2.6661Y-5.1315
M16
G05
G00X7.6484Y-4.7579
M15
G01X7.6878Y-4.7579
M16
G05
G00X10.1008Y-6.2618
M15
G01X10.1402Y-6.2618
M16
G05
G00X12.8402Y-4.0063
M15
G01X12.8795Y-4.0063
M16
G05
G00X13.7957Y-5.1315
M15
G01X13.8744Y-5.1315
M16
G05
M30
